<?xml version="1.0" encoding="utf-8"?>
<!-- Generator: Adobe Illustrator 24.0.1, SVG Export Plug-In . SVG Version: 6.00 Build 0)  -->
<svg version="1.1" id="Layer_1" xmlns="http://www.w3.org/2000/svg" xmlns:xlink="http://www.w3.org/1999/xlink" x="0px" y="0px"
	 viewBox="0 0 40.3 27.4" style="enable-background:new 0 0 40.3 27.4;" xml:space="preserve">
<style type="text/css">
	.st0{fill-rule:evenodd;clip-rule:evenodd;fill:#ED7E23;}
	.st1{fill-rule:evenodd;clip-rule:evenodd;fill:#3D3D3D;}
</style>
<path class="st0" d="M14.8,0.9h12.1c2.4,0,4.3,0.2,5.8,0.7c1.5,0.5,2.7,1.1,3.6,2c1,0.9,1.6,1.9,2.1,3C38.8,7.8,39,9,39,10.3
	c0,2-0.3,3.6-1,4.7c-0.6,1.1-1.5,2-2.7,2.8c-1.1,0.7-2.4,1.2-3.7,1.5c-1.8,0.3-3.4,0.5-4.8,0.5H14.8V0.9z M22.9,5.2v10.3h2
	c1.7,0,2.9-0.1,3.6-0.4c0.7-0.3,1.3-0.7,1.7-1.4c0.4-0.7,0.6-1.8,0.6-3.3c0-2-0.5-3.3-1.4-4.1c-0.9-0.7-2.4-1.1-4.5-1.1H22.9z
	 M24.2,6.1v8.4h0.7c0.8,0,2.3,0,3-0.3c0.5-0.2,0.9-0.6,1.1-1c0.5-0.7,0.5-2.1,0.5-2.9c0-0.9-0.1-2.7-1-3.5c-0.8-0.7-2.4-0.8-3.6-0.8
	H24.2z M13.4,0h13.4c2.1,0,4.4,0.2,6.3,0.8c1.6,0.5,3,1.3,4.1,2.3c1.1,1,1.9,2.1,2.3,3.3c0.5,1.3,0.7,2.6,0.7,3.9
	c0,1.6-0.2,3.5-1.1,5c-0.7,1.2-1.7,2.2-3,3.1c-1.2,0.8-2.6,1.4-4.2,1.7c-1.7,0.3-3.4,0.5-5.2,0.5H13.4V0z"/>
<path class="st1" d="M1.3,8.1h24.3v4.6h-8.1v13.9h-8V12.6H1.3V8.1z M18.7,13.5v13.9H8.1V13.5H0V7.2h26.8v6.4H18.7z"/>
</svg>
