<?xml version="1.0" encoding="utf-8"?>
<!-- Generator: Adobe Illustrator 24.0.1, SVG Export Plug-In . SVG Version: 6.00 Build 0)  -->
<svg version="1.1" id="Layer_1" xmlns="http://www.w3.org/2000/svg" xmlns:xlink="http://www.w3.org/1999/xlink" x="0px" y="0px"
	 viewBox="0 0 106.3 29.7" style="enable-background:new 0 0 106.3 29.7;" xml:space="preserve">
<style type="text/css">
	.st0{fill-rule:evenodd;clip-rule:evenodd;fill:#ED7E23;}
	.st1{fill-rule:evenodd;clip-rule:evenodd;fill:#3D3D3D;}
</style>
<path class="st0" d="M14.6,1.1h12.1c2.4,0,4.3,0.2,5.8,0.7c1.5,0.5,2.7,1.1,3.6,2c1,0.9,1.6,1.9,2.1,3c0.4,1.1,0.6,2.4,0.6,3.6
	c0,2-0.3,3.6-1,4.7c-0.6,1.1-1.5,2-2.7,2.8c-1.1,0.7-2.4,1.2-3.7,1.5c-1.8,0.3-3.4,0.5-4.8,0.5H14.6V1.1z M22.8,5.3v10.3h2
	c1.7,0,2.9-0.1,3.6-0.4c0.7-0.3,1.3-0.7,1.7-1.4c0.4-0.7,0.6-1.8,0.6-3.3c0-2-0.5-3.3-1.4-4.1c-0.9-0.7-2.4-1.1-4.5-1.1H22.8z
	 M24.1,6.2v8.4h0.7c0.8,0,2.3,0,3-0.3c0.5-0.2,0.9-0.6,1.1-1c0.5-0.7,0.5-2.1,0.5-2.9c0-0.9-0.1-2.7-1-3.5c-0.8-0.7-2.4-0.8-3.6-0.8
	H24.1z M13.3,0.1h13.4c2.1,0,4.4,0.2,6.3,0.8c1.6,0.5,3,1.3,4.1,2.3c1.1,1,1.9,2.1,2.3,3.3c0.5,1.3,0.7,2.6,0.7,3.9
	c0,1.6-0.2,3.5-1.1,5c-0.7,1.2-1.7,2.2-3,3.1c-1.2,0.8-2.6,1.4-4.2,1.7c-1.7,0.3-3.4,0.5-5.2,0.5H13.3V0.1z"/>
<path class="st0" d="M71.6,12.4h2.8v0.9c0.3-0.4,0.6-0.7,0.8-0.8c0.3-0.1,0.6-0.2,1.1-0.2c0.4,0,0.9,0.1,1.5,0.3l-0.9,1.5
	c-0.4-0.1-0.6-0.2-0.8-0.2c-0.4,0-0.7,0.1-0.9,0.3c-0.3,0.3-0.5,0.9-0.5,1.8V18h-3V12.4z M75,12.2c0.4-0.2,0.9-0.3,1.4-0.3
	c0.6,0,1.2,0.1,1.7,0.3l0.4,0.2l-1.3,2.2l-0.5-0.1c-0.2,0-0.5-0.1-0.6-0.1c-0.2,0-0.4,0.1-0.5,0.2c-0.3,0.4-0.4,1.2-0.4,1.6v2.3
	h-4.1V12H75V12.2z"/>
<path class="st0" d="M50,15.7h-6c0.1,0.3,0.2,0.6,0.4,0.8c0.3,0.2,0.7,0.4,1.1,0.4c0.3,0,0.6-0.1,0.8-0.2c0.2-0.1,0.3-0.2,0.5-0.4
	l3,0.2c-0.5,0.6-1,1-1.6,1.2c-0.6,0.2-1.6,0.4-2.8,0.4c-1,0-1.9-0.1-2.5-0.3c-0.6-0.2-1.1-0.5-1.5-1c-0.4-0.5-0.6-1-0.6-1.6
	c0-0.9,0.4-1.6,1.2-2.1c0.8-0.5,1.9-0.8,3.3-0.8c1.1,0,2,0.1,2.7,0.4c0.7,0.2,1.1,0.6,1.5,1.1c0.3,0.5,0.5,1.1,0.5,1.8V15.7z
	 M44.6,16.1c0,0.1,0.1,0.1,0.1,0.1c0.2,0.2,0.4,0.2,0.7,0.2c0.2,0,0.4,0,0.6-0.1c0.1-0.1,0.3-0.2,0.4-0.3l0,0H44.6z M46.9,14.7
	c-0.1-0.4-0.2-0.7-0.5-0.9c-0.3-0.2-0.6-0.3-1-0.3c-0.5,0-0.9,0.1-1.1,0.4c-0.2,0.2-0.3,0.4-0.3,0.8H46.9z M46.3,14.3
	c0-0.1-0.1-0.2-0.2-0.2c-0.2-0.1-0.4-0.2-0.6-0.2c-0.3,0-0.5,0.1-0.7,0.3c0,0-0.1,0.1-0.1,0.1H46.3z M57.2,15.8l2.9,0.2
	c-0.2,0.4-0.4,0.8-0.8,1.1c-0.4,0.3-0.8,0.6-1.4,0.7c-0.6,0.2-1.3,0.3-2.1,0.3c-0.8,0-1.5-0.1-2.1-0.2c-0.6-0.1-1-0.3-1.4-0.5
	c-0.4-0.2-0.7-0.5-0.9-0.9c-0.2-0.3-0.3-0.8-0.3-1.3c0-0.6,0.1-1.1,0.4-1.4c0.2-0.3,0.5-0.5,0.8-0.8c0.4-0.2,0.7-0.4,1.1-0.5
	c0.6-0.2,1.3-0.3,2.3-0.3c1.3,0,2.3,0.2,2.9,0.5c0.7,0.3,1.1,0.8,1.4,1.4l-2.8,0.3c-0.1-0.2-0.3-0.4-0.5-0.5
	c-0.2-0.1-0.5-0.2-0.9-0.2c-0.5,0-0.9,0.1-1.2,0.4c-0.3,0.3-0.5,0.6-0.5,1.2c0,0.5,0.2,0.8,0.5,1.1c0.3,0.2,0.7,0.4,1.2,0.4
	c0.4,0,0.7-0.1,1-0.2C56.9,16.3,57.1,16.1,57.2,15.8z M61.1,15.2c0-0.9,0.4-1.6,1.2-2.1c0.8-0.6,1.9-0.8,3.3-0.8
	c1.6,0,2.8,0.3,3.6,1c0.6,0.5,1,1.2,1,1.9c0,0.9-0.4,1.6-1.2,2.1c-0.8,0.5-1.9,0.8-3.3,0.8c-1.3,0-2.3-0.2-3.1-0.7
	C61.6,16.9,61.1,16.1,61.1,15.2z M64.1,15.2c0,0.5,0.1,0.9,0.4,1.1c0.3,0.2,0.6,0.4,1.1,0.4c0.4,0,0.8-0.1,1.1-0.4
	c0.3-0.2,0.4-0.6,0.4-1.1c0-0.5-0.1-0.8-0.4-1.1c-0.3-0.2-0.6-0.4-1-0.4c-0.4,0-0.8,0.1-1.1,0.4C64.3,14.3,64.1,14.7,64.1,15.2z
	 M64.7,15.2c0,0.3,0,0.6,0.3,0.9c0.2,0.1,0.4,0.2,0.7,0.2c0.3,0,0.5-0.1,0.7-0.2c0.3-0.2,0.3-0.6,0.3-0.9c0-0.3,0-0.6-0.3-0.8
	c-0.2-0.1-0.4-0.2-0.6-0.2c-0.3,0-0.5,0.1-0.7,0.2C64.7,14.6,64.7,14.9,64.7,15.2z M50.6,16.2c0-0.1-0.1-0.3-0.1-0.4v0.3h-1.5
	L50.6,16.2z M60.6,15.7c0-0.2,0-0.3,0-0.5c0-0.9,0.4-1.7,1.4-2.4c1-0.7,2.3-0.9,3.6-0.9c1.5,0,2.9,0.3,4,1.1
	c0.8,0.6,1.1,1.4,1.1,2.2c0,0.9-0.4,1.7-1.4,2.4c-1,0.7-2.3,0.9-3.7,0.9c-1.2,0-2.4-0.2-3.4-0.8c-0.8-0.5-1.3-1.1-1.5-1.8l-0.1,0.2
	c-0.2,0.5-0.5,0.9-0.9,1.3c-0.4,0.4-1,0.6-1.6,0.8c-0.7,0.2-1.6,0.3-2.3,0.3c-0.7,0-1.5,0-2.2-0.2C53,18.2,52.4,18,52,17.7
	c-0.5-0.3-0.8-0.6-1.1-1c-0.1-0.1-0.2-0.3-0.2-0.4l-0.4,0.5c-0.5,0.6-1,1.1-1.9,1.4c-0.9,0.3-2,0.4-3,0.4c-0.9,0-1.9-0.1-2.7-0.4
	C42,17.9,41.4,17.5,41,17c-0.5-0.5-0.7-1.2-0.7-1.8c0-0.9,0.4-1.8,1.3-2.4c1-0.7,2.3-0.9,3.6-0.9c1,0,2,0.1,2.9,0.4
	c0.7,0.3,1.3,0.7,1.7,1.2c0.3,0.4,0.5,0.9,0.5,1.4c0-0.4,0.2-0.9,0.5-1.3c0.2-0.3,0.6-0.6,0.9-0.9c0.4-0.2,0.8-0.4,1.2-0.6
	c0.8-0.2,1.6-0.3,2.5-0.3c1.1,0,2.3,0.1,3.2,0.6c0.8,0.4,1.3,1,1.6,1.6l0.2,0.4l-3.9,0.4l-0.1-0.3c0-0.1-0.1-0.2-0.3-0.3
	c-0.2-0.1-0.4-0.1-0.6-0.1c-0.3,0-0.6,0.1-0.8,0.2c-0.3,0.2-0.3,0.6-0.3,0.9c0,0.3,0.1,0.6,0.3,0.8c0.2,0.2,0.5,0.2,0.8,0.2
	c0.2,0,0.5,0,0.7-0.1c0.2-0.1,0.3-0.3,0.4-0.5l0.1-0.3L60.6,15.7z"/>
<path class="st1" d="M1.2,8.2h24.3v4.6h-8.1v13.9h-8V12.8H1.2V8.2z M18.6,13.7v13.9H8V13.7h-8.1V7.3h26.8v6.4H18.6z"/>
<path class="st1" d="M76.2,24.4c0-0.9,0.4-1.6,1.2-2.1c0.8-0.6,1.9-0.8,3.3-0.8c1.6,0,2.8,0.3,3.6,1c0.6,0.5,1,1.2,1,1.9
	c0,0.9-0.4,1.6-1.2,2.1c-0.8,0.5-1.9,0.8-3.3,0.8c-1.3,0-2.3-0.2-3.1-0.7C76.7,26,76.2,25.3,76.2,24.4 M79.2,24.4
	c0,0.5,0.1,0.9,0.4,1.1c0.3,0.2,0.6,0.4,1.1,0.4c0.4,0,0.8-0.1,1.1-0.4c0.3-0.2,0.4-0.6,0.4-1.1c0-0.5-0.1-0.8-0.4-1.1
	c-0.3-0.2-0.6-0.4-1-0.4c-0.4,0-0.8,0.1-1.1,0.4C79.4,23.5,79.2,23.9,79.2,24.4z M79.8,24.4c0,0.3,0,0.6,0.3,0.9
	c0.2,0.1,0.4,0.2,0.7,0.2c0.3,0,0.5-0.1,0.7-0.2c0.3-0.2,0.3-0.6,0.3-0.9c0-0.3,0-0.6-0.3-0.8c-0.2-0.1-0.4-0.2-0.6-0.2
	c-0.3,0-0.5,0.1-0.7,0.2C79.8,23.7,79.8,24.1,79.8,24.4z M75.7,24.4c0-0.9,0.4-1.7,1.4-2.4c1-0.7,2.3-0.9,3.6-0.9
	c1.5,0,2.9,0.3,4,1.1c0.8,0.6,1.1,1.4,1.1,2.2c0,0.9-0.4,1.7-1.4,2.4c-1,0.7-2.3,0.9-3.7,0.9c-1.2,0-2.4-0.2-3.4-0.8
	C76.2,26.2,75.7,25.4,75.7,24.4z"/>
<path class="st1" d="M71.6,19.4h3v7.7h-3V19.4z M71.1,19h4.1v8.5h-4.1V19z"/>
<path class="st1" d="M61,24.4c0-0.9,0.4-1.6,1.2-2.1c0.8-0.6,1.9-0.8,3.3-0.8c1.6,0,2.8,0.3,3.6,1c0.6,0.5,1,1.2,1,1.9
	c0,0.9-0.4,1.6-1.2,2.1c-0.8,0.5-1.9,0.8-3.3,0.8c-1.3,0-2.3-0.2-3.1-0.7C61.5,26,61,25.3,61,24.4 M64.1,24.4c0,0.5,0.1,0.9,0.4,1.1
	c0.3,0.2,0.6,0.4,1.1,0.4c0.4,0,0.8-0.1,1.1-0.4c0.3-0.2,0.4-0.6,0.4-1.1c0-0.5-0.1-0.8-0.4-1.1c-0.3-0.2-0.6-0.4-1-0.4
	c-0.4,0-0.8,0.1-1.1,0.4C64.2,23.5,64.1,23.9,64.1,24.4z M64.6,24.4c0,0.3,0,0.6,0.3,0.9c0.2,0.1,0.4,0.2,0.7,0.2
	c0.3,0,0.5-0.1,0.7-0.2c0.3-0.2,0.3-0.6,0.3-0.9c0-0.3,0-0.6-0.3-0.8c-0.2-0.1-0.4-0.2-0.6-0.2c-0.3,0-0.5,0.1-0.7,0.2
	C64.7,23.7,64.6,24.1,64.6,24.4z M60.5,24.4c0-0.9,0.4-1.7,1.4-2.4c1-0.7,2.3-0.9,3.6-0.9c1.5,0,2.9,0.3,4,1.1
	c0.8,0.6,1.1,1.4,1.1,2.2c0,0.9-0.4,1.7-1.4,2.4c-1,0.7-2.3,0.9-3.7,0.9c-1.2,0-2.4-0.2-3.4-0.8C61,26.2,60.5,25.4,60.5,24.4z"/>
<path class="st1" d="M51.3,21.5h2.8v0.9c0.4-0.4,0.8-0.6,1.3-0.8c0.4-0.2,1-0.2,1.6-0.2c0.8,0,1.5,0.2,2,0.5
	c0.5,0.4,0.7,0.9,0.7,1.6v3.6h-3v-3.1c0-0.4-0.1-0.6-0.3-0.7c-0.2-0.1-0.4-0.2-0.8-0.2c-0.4,0-0.7,0.1-0.9,0.3
	c-0.2,0.2-0.3,0.6-0.3,1.1v2.7h-3V21.5z M54.7,21.5c0.2-0.1,0.3-0.2,0.5-0.2c0.6-0.2,1.2-0.3,1.8-0.3c0.9,0,1.7,0.2,2.3,0.7
	c0.7,0.5,0.9,1.2,0.9,1.9v3.9h-4.1v-3.5c0-0.1,0-0.4-0.1-0.5c-0.1-0.1-0.2-0.1-0.4-0.1c-0.2,0-0.3,0-0.5,0.2
	c-0.2,0.2-0.2,0.6-0.2,0.8v3.1h-4.1v-6.4h3.9V21.5z"/>
<path class="st1" d="M30,24.9h-6c0.1,0.3,0.2,0.6,0.4,0.8c0.3,0.2,0.7,0.4,1.1,0.4c0.3,0,0.6-0.1,0.8-0.2c0.2-0.1,0.3-0.2,0.5-0.4
	l3,0.2c-0.5,0.6-1,1-1.6,1.2c-0.6,0.2-1.6,0.4-2.8,0.4c-1,0-1.9-0.1-2.5-0.3c-0.6-0.2-1.1-0.5-1.5-1c-0.4-0.5-0.6-1-0.6-1.6
	c0-0.9,0.4-1.6,1.2-2.1c0.8-0.5,1.9-0.8,3.3-0.8c1.1,0,2,0.1,2.7,0.4c0.7,0.2,1.1,0.6,1.5,1.1c0.3,0.5,0.5,1.1,0.5,1.8V24.9z
	 M26.9,23.9c-0.1-0.4-0.2-0.7-0.5-0.9c-0.3-0.2-0.6-0.3-1-0.3c-0.5,0-0.9,0.1-1.1,0.4c-0.2,0.2-0.3,0.4-0.3,0.8H26.9z M26.3,23.5
	c0-0.1-0.1-0.2-0.2-0.2c-0.2-0.1-0.4-0.2-0.6-0.2c-0.3,0-0.5,0.1-0.7,0.3c0,0-0.1,0.1-0.1,0.1H26.3z M24.6,25.3
	c0,0.1,0.1,0.1,0.1,0.1c0.2,0.2,0.4,0.2,0.7,0.2c0.2,0,0.4,0,0.6-0.1c0.1-0.1,0.3-0.2,0.4-0.3l0,0H24.6z M37.2,25l2.9,0.2
	c-0.2,0.4-0.4,0.8-0.8,1.1c-0.4,0.3-0.8,0.6-1.4,0.7c-0.6,0.2-1.3,0.3-2.1,0.3c-0.8,0-1.5-0.1-2.1-0.2c-0.6-0.1-1-0.3-1.4-0.5
	c-0.4-0.2-0.7-0.5-0.9-0.9c-0.2-0.3-0.3-0.8-0.3-1.3c0-0.6,0.1-1.1,0.4-1.4c0.2-0.3,0.5-0.5,0.8-0.8c0.4-0.2,0.7-0.4,1.1-0.5
	c0.6-0.2,1.3-0.3,2.3-0.3c1.3,0,2.3,0.2,2.9,0.5c0.7,0.3,1.1,0.8,1.4,1.4l-2.8,0.3c-0.1-0.2-0.3-0.4-0.5-0.5
	c-0.2-0.1-0.5-0.2-0.9-0.2c-0.5,0-0.9,0.1-1.2,0.4c-0.3,0.3-0.5,0.6-0.5,1.2c0,0.5,0.2,0.8,0.5,1.1c0.3,0.2,0.7,0.4,1.2,0.4
	c0.4,0,0.7-0.1,1-0.2C36.9,25.5,37.1,25.3,37.2,25z M41.2,19.4h3v2.9c0.4-0.3,0.8-0.5,1.2-0.6c0.4-0.1,0.9-0.2,1.4-0.2
	c0.8,0,1.5,0.2,1.9,0.5c0.5,0.4,0.7,0.9,0.7,1.6v3.6h-3v-3.1c0-0.4-0.1-0.6-0.3-0.7c-0.2-0.1-0.4-0.2-0.8-0.2
	c-0.4,0-0.7,0.1-0.9,0.3c-0.2,0.2-0.3,0.6-0.3,1.1v2.7h-3V19.4z M30.6,25.4c0-0.1-0.1-0.3-0.1-0.4v0.3H29L30.6,25.4z M40.7,24.9V19
	h4.1v2.4c0.1-0.1,0.3-0.1,0.5-0.2c0.5-0.2,1.1-0.2,1.7-0.2c0.9,0,1.7,0.2,2.3,0.7c0.7,0.5,0.9,1.2,0.9,1.9v3.9h-4.1v-3.5
	c0-0.1,0-0.4-0.1-0.5c-0.1-0.1-0.2-0.1-0.4-0.1c-0.2,0-0.3,0-0.5,0.2c-0.2,0.2-0.2,0.6-0.2,0.8v3.1h-4.1v-2.4l-0.1,0.2
	c-0.2,0.5-0.5,0.9-0.9,1.3c-0.4,0.4-1,0.6-1.6,0.8c-0.7,0.2-1.6,0.3-2.3,0.3c-0.7,0-1.5,0-2.2-0.2c-0.6-0.1-1.2-0.3-1.6-0.6
	c-0.5-0.3-0.8-0.6-1.1-1c-0.1-0.1-0.2-0.3-0.2-0.4l-0.4,0.5c-0.5,0.6-1,1.1-1.9,1.4c-0.9,0.3-2,0.4-3,0.4c-0.9,0-1.9-0.1-2.7-0.4
	c-0.7-0.3-1.3-0.7-1.7-1.1c-0.5-0.5-0.7-1.2-0.7-1.8c0-0.9,0.4-1.8,1.3-2.4c1-0.7,2.3-0.9,3.6-0.9c1,0,2,0.1,2.9,0.4
	c0.7,0.3,1.3,0.7,1.7,1.2c0.3,0.4,0.5,0.9,0.5,1.4c0-0.4,0.2-0.9,0.5-1.3c0.2-0.3,0.6-0.6,0.9-0.9c0.4-0.2,0.8-0.4,1.2-0.6
	c0.8-0.2,1.6-0.3,2.5-0.3c1.1,0,2.3,0.1,3.2,0.6c0.8,0.4,1.3,1,1.6,1.6l0.2,0.4L36.7,24l-0.1-0.3c0-0.1-0.1-0.2-0.3-0.3
	c-0.2-0.1-0.4-0.1-0.6-0.1c-0.3,0-0.6,0.1-0.8,0.2c-0.3,0.2-0.3,0.6-0.3,0.9c0,0.3,0.1,0.6,0.3,0.8c0.2,0.2,0.5,0.2,0.8,0.2
	c0.2,0,0.5,0,0.7-0.1c0.2-0.1,0.3-0.3,0.4-0.5l0.1-0.3L40.7,24.9z"/>
<path class="st1" d="M92.1,21.5H95v5.3l0,0.2c0,0.4-0.1,0.7-0.3,1c-0.2,0.3-0.5,0.6-0.8,0.8c-0.3,0.2-0.8,0.3-1.3,0.4
	c-0.5,0.1-1.1,0.1-1.8,0.1c-1.6,0-2.7-0.2-3.3-0.5c-0.6-0.3-0.9-0.8-0.9-1.4c0-0.1,0-0.2,0-0.3l2.9,0.2c0.1,0.2,0.2,0.3,0.3,0.4
	c0.2,0.1,0.5,0.2,0.8,0.2c0.4,0,0.8-0.1,1-0.2c0.2-0.2,0.3-0.5,0.3-0.9v-0.8c-0.3,0.2-0.6,0.4-0.9,0.5c-0.5,0.2-1,0.3-1.5,0.3
	c-1.1,0-1.9-0.3-2.5-1c-0.5-0.5-0.7-1.1-0.7-1.8c0-0.9,0.3-1.5,0.9-2c0.6-0.5,1.4-0.7,2.3-0.7c0.6,0,1.1,0.1,1.5,0.2
	c0.4,0.1,0.8,0.4,1.1,0.7V21.5z M89.9,27.3l0,0.1c0,0,0.1,0.2,0.1,0.2c0.2,0.1,0.3,0.1,0.5,0.1c0.2,0,0.4,0,0.6-0.1
	c0.2-0.1,0.2-0.5,0.2-0.6v0c0,0-0.1,0-0.1,0C90.9,27.2,90.4,27.3,89.9,27.3z M89.3,24.3c0,0.4,0.1,0.7,0.4,0.9
	c0.2,0.2,0.6,0.3,1,0.3c0.4,0,0.7-0.1,0.9-0.3c0.3-0.2,0.4-0.5,0.4-0.9c0-0.4-0.1-0.7-0.4-0.9c-0.3-0.2-0.6-0.3-1-0.3
	c-0.4,0-0.7,0.1-0.9,0.3C89.4,23.5,89.3,23.8,89.3,24.3z M89.9,24.3c0,0.2,0,0.5,0.2,0.6c0.1,0.1,0.3,0.2,0.6,0.2
	c0.2,0,0.4-0.1,0.5-0.2c0.2-0.2,0.2-0.5,0.2-0.7c0-0.2,0-0.5-0.3-0.7c-0.2-0.1-0.3-0.2-0.6-0.2c-0.2,0-0.4,0-0.5,0.2
	C89.9,23.7,89.9,24.1,89.9,24.3z M96.2,21.5h3.2l1.6,3.7l1.5-3.7h3l-3.1,6c-0.4,0.7-0.7,1.1-1.1,1.4c-0.5,0.3-1.3,0.5-2.4,0.5
	c-0.4,0-1.1,0-2-0.1l-0.2-1.5c0.4,0.1,0.9,0.1,1.4,0.1c0.4,0,0.6-0.1,0.9-0.2c0.2-0.1,0.4-0.3,0.6-0.6L96.2,21.5z M95.4,21.2h4.4
	l1.2,2.8l1.1-2.8h4.1l-3.4,6.5c-0.3,0.5-0.7,1.2-1.2,1.5c-0.7,0.5-1.8,0.6-2.7,0.6c-0.7,0-1.4-0.1-2.1-0.1l-0.4,0L96,27.3l0.8,0.2
	c0.4,0.1,0.9,0.1,1.3,0.1c0.2,0,0.4,0,0.5-0.1c0.1-0.1,0.2-0.2,0.3-0.3l-3.4-5.8v5.4l0,0.2c0,0.4-0.1,0.8-0.4,1.2
	c-0.2,0.4-0.6,0.7-1,0.9c-0.4,0.3-1,0.4-1.5,0.5c-0.6,0.1-1.3,0.1-2,0.1c-1.1,0-2.7-0.1-3.6-0.6c-0.7-0.4-1.1-1-1.1-1.7
	c0-0.1,0-0.2,0-0.3l0-0.4l1.8,0.1c-0.5-0.2-0.9-0.5-1.3-0.8c-0.6-0.6-0.8-1.3-0.8-2.1c0-0.8,0.2-1.6,1-2.3c0.7-0.6,1.7-0.8,2.7-0.8
	c0.6,0,1.2,0.1,1.8,0.3c0.1,0,0.2,0.1,0.3,0.1v-0.3H95.4z"/>
</svg>
