<svg width="129" height="40" viewBox="0 0 129 40" fill="none" xmlns="http://www.w3.org/2000/svg">
<path d="M15.3439 7.35447L0 22.6807V15.5732L15.3439 0.246887V7.35447Z" fill="#FF0000"/>
<path d="M30.2116 38.3068C29.9647 37.9188 29.7884 37.3016 29.6825 36.4726C29.5767 35.6084 29.5238 34.6913 29.5238 33.7566V22.6278C29.5238 21.2522 29.2063 20.1234 28.5891 19.2945C27.9718 18.4656 27.1781 17.813 26.2257 17.3368C25.291 16.8783 24.2328 16.5785 23.1041 16.4197C20.7407 16.1023 18.448 16.0846 16.1728 16.5432C14.9559 16.7901 13.8624 17.1957 12.8924 17.7601C11.9048 18.3421 11.0935 19.1181 10.4586 20.0705C9.96472 20.8113 9.68254 21.7284 9.52381 22.7513H16.2081C16.3845 22.2398 16.6138 21.7989 16.9841 21.5167C17.5838 21.0758 18.4127 20.8465 19.4885 20.8465C20 20.8465 20.4762 20.8818 20.8995 20.9347C21.3051 21.0053 21.6578 21.1287 21.9577 21.3051C22.2399 21.4815 22.4868 21.7284 22.6455 22.0458C22.8219 22.3633 22.91 22.8042 22.91 23.3862C22.9277 23.88 22.8042 24.2328 22.5044 24.4621C22.1517 24.7442 21.6755 24.9559 21.0758 25.1146C20.4409 25.2733 19.6825 25.3968 18.8536 25.485C18.0247 25.5555 17.1429 25.679 16.2257 25.8201C15.3439 25.9612 14.4444 26.1375 13.5626 26.3844C12.6631 26.6314 11.8518 27.0017 11.1287 27.4956C10.4056 28.007 9.80599 28.6772 9.36508 29.5061C8.90652 30.3351 8.67725 31.4109 8.67725 32.6807C8.67725 33.8271 8.87125 34.8501 9.27689 35.6966C9.6649 36.5432 10.2293 37.2663 10.9347 37.813C11.6226 38.3598 12.4515 38.783 13.3862 39.0299C14.3033 39.2945 15.291 39.418 16.3316 39.418C17.6896 39.418 19.03 39.224 20.3351 38.8183C21.4286 38.4832 22.3986 37.9541 23.2628 37.2134C23.2804 37.3368 23.2981 37.4603 23.3333 37.5661C23.4039 37.9188 23.4921 38.2716 23.6155 38.6243L23.7037 38.8712H30.5996L30.2116 38.3068ZM22.91 30.2292C22.91 30.5467 22.8748 30.9876 22.8042 31.4991C22.7337 32.0106 22.5573 32.5044 22.2928 32.9982C22.0282 33.4744 21.5873 33.8977 21.0053 34.2504C20.4409 34.6031 19.5944 34.7795 18.5009 34.7795C18.06 34.7795 17.619 34.7442 17.1958 34.6561C16.8078 34.5855 16.455 34.4444 16.1728 34.268C15.8906 34.0917 15.679 33.8624 15.5203 33.5626C15.3615 33.2628 15.2734 32.8747 15.2734 32.4162C15.2734 31.9224 15.3615 31.5344 15.5203 31.2345C15.679 30.9347 15.9083 30.6702 16.1728 30.4585C16.455 30.2469 16.7901 30.0882 17.1781 29.9471C17.5838 29.8236 18.0071 29.7178 18.4303 29.6296C18.8889 29.5414 19.3474 29.4885 19.806 29.418C20.2822 29.365 20.7407 29.2945 21.1817 29.2063C21.6402 29.1181 22.0459 29.0123 22.4339 28.8889C22.5926 28.8359 22.7337 28.783 22.8748 28.7125V30.2292H22.91Z" fill="#FF0000"/>
<path d="M78.6067 17.0899H71.9929V39.2239H78.6067V17.0899Z" fill="#FF0000"/>
<path d="M101.587 19.7001C100.6 18.6948 99.365 17.8835 97.9717 17.3368C96.5784 16.7901 94.9911 16.5079 93.2627 16.5079C91.552 16.5079 89.9647 16.7901 88.5714 17.3368C87.1781 17.9012 85.9612 18.6948 84.9735 19.7001C83.9858 20.7054 83.1922 21.9576 82.6631 23.3862C82.134 24.8148 81.8518 26.4197 81.8518 28.1657C81.8518 29.9118 82.1164 31.5167 82.6631 32.9276C83.2098 34.3386 83.9858 35.5731 84.9735 36.5961C85.9788 37.6013 87.1781 38.395 88.5714 38.9241C89.9647 39.4708 91.5343 39.7354 93.2627 39.7354C94.9911 39.7354 96.5608 39.4708 97.9717 38.9241C99.3827 38.3774 100.6 37.6013 101.605 36.5784C102.61 35.5555 103.386 34.3209 103.915 32.91C104.462 31.4991 104.727 29.8941 104.727 28.1481C104.727 26.4021 104.462 24.7971 103.915 23.3685C103.369 21.9576 102.593 20.723 101.587 19.7001ZM95.5732 34.1093C94.9559 34.462 94.1799 34.6384 93.2451 34.6384C92.328 34.6384 91.552 34.462 90.9523 34.1093C90.3527 33.7566 89.8589 33.2804 89.4885 32.6807C89.1181 32.0634 88.8359 31.3756 88.6948 30.5996C88.5361 29.8059 88.4479 28.9946 88.4479 28.1657C88.4479 27.3368 88.5361 26.5255 88.6948 25.7142C88.8536 24.9382 89.1181 24.2504 89.4885 23.6507C89.8589 23.0687 90.3527 22.5925 90.9523 22.2222C91.552 21.8694 92.328 21.6754 93.2451 21.6754C94.1622 21.6754 94.9382 21.8694 95.5555 22.2222C96.1728 22.5925 96.6843 23.0687 97.037 23.6507C97.4074 24.2327 97.6719 24.9382 97.8306 25.7142C97.9894 26.5255 98.0776 27.3368 98.0776 28.1657C98.0776 28.9946 97.9894 29.8059 97.8306 30.5996C97.6719 31.3756 97.4074 32.0634 97.037 32.6807C96.6843 33.2627 96.1904 33.7566 95.5732 34.1093Z" fill="#FF0000"/>
<path d="M128.219 21.9929C127.972 20.8465 127.531 19.8765 126.931 19.0828C126.314 18.2715 125.467 17.6366 124.409 17.1781C123.369 16.7372 122.011 16.5079 120.406 16.5079C119.118 16.5079 117.831 16.8077 116.596 17.3897C115.626 17.8483 114.797 18.5361 114.109 19.4179V17.0899H107.778V39.2239H114.392V27.6366C114.392 25.5555 114.727 24.0387 115.397 23.1569C116.049 22.2927 117.09 21.8694 118.571 21.8694C119.859 21.8694 120.706 22.2398 121.199 22.9982C121.711 23.8095 121.975 25.0617 121.975 26.7548V39.2063H128.571V25.6789C128.571 24.3562 128.466 23.104 128.219 21.9929Z" fill="#FF0000"/>
<path d="M62.9101 10.5996L52.8572 20.6525L52.0459 21.4109H56.314V33.6684C56.314 34.7971 56.508 35.7319 56.896 36.455C57.284 37.1781 57.8307 37.7425 58.5009 38.1305C59.1535 38.5185 59.9295 38.7654 60.7761 38.9065C61.605 39.0299 62.5045 39.1005 63.4216 39.1005C64.0036 39.1005 64.6032 39.0829 65.2205 39.0652C65.8554 39.0299 66.4198 38.977 66.9136 38.8888L67.2135 38.8359V33.492L66.7725 33.5802C66.508 33.6331 66.2258 33.6684 65.9436 33.7037C65.6438 33.7389 65.344 33.7389 65.0265 33.7389C63.9154 33.7389 63.4745 33.5273 63.2981 33.3509C63.1217 33.1746 62.9101 32.7336 62.9101 31.6225V21.3933H67.2135V16.7372H62.9101V10.5996Z" fill="#FF0000"/>
<path d="M47.1957 33.2451C46.4903 33.9506 45.5379 34.2857 44.2504 34.2857C43.4215 34.2857 42.6984 34.0917 42.134 33.7213C41.552 33.3509 41.0934 32.8395 40.7407 32.2574C40.388 31.6402 40.1234 30.9523 39.9823 30.194C39.8236 29.4179 39.7354 28.6419 39.7354 27.9012C39.7354 27.1428 39.8236 26.3492 39.9823 25.5555C40.1411 24.7971 40.4056 24.074 40.7936 23.4391C41.164 22.8042 41.6578 22.2927 42.2398 21.9047C42.8042 21.5167 43.5273 21.3227 44.3915 21.3227C45.2028 21.3227 45.8906 21.4991 46.5784 21.8694L46.8254 22.0105L50.9347 17.9012L50.5114 17.6719C49.6825 17.2134 48.9594 16.8959 48.2187 16.6843C47.0194 16.3492 45.7495 16.1728 44.462 16.1728C42.6807 16.1728 41.0758 16.4726 39.6825 17.0723C38.2892 17.6719 37.0899 18.5185 36.1199 19.5767C35.1499 20.6349 34.4091 21.9223 33.9153 23.3862C33.4215 24.85 33.1746 26.4373 33.1746 28.1128C33.1746 29.753 33.4391 31.2698 33.9858 32.6455C34.5326 34.0211 35.291 35.2204 36.261 36.2257C37.231 37.231 38.4127 38.007 39.806 38.5714C41.1816 39.1181 42.716 39.4003 44.3562 39.4003C47.0899 39.4003 49.418 38.6948 51.2522 37.3015L51.5873 37.0546L47.5132 32.9805L47.1957 33.2451Z" fill="#FF0000"/>
</svg>
