<?xml version="1.0" encoding="utf-8"?>
<!-- Generator: Adobe Illustrator 24.0.1, SVG Export Plug-In . SVG Version: 6.00 Build 0)  -->
<svg version="1.1" id="Layer_1" xmlns="http://www.w3.org/2000/svg" xmlns:xlink="http://www.w3.org/1999/xlink" x="0px" y="0px"
	 viewBox="0 0 150 67" style="enable-background:new 0 0 150 67;" xml:space="preserve">
<style type="text/css">
	.st0{fill:#1EBBBD;}
	.st1{fill:#7C2A8B;}
</style>
<title>logo white</title>
<path class="st0" d="M14.8,67l12-3.4v-15c9.3,4.1,20.3,0.7,25.6-7.9L14.8,50.9V67z M14.8,45.7l40.1-10.9c0.4-1.5,0.6-3.1,0.6-4.7
	c0-0.2,0-0.4,0-0.6l-40.6,11L14.8,45.7z M14.8,35.4l39.8-10.8c-0.5-1.6-1.1-3.2-2-4.6L14.8,30.3c0,0.3,0,0.6,0,0.9h0V35.4z M18.1,19
	c-1.2,1.8-2.1,3.8-2.7,5.9l33.9-9.2c-1.6-1.5-3.3-2.8-5.3-3.7L18.1,19z"/>
<path class="st1" d="M5.4,48.3C7.1,49.8,9,51.1,11,52l26.1-7.1c1.2-1.8,2.1-3.8,2.7-5.9L5.4,48.3z M0.4,39.4
	c0.3,1.6,0.9,3.2,1.7,4.7l38.5-10.5v0c0-1.7-0.2-3.4-0.6-5L0.4,39.4z M0,34.3l38.2-10.4c-0.9-1.6-1.9-3-3.2-4.3L0,29.2V34.3z M0,24
	l30-8.2c-5.6-3-12.2-3.3-18-0.7V0L0,3.7V24z"/>
<path class="st1" d="M66.6,28.3c2.6,0,4.7-2.1,4.7-4.7c0-2.6-2.1-4.7-4.7-4.7C64,18.9,62,21,62,23.5l0,0.1c-0.1,2.5,1.9,4.7,4.4,4.7
	C66.5,28.3,66.5,28.3,66.6,28.3 M59.6,30.3V12.6h2.5v6.3h0c1.1-1.5,2.8-2.3,4.6-2.2c3.8,0,6.9,3.2,6.9,7c0.1,3.8-3,6.9-6.7,7
	c0,0-0.1,0-0.1,0c-1.8,0-3.5-0.8-4.6-2.2h0v1.9L59.6,30.3z"/>
<path class="st1" d="M85.9,22.8c-0.2-2.4-2.4-4.1-4.8-3.9c-2,0.2-3.6,1.8-3.9,3.9H85.9z M77.3,24.7c0.4,2.1,2.3,3.6,4.4,3.6
	c1.6,0,3-0.8,3.8-2.2H88c-1,2.7-3.5,4.5-6.4,4.5c-3.8-0.1-6.8-3.2-6.8-7c0-3.8,3-6.8,6.7-6.9c3.8,0,6.8,3,6.9,6.7
	c0,0.4,0,0.8-0.1,1.3L77.3,24.7z"/>
<path class="st1" d="M95.7,20.5c0-0.9-0.8-1.6-1.7-1.6l0,0c-0.8-0.1-1.5,0.5-1.6,1.3c0,0.1,0,0.1,0,0.2c0,1.1,1,1.4,2.1,1.7
	c1,0.3,4,1.2,4,4.3c0,2.3-1.8,4.2-4.1,4.2c-0.1,0-0.3,0-0.4,0c-2.5,0.1-4.6-1.9-4.7-4.4c0,0,0,0,0,0c0-0.1,0-0.2,0-0.3h2.5
	c0.1,1.5,0.8,2.4,2.3,2.4c1,0.1,1.8-0.6,1.9-1.6c0-0.1,0-0.1,0-0.2c0-1.1-1-1.6-2.3-2c-1.4-0.5-3.8-1.2-3.8-4
	c0.1-2.2,1.9-3.9,4.1-3.8c0,0,0,0,0,0l0.1,0c2.2-0.1,4,1.6,4.1,3.8c0,0,0,0,0,0c0,0,0,0.1,0,0.1L95.7,20.5z"/>
<polygon class="st1" points="103.6,30.3 101.1,30.3 101.1,19.3 99.3,19.3 99.3,17 101.1,17 101.1,12.6 103.6,12.6 103.6,17 
	105.8,17 105.8,19.3 103.6,19.3 "/>
<path class="st1" d="M66.5,38.3c-2.6,0.2-4.6,2.4-4.4,5c0.2,2.4,2.1,4.3,4.5,4.4c2.5,0,4.5-2,4.5-4.5c0,0,0,0,0,0c0,0,0-0.1,0-0.1
	C71.1,40.5,69,38.4,66.5,38.3 M59.6,36.4h2.3v2h0c1.1-1.5,2.9-2.4,4.7-2.4c4.5,0,6.9,3.6,6.9,7.2c0.1,3.7-2.9,6.7-6.6,6.8
	c0,0,0,0,0,0c-0.1,0-0.1,0-0.2,0c-1.9,0.1-3.6-0.7-4.7-2.3h0v6.3h-2.5L59.6,36.4z"/>
<path class="st1" d="M75.2,49.6V36.4h2.3v1.2h0c0.8-1,2.1-1.6,3.4-1.6v2.6c-0.6,0-1.2,0.2-1.8,0.5c-0.8,0.5-1.5,1.4-1.5,3.3v7.3
	L75.2,49.6z"/>
<path class="st1" d="M87.9,38.3c-2.6,0-4.7,2-4.8,4.6c0,2.6,2,4.7,4.6,4.8c2.6,0,4.7-2,4.8-4.6l0,0c0.1-2.5-1.8-4.6-4.4-4.7
	C88,38.3,87.9,38.3,87.9,38.3 M92.4,49.6v-2.1h0c-1,1.6-2.7,2.5-4.5,2.4c-3.8,0.1-6.9-2.8-7.1-6.5c0,0,0,0,0,0c0-0.1,0-0.3,0-0.4
	c-0.1-3.8,2.9-7,6.7-7c0,0,0,0,0,0c0.1,0,0.2,0,0.3,0c1.8-0.1,3.5,0.8,4.5,2.2h0v-1.9h2.5v13.3L92.4,49.6z"/>
<path class="st1" d="M107.2,40.8c-0.6-1.5-2.1-2.5-3.8-2.5c-3.2,0-4.4,2.7-4.4,4.7c0,2.3,1.5,4.7,4.3,4.7c1.6,0,3.1-0.9,3.8-2.4h2.8
	c-0.9,2.8-3.6,4.7-6.6,4.7c-3.9,0-7-3.1-7-6.9s3.1-7,6.9-7c3,0,5.7,1.9,6.7,4.8L107.2,40.8z"/>
<polygon class="st1" points="114.5,49.6 112,49.6 112,38.7 110.2,38.7 110.2,36.4 112,36.4 112,31.9 114.5,31.9 114.5,36.4 
	116.7,36.4 116.7,38.7 114.5,38.7 "/>
<path class="st1" d="M120.7,49.6h-2.5V36.4h2.5V49.6z M120.7,34.9h-2.5v-2.9h2.5V34.9z"/>
<path class="st1" d="M133,40.8c-0.6-1.5-2.1-2.5-3.8-2.5c-3.2,0-4.4,2.7-4.4,4.7c0,2.3,1.5,4.7,4.3,4.7c1.6,0,3.1-0.9,3.8-2.4h2.8
	c-0.9,2.8-3.6,4.7-6.6,4.7c-3.9,0-7-3.1-7-6.9c0-3.9,3.1-7,6.9-7c3,0,5.7,1.9,6.7,4.8L133,40.8z"/>
<path class="st1" d="M147.5,42.2c-0.2-2.4-2.4-4.1-4.8-3.9c-2,0.2-3.6,1.8-3.9,3.9H147.5z M138.9,44.1c0.4,2.1,2.3,3.6,4.4,3.6
	c1.6,0,3-0.8,3.8-2.2h2.5c-1,2.7-3.5,4.5-6.4,4.5c-3.8-0.1-6.8-3.2-6.8-7c0-3.8,3-6.8,6.7-6.9c3.8,0,6.8,3,6.9,6.7l0,0
	c0,0.5,0,1.1-0.1,1.3H138.9z"/>
</svg>
