<?xml version="1.0" encoding="utf-8"?>
<!-- Generator: Adobe Illustrator 24.0.1, SVG Export Plug-In . SVG Version: 6.00 Build 0)  -->
<svg version="1.1" id="Layer_1" xmlns="http://www.w3.org/2000/svg" xmlns:xlink="http://www.w3.org/1999/xlink" x="0px" y="0px"
	 viewBox="0 0 451.1 36.3" style="enable-background:new 0 0 451.1 36.3;" xml:space="preserve">
<path d="M89.1,0v36.3h-4.2v-32H68.5v32h-4.2V0H65l0,0h21.1l0,0H89.1z M116.4,20.2h-13.1V32h16.5v4.2h-16.5l0,0h-4.2V0h0.7l0,0h20.1
	v4.2h-16.5V16h13.1L116.4,20.2z M34.4,15.4c-5.3,3.3-6.9,10.3-3.6,15.5c3.3,5.3,10.3,6.9,15.5,3.6c5-3.2,6.8-9.7,3.9-14.9l0,0
	l-1.1-2.1L58.6,0h-4.8l-7,13.1L39.8,0h-4.8l11.5,21.5l0,0c1.9,3.4,0.7,7.6-2.6,9.5c-3.4,1.9-7.6,0.7-9.5-2.6
	c-1.8-3.1-0.9-7.1,2.1-9.2L34.4,15.4z M179.2,22.5h-16.6v-4.2h33.2v4.2H179.2z M25.3,36.3L10.9,18.2L25.3,0h-5.4L7.2,16h-3V0H0v36.3
	h4.2v-16h3l12.7,16H25.3z M289.2,18.1c0-7.7-6.2-13.9-13.9-13.9s-13.9,6.2-13.9,13.9S267.7,32,275.4,32c3.7,0,7.2-1.5,9.8-4.1
	C287.8,25.4,289.2,21.8,289.2,18.1L289.2,18.1z M275.4,0.1c10,0,18.1,8.1,18.1,18.1c0,10-8.1,18.1-18.1,18.1
	c-10,0-18.1-8.1-18.1-18.1c0-4.8,1.9-9.4,5.3-12.8C266,2,270.6,0.1,275.4,0.1z M361.2,20.3h-13V32h16.5v4.2h-16.5l0,0h-4.2V0h0.7
	l0,0h20.1v4.2h-16.5V16h13V20.3z M394.3,4.3h-10v32h-4.2v-32h-10V0h24.2L394.3,4.3z M131.5,0L131.5,0h8.5
	c6.2,0.2,11.1,5.4,10.9,11.6c-0.2,6-5,10.8-10.9,10.9h-7.1v13.8h-4.2V0H131.5z M139.9,4.2h-7v14.1h7.1c3.9,0,7-3.1,7-7
	S143.9,4.2,139.9,4.2L139.9,4.2z M426.5,9.2v17h3.5v-4.5h2.8v0.1c1,2.9,3.8,4.9,6.9,5v-3.5c-1,0-1.9-0.4-2.6-1.1
	c-0.2-0.2-0.5-0.5-0.6-0.8l-0.1-0.2l0.2-0.1c3.1-1.5,4.5-5.2,3-8.4c-0.3-0.6-0.7-1.2-1.2-1.7c-1.2-1.2-2.8-1.8-4.4-1.8L426.5,9.2z
	 M430,18.2v-5.4h3.8c1.5,0,2.7,1.2,2.7,2.7s-1.2,2.7-2.7,2.7l0,0L430,18.2z M418.6,18.2c0-7.9,6.4-14.3,14.3-14.3
	c7.9,0,14.3,6.4,14.3,14.3s-6.4,14.3-14.3,14.3c-3.8,0-7.5-1.5-10.1-4.2C420.1,25.6,418.6,22,418.6,18.2L418.6,18.2z M433,36.3
	c10,0,18.1-8.1,18.1-18.2C451.1,8.1,443,0,433,0s-18.1,8.1-18.1,18.2c0,4.8,1.9,9.4,5.3,12.8C423.6,34.4,428.2,36.3,433,36.3z
	 M314.4,15.2c-3.3-0.5-6.3-2-8.7-4.3c-2.9-2.9-4.5-6.8-4.5-10.9h4.2c0,2.9,1.2,5.7,3.2,7.8c1.6,1.5,3.5,2.6,5.7,3V0h4.2v10.9
	c2.2-0.4,4.1-1.5,5.7-3c2.1-2.1,3.3-4.9,3.2-7.9h4.2c0,4.1-1.6,7.9-4.5,10.8c-2.4,2.4-5.4,3.9-8.7,4.3v21.1h-4.2L314.4,15.2z
	 M338.1,36.3c-8.8,0-16-7.2-16-16h4.2c0,6.5,5.3,11.8,11.8,11.8V36.3z M293.6,36.3l12.7-16h5.4l-12.7,16H293.6z M215,4.3h-1.2v32
	h-4.2V0h10.1v0.1l0,0l8.6,32h2.4l8.6-32l0,0V0h10.1v36.3h-4.2v-32h-2.6l-8.6,32H225l-8.6-32L215,4.3z"/>
</svg>
