<?xml version="1.0" encoding="utf-8"?>
<!-- Generator: Adobe Illustrator 24.0.1, SVG Export Plug-In . SVG Version: 6.00 Build 0)  -->
<svg version="1.1" id="Layer_1" xmlns="http://www.w3.org/2000/svg" xmlns:xlink="http://www.w3.org/1999/xlink" x="0px" y="0px"
	 viewBox="0 0 145 56.6" style="enable-background:new 0 0 145 56.6;" xml:space="preserve">
<path d="M94.6,9.8h-4.9v6c0,0.5,0,0.9,0.1,1.4c0,0.4,0.2,0.7,0.3,1.1c0.2,0.3,0.5,0.5,0.8,0.7c0.5,0.2,0.9,0.3,1.4,0.2
	c0.4,0,0.8,0,1.2-0.1c0.4,0,0.8-0.2,1.1-0.4v4.7c-0.6,0.2-1.3,0.4-1.9,0.4c-0.7,0.1-1.3,0.1-2,0.1c-0.9,0-1.8-0.1-2.6-0.3
	c-0.8-0.2-1.5-0.5-2.1-1c-0.6-0.4-1.1-1-1.4-1.7c-0.4-0.8-0.5-1.7-0.5-2.5V9.8h-3.6V5.4h3.6V0h5.6v5.4h4.9L94.6,9.8z M66.5,5.4h-5.4
	v18.1h5.6v-9c0-0.6,0-1.1,0.1-1.7c0.1-0.5,0.2-1,0.5-1.5c0.2-0.4,0.6-0.8,1-1c0.5-0.3,1.1-0.4,1.8-0.4c0.6,0,1.2,0.1,1.7,0.4
	c0.4,0.3,0.7,0.7,0.9,1.2c0.2,0.5,0.3,1,0.3,1.5c0,0.6,0.1,1.1,0.1,1.6v8.9h5.6v-10c0-1.1-0.1-2.3-0.3-3.4c-0.1-1-0.5-1.9-1-2.7
	c-0.5-0.8-1.2-1.4-2-1.8c-1.1-0.5-2.3-0.7-3.4-0.7c-0.6,0-1.3,0.1-1.9,0.3c-0.5,0.2-1.1,0.4-1.5,0.7c-0.4,0.3-0.8,0.6-1.2,0.9
	c-0.3,0.3-0.5,0.7-0.7,1h-0.1V5.4z M14.4,23c1.3-0.6,2.5-1.5,3.4-2.6l-3.9-2.9c-0.5,0.6-1,1.2-1.7,1.6c-0.7,0.4-1.5,0.6-2.3,0.6
	c-1,0-2-0.3-2.8-1c-0.8-0.7-1.3-1.6-1.5-2.5h13v-1.8c0-1.3-0.2-2.6-0.6-3.9c-0.4-1.1-0.9-2.1-1.7-3c-0.7-0.8-1.7-1.5-2.7-1.9
	c-1.1-0.5-2.3-0.7-3.5-0.7c-1.4,0-2.7,0.2-4,0.7C5,6,3.9,6.7,2.9,7.5c-0.9,0.8-1.6,1.9-2.1,3C0.3,11.7,0,13.1,0,14.4
	c0,1.3,0.2,2.7,0.8,3.9c0.5,1.1,1.2,2.2,2.1,3c0.9,0.8,2,1.5,3.2,1.9c1.3,0.5,2.6,0.7,4,0.7C11.6,23.9,13,23.6,14.4,23z M12.8,11.1
	c0.2,0.4,0.2,0.9,0.2,1.3H5.6c0-0.4,0.1-0.9,0.3-1.3c0.2-0.4,0.4-0.8,0.8-1.1c0.4-0.3,0.8-0.6,1.2-0.8C8.5,9,9,8.9,9.6,8.9
	c0.5,0,0.9,0.1,1.4,0.2c0.4,0.2,0.8,0.4,1.1,0.8C12.4,10.3,12.6,10.6,12.8,11.1z M25.2,5.4h-6l7.5,18.1h6l7.2-18.1h-5.6l-4.3,12.3
	h-0.1L25.2,5.4z M58.1,20.3c-0.9,1.1-2.1,2.1-3.4,2.6c-1.3,0.6-2.8,0.9-4.3,0.9c-1.4,0-2.7-0.2-4-0.7c-1.2-0.4-2.3-1.1-3.2-1.9
	c-0.9-0.8-1.6-1.9-2.1-3c-0.5-1.2-0.8-2.6-0.7-3.9c0-1.3,0.3-2.7,0.8-3.9c0.5-1.1,1.2-2.2,2.1-3c0.9-0.8,2-1.5,3.2-1.9
	c1.3-0.5,2.6-0.7,4-0.7c1.2,0,2.4,0.2,3.5,0.7c1,0.4,2,1.1,2.7,1.9c0.8,0.9,1.3,1.9,1.7,3c0.4,1.3,0.6,2.6,0.6,3.9v1.8H46
	c0.2,1,0.7,1.9,1.5,2.5c0.8,0.6,1.8,1,2.8,1c0.8,0,1.6-0.2,2.3-0.6c0.6-0.4,1.2-1,1.7-1.6L58.1,20.3z M53.4,12.4
	c0-0.4-0.1-0.9-0.2-1.3c-0.2-0.4-0.4-0.8-0.7-1.1c-0.3-0.3-0.7-0.6-1.1-0.8c-0.4-0.2-0.9-0.3-1.4-0.2c-0.6,0-1.1,0.1-1.6,0.3
	c-0.4,0.2-0.9,0.4-1.2,0.8c-0.3,0.3-0.6,0.7-0.8,1.1c-0.2,0.4-0.3,0.8-0.3,1.3H53.4z M108.9,23.5h5.4V5.4h-5.6v9
	c0,0.6,0,1.1-0.1,1.7c-0.1,0.5-0.2,1-0.5,1.5c-0.2,0.4-0.6,0.8-1,1c-0.5,0.3-1.1,0.4-1.8,0.4c-0.6,0-1.2-0.1-1.7-0.4
	c-0.4-0.3-0.7-0.7-0.9-1.2c-0.2-0.5-0.3-1-0.3-1.5c0-0.6-0.1-1.1-0.1-1.6V5.4h-5.6v10c0,1.1,0.1,2.3,0.2,3.4c0.1,1,0.5,1.9,1,2.7
	c0.5,0.8,1.2,1.4,2.1,1.8c1.1,0.5,2.3,0.7,3.5,0.7c0.6,0,1.3-0.1,1.9-0.3c0.5-0.2,1-0.4,1.5-0.7c0.4-0.3,0.8-0.6,1.1-0.9
	c0.3-0.3,0.5-0.7,0.8-1h0.1V23.5z M116.4,5.4h5.4v2.5h0.1c0.2-0.4,0.5-0.7,0.7-1c0.3-0.4,0.7-0.7,1.2-0.9c0.5-0.3,1-0.5,1.5-0.7
	c0.6-0.2,1.2-0.3,1.9-0.3c1.2,0,2.3,0.2,3.4,0.8c1,0.5,1.8,1.4,2.2,2.5c0.5-1,1.3-1.9,2.4-2.5c1.1-0.5,2.2-0.8,3.4-0.7
	c1.1,0,2.1,0.2,3.1,0.6c0.8,0.4,1.5,1,2,1.7c0.5,0.8,0.9,1.6,1,2.5c0.2,1,0.3,2,0.3,3.1v10.7h-5.6V12.9c0-0.8-0.2-1.5-0.5-2.2
	c-0.2-0.3-0.5-0.6-0.8-0.7c-0.3-0.2-0.7-0.2-1.1-0.2c-0.6,0-1.1,0.1-1.6,0.3c-0.4,0.2-0.8,0.5-1,0.9c-0.3,0.4-0.5,0.8-0.6,1.3
	c-0.1,0.5-0.2,1-0.2,1.6v9.6h-5.6v-9.6v-1.2c0-0.5-0.1-0.9-0.3-1.3c-0.1-0.4-0.4-0.8-0.7-1.1c-0.4-0.3-0.9-0.5-1.5-0.4
	c-0.6,0-1.2,0.1-1.8,0.4c-0.4,0.2-0.8,0.6-1,1c-0.2,0.5-0.4,1-0.5,1.5c-0.1,0.6-0.1,1.1-0.1,1.7v9h-5.6L116.4,5.4z M6.2,30H1.1v26.6
	h5.6V46.1h0.1C7.4,47,8.3,47.6,9.3,48c1,0.4,2.1,0.5,3.3,0.5c1.2,0,2.4-0.3,3.5-0.8c1-0.5,1.9-1.3,2.6-2.1c0.7-0.9,1.3-2,1.7-3.1
	c0.4-1.2,0.6-2.4,0.6-3.6c0-1.3-0.2-2.6-0.7-3.8c-0.4-1.1-1-2.1-1.8-3c-0.8-0.8-1.8-1.5-2.8-1.9c-1.2-0.5-2.4-0.7-3.7-0.7
	c-0.6,0-1.3,0.1-1.9,0.3C9.5,30,9,30.2,8.5,30.4C8,30.7,7.6,31,7.2,31.4c-0.3,0.3-0.6,0.6-0.9,1H6.2V30z M7.4,42.3
	c-0.8-0.9-1.2-2.1-1.2-3.3c0-1.2,0.4-2.4,1.2-3.3c0.4-0.4,0.9-0.8,1.5-1c0.6-0.2,1.2-0.3,1.8-0.3c0.6,0,1.2,0.1,1.8,0.3
	c0.6,0.2,1.1,0.6,1.5,1c0.8,0.9,1.2,2.1,1.2,3.3c0.1,1.2-0.4,2.4-1.2,3.3c-0.4,0.4-0.9,0.8-1.5,1c-0.6,0.2-1.2,0.3-1.8,0.3
	c-0.6,0-1.2-0.1-1.8-0.3C8.4,43.1,7.8,42.8,7.4,42.3z M23.2,30h5.6v2.9h0.1c0.5-1,1.2-1.8,2.1-2.5c0.9-0.6,2-0.9,3.1-0.8
	c0.3,0,0.7,0,1,0c0.3,0,0.6,0.1,0.9,0.1v5.1c-0.4-0.1-0.8-0.2-1.2-0.3c-0.4-0.1-0.8-0.1-1.2-0.1c-0.9,0-1.7,0.1-2.5,0.4
	c-0.6,0.3-1.1,0.7-1.4,1.2c-0.4,0.6-0.6,1.2-0.7,1.9c-0.1,0.8-0.2,1.6-0.2,2.5v7.6h-5.6V30z M50.6,47.6c1.3-0.6,2.5-1.5,3.4-2.6
	L50,42.1c-0.4,0.6-1,1.2-1.7,1.6c-0.7,0.4-1.5,0.6-2.3,0.6c-1,0-2-0.3-2.8-1c-0.8-0.7-1.3-1.6-1.5-2.5h13V39c0-1.3-0.2-2.7-0.6-3.9
	c-0.4-1.1-0.9-2.1-1.7-3c-0.7-0.8-1.7-1.5-2.7-1.9c-1.1-0.5-2.3-0.7-3.5-0.7c-1.4,0-2.7,0.2-4,0.7c-1.2,0.4-2.3,1.1-3.2,1.9
	c-0.9,0.8-1.6,1.9-2.2,3c-0.5,1.2-0.8,2.6-0.8,3.9s0.3,2.7,0.8,3.9c0.5,1.1,1.2,2.2,2.1,3c0.9,0.8,2,1.5,3.2,1.9
	c1.3,0.5,2.6,0.7,4,0.7C47.8,48.5,49.2,48.2,50.6,47.6z M49,35.7c0.2,0.4,0.2,0.9,0.2,1.3h-7.4c0-0.5,0.1-0.9,0.3-1.3
	c0.2-0.4,0.5-0.7,0.8-1c0.4-0.3,0.8-0.6,1.2-0.8c0.5-0.2,1.1-0.3,1.6-0.3c0.5,0,0.9,0.1,1.4,0.2c0.4,0.2,0.8,0.4,1.1,0.8
	C48.6,34.9,48.8,35.2,49,35.7z M57.2,30h5.4v2.5h0.1c0.2-0.4,0.5-0.7,0.7-1c0.3-0.4,0.7-0.7,1.2-0.9c0.5-0.3,1-0.5,1.5-0.7
	c0.6-0.2,1.2-0.3,1.9-0.3c1.2,0,2.3,0.2,3.4,0.8c1,0.5,1.8,1.4,2.2,2.5c0.5-1,1.3-1.9,2.4-2.5c1.1-0.5,2.2-0.8,3.4-0.7
	c1.1,0,2.1,0.2,3.1,0.6c0.8,0.4,1.5,1,2,1.7c0.5,0.8,0.9,1.6,1,2.5c0.2,1,0.3,2,0.3,3.1v10.7h-5.6V37.5c0-0.8-0.2-1.5-0.5-2.2
	c-0.2-0.3-0.5-0.6-0.8-0.7c-0.3-0.2-0.7-0.2-1.1-0.2c-0.6,0-1.1,0.1-1.6,0.3c-0.4,0.2-0.8,0.5-1,0.9c-0.3,0.4-0.5,0.8-0.6,1.3
	c-0.1,0.5-0.2,1-0.2,1.6v9.6h-5.6v-9.6c0-0.3,0-0.7,0-1.2c0-0.4-0.1-0.9-0.3-1.3c-0.1-0.4-0.4-0.8-0.7-1.1c-0.4-0.3-0.9-0.5-1.5-0.4
	c-0.6,0-1.2,0.1-1.8,0.4c-0.4,0.2-0.8,0.6-1,1c-0.2,0.5-0.4,1-0.5,1.5c-0.1,0.6-0.1,1.1-0.1,1.7v9h-5.6V30z M89,35.1
	c-0.5,1.2-0.8,2.6-0.8,3.9c0,1.3,0.3,2.7,0.8,3.9c0.5,1.1,1.2,2.2,2.1,3c0.9,0.8,2,1.5,3.2,1.9c2.6,0.9,5.3,0.9,7.9,0
	c1.2-0.4,2.3-1.1,3.2-1.9c0.9-0.8,1.7-1.9,2.2-3c0.5-1.2,0.8-2.6,0.8-3.9s-0.3-2.7-0.8-3.9c-0.5-1.1-1.2-2.2-2.2-3
	c-0.9-0.8-2-1.5-3.2-1.9c-2.6-0.9-5.3-0.9-7.9,0c-1.2,0.4-2.3,1.1-3.2,1.9C90.2,32.9,89.5,34,89,35.1z M95,42.3
	c-0.8-0.9-1.2-2.1-1.2-3.3c-0.1-1.2,0.4-2.4,1.2-3.3c0.9-0.8,2.1-1.3,3.3-1.3c1.2,0,2.4,0.5,3.3,1.3c0.8,0.9,1.2,2.1,1.2,3.3
	c0.1,1.2-0.4,2.4-1.2,3.3c-0.9,0.8-2.1,1.3-3.3,1.3C97.1,43.6,95.9,43.1,95,42.3z"/>
</svg>
