<?xml version="1.0" encoding="utf-8"?>
<!-- Generator: Adobe Illustrator 24.0.1, SVG Export Plug-In . SVG Version: 6.00 Build 0)  -->
<svg version="1.1" id="Layer_1" xmlns="http://www.w3.org/2000/svg" xmlns:xlink="http://www.w3.org/1999/xlink" x="0px" y="0px"
	 viewBox="0 0 88.2 12.1" style="enable-background:new 0 0 88.2 12.1;" xml:space="preserve">
<g>
	<path d="M6.2,7.8c1,1.4,2,2.7,3,4.1c0-0.1,0.1-0.2,0.1-0.2c1-2.1,2.1-4.2,3.1-6.3c0.1-0.2,0.2-0.2,0.3-0.2c1,0,2,0,3.1,0
		c0.1,0,0.2,0,0.3,0.1c1,2.2,2.1,4.3,3.1,6.5c0,0,0,0.1,0,0.1c-1,0-2.1,0-3.1,0c-0.1-0.3-0.2-0.6-0.3-0.9c0-0.1-0.1-0.1-0.2-0.1
		c-0.9,0-1.8,0-2.7,0c-0.1,0-0.2,0-0.2,0.1c-0.1,0.2-0.2,0.5-0.3,0.7c0,0.1-0.1,0.2-0.3,0.2c-1.7,0-3.4,0-5.2,0c-0.4,0-0.8,0-1.1,0
		c-0.1,0-0.2,0-0.3-0.1c-0.4-0.7-0.9-1.3-1.3-2c0-0.1-0.1-0.1-0.1-0.2c-0.3,0.3-0.6,0.5-0.9,0.8c0,0,0,0.1,0,0.2c0,0.4,0,0.9,0,1.3
		c-1,0-2,0-3,0c0-2.2,0-4.5,0-6.7c1,0,2,0,3,0c0,0.7,0,1.4,0,2.1c0.1-0.1,0.1-0.1,0.2-0.2c0.7-0.6,1.4-1.2,2-1.9
		c0.1-0.1,0.2-0.1,0.3-0.1c1.1,0,2.2,0,3.4,0c0,0,0.1,0,0.2,0C8.2,6,7.2,6.9,6.2,7.8z M14.2,6.8c-0.3,0.8-0.7,1.6-1,2.4
		c0.7,0,1.3,0,1.9,0C14.8,8.4,14.5,7.7,14.2,6.8z"/>
	<path d="M49.1,11.9c-1.1,0-2.1,0-3.2,0c-0.3,0-0.5-0.1-0.7-0.3c-0.9-1.2-1.8-2.3-2.7-3.5c0-0.1-0.1-0.1-0.2-0.2c0,1.3,0,2.6,0,4
		c-1,0-1.9,0-2.8,0c0-2.2,0-4.5,0-6.8c0.1,0,0.2,0,0.2,0c1,0,2.1,0,3.1,0c0.1,0,0.2,0,0.3,0.2c0.9,1.2,1.9,2.4,2.8,3.6
		c0,0,0.1,0.1,0.1,0.2c0-1.3,0-2.6,0-3.9c0.9,0,1.9,0,2.8,0C49.1,7.4,49.1,9.6,49.1,11.9z"/>
	<path d="M19.7,5.1c0.1,0,0.1,0,0.2,0c1.9,0,3.8,0,5.8,0c0.5,0,1.1,0.1,1.6,0.3c1.2,0.5,1.5,1.5,1.3,2.4c-0.1,0.6-0.5,0.9-1,1.2
		c-0.3,0.1-0.5,0.2-0.8,0.3c0.4,0.2,0.6,0.5,0.8,0.8c0.4,0.4,0.6,0.5,1.2,0.3c0.1,0.4,0.3,0.7,0.4,1.1c-0.1,0.1-0.2,0.1-0.3,0.2
		c-0.7,0.3-1.4,0.4-2.1,0.3c-0.5-0.1-0.9-0.3-1.3-0.7c-0.3-0.3-0.5-0.6-0.8-0.9c-0.3-0.4-0.6-0.6-1.1-0.6c-0.3,0-0.6,0-1,0
		c0,0.7,0,1.4,0,2c-1,0-2,0-3,0C19.7,9.6,19.7,7.4,19.7,5.1z M22.7,8.2C22.7,8.2,22.8,8.2,22.7,8.2c0.8,0,1.4,0,2.1,0
		c0.1,0,0.3,0,0.4-0.1c0.3-0.1,0.4-0.3,0.4-0.6c0-0.3-0.1-0.5-0.4-0.6c-0.1-0.1-0.3-0.1-0.5-0.1c-0.6,0-1.2,0-1.9,0c0,0-0.1,0-0.1,0
		C22.7,7.3,22.7,7.7,22.7,8.2z"/>
	<path d="M50,11.9c0-2.3,0-4.5,0-6.8c0.1,0,0.2,0,0.2,0c1.6,0,3.2,0,4.9,0c0.6,0,1.2,0.1,1.8,0.3c1.6,0.5,2.4,1.7,2.3,3.4
		c-0.1,1.9-1.4,2.8-2.8,3c-0.4,0.1-0.8,0.1-1.2,0.1c-1.7,0-3.4,0-5,0C50.2,11.9,50.1,11.9,50,11.9z M53,9.9c0.7,0,1.3,0,2,0
		c0.1,0,0.3,0,0.4-0.1c0.7-0.2,1-0.6,1-1.3c0-0.7-0.4-1.2-1-1.3C54.5,7.1,53.7,7.1,53,7C53,8,53,8.9,53,9.9z"/>
	<path d="M82.1,5.1c0,0.7,0,1.5,0,2.2c1,0,2.1,0,3.1,0c0-0.7,0-1.5,0-2.2c1,0,2,0,3,0c0,2.2,0,4.5,0,6.7c-1,0-2,0-3,0
		c0-0.8,0-1.7,0-2.5c-1,0-2.1,0-3.1,0c0,0.8,0,1.7,0,2.5c-1,0-2,0-3,0c0-2.2,0-4.5,0-6.7C80.1,5.1,81,5.1,82.1,5.1z"/>
	<path d="M77.9,5.5c-0.2,0.6-0.5,1.1-0.7,1.7c0,0-0.1,0-0.1,0c-1.2-0.5-2.4-0.7-3.7-0.5c-0.2,0-0.3,0.1-0.5,0.2
		c-0.1,0-0.1,0.1-0.1,0.2c0,0.1,0.1,0.1,0.1,0.2c0.3,0.1,0.5,0.1,0.8,0.2c0.8,0.1,1.7,0.2,2.5,0.3c0.4,0.1,0.9,0.2,1.3,0.4
		c1.1,0.5,1.3,1.9,0.4,2.8c-0.5,0.6-1.3,0.8-2,1c-1.2,0.3-2.4,0.2-3.5,0.1c-0.8-0.1-1.6-0.3-2.4-0.6c-0.1,0-0.2-0.1-0.3-0.1
		c0.3-0.6,0.6-1.2,0.9-1.8c0.6,0.2,1.1,0.4,1.7,0.5c0.9,0.2,1.9,0.3,2.8,0.2c0.1,0,0.2,0,0.3-0.1c0.1,0,0.1-0.1,0.1-0.2
		c0-0.1-0.1-0.2-0.1-0.2c-0.2-0.1-0.5-0.1-0.8-0.2c-0.7-0.1-1.5-0.1-2.2-0.3c-0.5-0.1-1-0.2-1.5-0.4c-1.3-0.6-1.3-2.2-0.4-2.9
		c0.5-0.4,1.1-0.7,1.7-0.8c1.8-0.4,3.7-0.3,5.4,0.3C77.7,5.5,77.8,5.5,77.9,5.5z"/>
	<path d="M39.1,11.9c-1,0-2,0-3,0c0,0-0.1-0.1-0.1-0.1c-0.1-0.3-0.2-0.5-0.3-0.8c0-0.1-0.1-0.1-0.2-0.1c-0.9,0-1.8,0-2.7,0
		c-0.1,0-0.2,0.1-0.2,0.1c-0.1,0.3-0.2,0.5-0.3,0.8c0,0.1-0.1,0.1-0.2,0.1c-1,0-2,0-3,0c0-0.1,0.1-0.1,0.1-0.2
		c1-2.1,2.1-4.3,3.1-6.4c0.1-0.1,0.1-0.2,0.3-0.2c1,0,2.1,0,3.1,0c0.1,0,0.2,0,0.2,0.1c1,2.2,2.1,4.3,3.1,6.5
		C39.1,11.8,39.1,11.8,39.1,11.9z M34.2,6.8c-0.3,0.8-0.7,1.6-1,2.4c0.7,0,1.3,0,1.9,0C34.8,8.4,34.5,7.7,34.2,6.8z"/>
	<path d="M69.5,11.9c-1,0-2,0-3,0c0,0-0.1-0.1-0.1-0.1c-0.1-0.3-0.2-0.5-0.3-0.8c0-0.1-0.1-0.1-0.2-0.1c-0.9,0-1.8,0-2.7,0
		c-0.1,0-0.2,0.1-0.2,0.1c-0.1,0.3-0.2,0.5-0.3,0.8c0,0.1-0.1,0.1-0.2,0.1c-1,0-2,0-3,0c0-0.1,0.1-0.1,0.1-0.2
		c1-2.1,2.1-4.3,3.1-6.4c0.1-0.1,0.1-0.2,0.3-0.2c1,0,2.1,0,3.1,0c0.1,0,0.2,0,0.2,0.1C67.4,7.4,68.5,9.6,69.5,11.9
		C69.5,11.8,69.5,11.8,69.5,11.9z M64.5,6.8c-0.3,0.8-0.7,1.6-1,2.4c0.7,0,1.3,0,1.9,0c0,0,0-0.1,0-0.1C65.2,8.4,64.9,7.6,64.5,6.8z
		"/>
	<path d="M4.4,0.1c0.2-0.1,0.3,0,0.4,0.2C5,0.7,5.2,1.1,5.5,1.5C5.7,1.1,6,0.7,6.2,0.2C6.3,0,6.3,0,6.6,0.1c0,0.7,0,1.4,0,2.1
		c-0.1,0-0.2,0-0.2,0c0-0.5,0-1.1,0-1.6c0,0,0,0,0,0c0,0-0.1,0.1-0.1,0.1C6,1,5.9,1.4,5.7,1.7c0,0.1-0.1,0.2-0.2,0.2
		c-0.1,0-0.2-0.1-0.2-0.2C5.1,1.3,4.9,0.9,4.6,0.6c0,0.5,0,1.1,0,1.6c-0.1,0-0.2,0-0.2,0C4.4,1.5,4.4,0.8,4.4,0.1z"/>
	<path d="M7.4,0.6c0,0.5,0,1.1,0,1.6c-0.1,0-0.1,0-0.2,0c0-0.7,0-1.4,0-2.1c0.2,0,0.3,0,0.4,0.2C7.8,0.7,8,1.1,8.3,1.5
		C8.4,1.3,8.6,1,8.7,0.8C8.8,0.6,8.9,0.4,9,0.2C9.1,0.1,9.2,0,9.4,0.1c0,0.7,0,1.4,0,2.1c-0.1,0-0.1,0-0.2,0c0-0.5,0-1.1,0-1.6
		c0,0,0,0,0,0C9.1,0.6,9,0.7,9,0.7c-0.2,0.3-0.4,0.7-0.6,1c-0.1,0.2-0.2,0.2-0.3,0C7.9,1.4,7.7,1,7.4,0.6C7.4,0.6,7.4,0.6,7.4,0.6z"
		/>
	<path d="M15.6,0.5c-0.4,0.5-0.7,1-1,1.5c-0.1,0.2-0.2,0.2-0.4,0.2c0-0.7,0-1.4,0-2.1c0.1,0,0.2,0,0.3,0c0,0.6,0,1.1,0,1.7
		c0.4-0.5,0.7-1,1-1.5c0.1-0.1,0.2-0.2,0.4-0.2c0,0.7,0,1.4,0,2.1c-0.1,0-0.2,0-0.3,0C15.6,1.6,15.6,1.1,15.6,0.5z"/>
	<path d="M37,0c0.1,0,0.2,0,0.3,0c0,0.6,0,1.1,0,1.7c0.4-0.5,0.7-1,1-1.5c0.1-0.1,0.2-0.2,0.4-0.2c0,0.7,0,1.4,0,2.1
		c-0.1,0-0.2,0-0.3,0c0-0.5,0-1.1,0-1.7c-0.4,0.5-0.7,1-1,1.5c-0.1,0.2-0.2,0.2-0.4,0.2C37,1.5,37,0.8,37,0z"/>
	<path d="M24.5,0.1c0,0.7,0,1.4,0,2.1c-0.1,0-0.2,0-0.3,0c0-0.6,0-1.1,0-1.7c0,0,0,0,0,0c-0.1,0.1-0.2,0.3-0.3,0.4
		c-0.2,0.4-0.5,0.7-0.7,1.1c-0.1,0.2-0.2,0.2-0.4,0.2c0-0.7,0-1.4,0-2.1c0.1,0,0.2,0,0.3,0c0,0.6,0,1.1,0,1.7c0,0,0,0,0,0
		c0.1-0.1,0.1-0.2,0.2-0.3c0.3-0.4,0.6-0.8,0.8-1.2C24.2,0.1,24.3,0,24.5,0.1z"/>
	<path d="M39.3,0.1c0.3,0,0.6,0,0.9,0c0.3,0,0.5,0.1,0.5,0.4c0.1,0.2,0,0.4-0.3,0.6c0,0,0,0,0.1,0c0.2,0.1,0.3,0.2,0.3,0.5
		c0,0.3-0.1,0.5-0.4,0.5c-0.1,0-0.2,0.1-0.4,0.1c-0.2,0-0.5,0-0.8,0C39.3,1.5,39.3,0.8,39.3,0.1z M39.6,1.9c0.2,0,0.4,0,0.6,0
		c0.2,0,0.3-0.2,0.3-0.4c0-0.2-0.1-0.3-0.3-0.4c-0.2,0-0.4,0-0.6,0C39.6,1.5,39.6,1.7,39.6,1.9z M39.6,1c0.2,0,0.4,0,0.6,0
		c0.2,0,0.3-0.2,0.3-0.4c0-0.2-0.1-0.3-0.3-0.3c-0.2,0-0.4,0-0.6,0C39.6,0.5,39.6,0.8,39.6,1z"/>
	<path d="M62.1,1.1c0.4,0.2,0.4,0.3,0.4,0.6c-0.1,0.3-0.3,0.5-0.6,0.5c0,0-0.1,0-0.1,0c-0.2,0-0.5,0-0.7,0c0-0.7,0-1.4,0-2.1
		c0.3,0,0.6,0,0.9,0c0.3,0,0.5,0.1,0.6,0.4C62.5,0.7,62.4,0.9,62.1,1.1z M61.3,2c0.2,0,0.4,0,0.6,0c0.2,0,0.3-0.2,0.3-0.4
		c0-0.2-0.1-0.3-0.3-0.3c-0.2,0-0.4,0-0.6,0C61.3,1.5,61.3,1.7,61.3,2z M61.3,0.3c0,0.3,0,0.5,0,0.7c0.1,0,0.3,0,0.4,0
		c0,0,0.1,0,0.1,0c0.2-0.1,0.3-0.2,0.3-0.4c0-0.2-0.1-0.3-0.3-0.3C61.6,0.3,61.4,0.3,61.3,0.3z"/>
	<path d="M20.7,0.1c0,0.6,0,1.3,0,1.9c0.4,0,0.7,0,1.1,0c0-0.6,0-1.2,0-1.9c0.1,0,0.2,0,0.3,0c0,0.6,0,1.2,0,1.9c0.1,0,0.2,0,0.3,0
		c0,0.2,0,0.4,0,0.6c0,0.1-0.1,0.1-0.2,0.1c0,0,0,0-0.1,0c0-0.2,0-0.3,0-0.5c-0.6,0-1.1,0-1.7,0c0-0.7,0-1.4,0-2.1
		C20.6,0.1,20.6,0.1,20.7,0.1z"/>
	<path d="M25,1.1C25,0.5,25.4,0,26,0c0.6,0,1,0.5,1.1,1.1c0,0.7-0.4,1.1-1,1.1C25.4,2.2,25,1.8,25,1.1z M26.8,1.1
		c0-0.4-0.2-0.7-0.5-0.8c-0.3-0.1-0.6,0-0.8,0.2c-0.3,0.3-0.3,0.7-0.1,1.1C25.4,1.8,25.6,2,25.9,2c0,0,0,0,0,0
		C26.5,2,26.8,1.7,26.8,1.1z"/>
	<path d="M34.1,1.1c0,0.7-0.4,1.1-1.1,1.1c-0.6,0-1.1-0.5-1.1-1.1c0-0.7,0.4-1.1,1-1.1C33.6,0,34.1,0.5,34.1,1.1z M32.2,1.1
		C32.2,1.6,32.5,2,33,2c0.4,0,0.7-0.2,0.8-0.7c0.1-0.5-0.1-0.9-0.5-1.1C32.7,0.1,32.2,0.5,32.2,1.1z"/>
	<path d="M64.9,1.1c0,0.7-0.4,1.1-1,1.1c-0.6,0-1.1-0.5-1.1-1.1c0-0.7,0.4-1.1,1-1.1C64.5,0,64.9,0.4,64.9,1.1z M64.6,1.1
		c0-0.5-0.3-0.9-0.8-0.9c-0.5,0-0.8,0.3-0.8,0.9c0,0.3,0.1,0.6,0.4,0.8C64.1,2.2,64.6,1.8,64.6,1.1z"/>
	<path d="M4,1.1c0,0.7-0.4,1.1-1,1.1c-0.6,0-1.1-0.5-1.1-1.1c0-0.7,0.4-1.1,1-1.1C3.5,0,4,0.4,4,1.1z M3.7,1.1
		c0-0.4-0.2-0.7-0.5-0.8c-0.3-0.1-0.6,0-0.8,0.2C2.1,0.8,2.1,1.2,2.2,1.5C2.3,1.8,2.5,2,2.8,2c0,0,0,0,0,0C3.3,2,3.7,1.7,3.7,1.1z"
		/>
	<path d="M13.6,2.2c-0.1,0-0.2,0-0.3,0c0-0.3,0-0.6,0-1c-0.4,0-0.8,0-1.2,0c0,0.3,0,0.6,0,1c-0.1,0-0.2,0-0.3,0c0-0.7,0-1.4,0-2.1
		c0.1,0,0.2,0,0.3,0c0,0.3,0,0.6,0,0.9c0.4,0,0.8,0,1.2,0c0-0.3,0-0.6,0-0.9c0.1,0,0.2,0,0.3,0C13.6,0.8,13.6,1.5,13.6,2.2z"/>
	<path d="M54.6,1.2c-0.4,0-0.8,0-1.2,0c0,0.3,0,0.6,0,1c-0.1,0-0.2,0-0.3,0c0-0.7,0-1.4,0-2.1c0.1,0,0.2,0,0.3,0c0,0.3,0,0.6,0,0.9
		c0.4,0,0.8,0,1.2,0c0-0.3,0-0.6,0-0.9c0.1,0,0.2,0,0.3,0c0,0.7,0,1.4,0,2.1c-0.1,0-0.2,0-0.3,0C54.6,1.9,54.6,1.5,54.6,1.2z"/>
	<path d="M31.2,1c0-0.3,0-0.6,0-0.9c0.1,0,0.2,0,0.3,0c0,0.7,0,1.4,0,2.1c-0.1,0-0.2,0-0.3,0c0-0.3,0-0.6,0-1c-0.4,0-0.8,0-1.2,0
		c0,0.3,0,0.6,0,1c-0.1,0-0.2,0-0.3,0c0-0.7,0-1.4,0-2.1c0.1,0,0.2,0,0.3,0c0,0.3,0,0.6,0,0.9C30.4,1,30.8,1,31.2,1z"/>
	<path d="M42.9,0c0.1,0,0.2,0,0.3,0c0,0.3,0,0.6,0,0.9c0.4,0,0.8,0,1.2,0c0-0.3,0-0.6,0-0.9c0.1,0,0.2,0,0.3,0c0,0.7,0,1.4,0,2.1
		c-0.1,0-0.2,0-0.3,0c0-0.3,0-0.6,0-1c-0.4,0-0.8,0-1.2,0c0,0.3,0,0.6,0,1c-0.1,0-0.2,0-0.3,0C42.9,1.5,42.9,0.8,42.9,0z"/>
	<path d="M27.8,2.2c-0.1,0-0.2,0-0.3,0c0-0.7,0-1.4,0-2.1c0.1,0,0.2,0,0.3,0c0,0.3,0,0.6,0,0.9c0.4,0,0.8,0,1.2,0c0-0.3,0-0.6,0-0.9
		c0.1,0,0.2,0,0.3,0c0,0.7,0,1.4,0,2.1c-0.1,0-0.2,0-0.3,0c0-0.3,0-0.6,0-1c-0.4,0-0.8,0-1.2,0C27.8,1.5,27.8,1.9,27.8,2.2z"/>
	<path d="M0.3,1C0.5,1,0.7,1,0.8,0.8c0.1-0.2,0.3-0.4,0.4-0.6C1.3,0.1,1.4,0,1.6,0.1c-0.3,0.3-0.5,0.7-0.7,1
		c0.3,0.4,0.5,0.7,0.8,1.1C1.4,2.2,1.4,2.2,1.3,2C1.1,1.8,0.9,1.6,0.8,1.4C0.7,1.2,0.5,1.2,0.3,1.2c0,0.3,0,0.6,0,1
		c-0.1,0-0.2,0-0.3,0c0-0.7,0-1.4,0-2.1c0.1,0,0.2,0,0.3,0C0.3,0.4,0.3,0.7,0.3,1z"/>
	<path d="M16.7,1.2c0,0.3,0,0.6,0,1c-0.1,0-0.2,0-0.3,0c0-0.7,0-1.4,0-2.1c0.1,0,0.2,0,0.3,0c0,0.3,0,0.6,0,0.9
		C17,1,17.1,1,17.2,0.8c0.1-0.2,0.3-0.4,0.4-0.6c0.1-0.2,0.2-0.2,0.4-0.1c-0.3,0.3-0.5,0.7-0.7,1c0.3,0.4,0.5,0.7,0.8,1.1
		c-0.3,0.1-0.3,0.1-0.4-0.1c-0.1-0.2-0.3-0.4-0.4-0.6C17.1,1.2,17,1.2,16.7,1.2z"/>
	<path d="M49.5,2.2c-0.2,0.1-0.3,0-0.4-0.2C49,1.6,49,1.6,48.6,1.6c-0.2,0-0.4,0-0.6,0C48,1.7,47.9,1.8,47.9,2
		c-0.1,0.2-0.2,0.3-0.4,0.2c0-0.1,0.1-0.2,0.1-0.2c0.2-0.6,0.5-1.2,0.7-1.7c0-0.1,0.1-0.2,0.2-0.2c0.1,0,0.2,0,0.2,0.1
		c0.2,0.6,0.5,1.3,0.7,1.9C49.5,2.1,49.5,2.1,49.5,2.2z M48.9,1.4c-0.1-0.3-0.3-0.7-0.4-1c-0.1,0.4-0.3,0.7-0.4,1
		C48.4,1.4,48.6,1.4,48.9,1.4z"/>
	<path d="M20.1,2.2c-0.2,0.1-0.3,0-0.4-0.2c-0.1-0.4-0.1-0.4-0.6-0.4c-0.2,0-0.4,0-0.5,0c-0.1,0.1-0.1,0.2-0.1,0.4
		c-0.1,0.2-0.2,0.3-0.4,0.2c0-0.1,0.1-0.2,0.1-0.2c0.2-0.6,0.5-1.2,0.7-1.7C19,0.1,19,0,19.2,0c0.1,0,0.2,0,0.2,0.1
		C19.6,0.8,19.9,1.4,20.1,2.2C20.1,2.1,20.1,2.1,20.1,2.2z M19.6,1.4c-0.1-0.3-0.3-0.7-0.4-1c-0.1,0.4-0.3,0.7-0.4,1
		C19,1.4,19.3,1.4,19.6,1.4z"/>
	<path d="M51.4,0c0.4,0,0.9,0,1.3,0c0,0.1,0,0.1,0,0.2c-0.3,0-0.7,0-1,0c0,0.2,0,0.5,0,0.7c0.3,0,0.5,0,0.8,0c0,0.1,0,0.2,0,0.2
		c-0.3,0-0.6,0-0.8,0c0,0.2,0,0.5,0,0.7c0.3,0,0.7,0,1,0c0,0.1,0,0.2,0,0.2c-0.4,0-0.9,0-1.3,0C51.4,1.5,51.4,0.8,51.4,0z"/>
	<path d="M41.2,0c0.4,0,0.9,0,1.3,0c0,0.1,0,0.1,0,0.2c-0.3,0-0.7,0-1,0c0,0.2,0,0.5,0,0.7c0.3,0,0.5,0,0.8,0c0,0.1,0,0.2,0,0.2
		c-0.3,0-0.5,0-0.8,0c0,0.2,0,0.5,0,0.7c0.3,0,0.7,0,1,0c0,0.1,0,0.2,0,0.2c-0.4,0-0.9,0-1.3,0C41.2,1.5,41.2,0.8,41.2,0z"/>
	<path d="M35.8,1.9c0,0.1,0,0.2,0,0.2c-0.4,0-0.9,0-1.3,0c0-0.7,0-1.4,0-2.1c0.4,0,0.9,0,1.3,0c0,0.1,0,0.1,0,0.2c-0.3,0-0.7,0-1,0
		c0,0.2,0,0.5,0,0.7c0.3,0,0.5,0,0.8,0c0,0.1,0,0.2,0,0.2c-0.3,0-0.5,0-0.8,0c0,0.2,0,0.5,0,0.7C35.1,1.9,35.4,1.9,35.8,1.9z"/>
	<path d="M58.8,0.3c0,0.1-0.1,0.1-0.1,0.2c-0.1,0-0.1-0.1-0.2-0.1c-0.4-0.2-1,0-1.1,0.4c-0.1,0.2-0.1,0.5,0,0.7
		c0.1,0.5,0.7,0.7,1.1,0.4c0.1-0.1,0.2-0.1,0.3,0.1c-0.3,0.4-1,0.4-1.4,0.1c-0.5-0.4-0.5-1.2-0.1-1.7C57.7-0.1,58.3-0.1,58.8,0.3z"
		/>
	<path d="M9.7,0.1c0.2-0.1,0.4,0,0.5,0.2c0.2,0.3,0.3,0.6,0.5,1C10.8,1,10.9,0.8,11,0.6c0.1-0.1,0.1-0.2,0.2-0.3
		c0.1-0.2,0.2-0.3,0.4-0.2c0,0,0,0.1,0,0.1c-0.3,0.6-0.5,1.1-0.8,1.7c-0.1,0.2-0.2,0.3-0.4,0.3c-0.2,0-0.2,0-0.2-0.2
		c0.1,0,0.2-0.1,0.3-0.1c0.2-0.1,0.2-0.3,0.1-0.5C10.2,0.9,10,0.5,9.7,0.1z"/>
	<path d="M59.7,0.3c-0.3,0-0.5,0-0.7,0c0-0.1,0-0.1,0-0.2c0.5,0,1.1,0,1.7,0c0,0.1,0,0.1,0,0.2c-0.2,0-0.4,0-0.7,0
		c0,0.6,0,1.3,0,1.9c-0.1,0-0.2,0-0.3,0C59.7,1.6,59.7,0.9,59.7,0.3z"/>
	<path d="M55.9,0.3c-0.3,0-0.5,0-0.7,0c0-0.1,0-0.1,0-0.2c0.5,0,1.1,0,1.7,0c0,0.1,0,0.1,0,0.2c-0.2,0-0.4,0-0.7,0
		c0,0.6,0,1.3,0,1.9c-0.1,0-0.2,0-0.3,0C55.9,1.6,55.9,0.9,55.9,0.3z"/>
	<path d="M46,0.3c0,0.6,0,1.3,0,1.9c-0.1,0-0.2,0-0.3,0c0-0.6,0-1.3,0-1.9c-0.2,0-0.5,0-0.7,0c0-0.1,0-0.2,0-0.2c0.5,0,1.1,0,1.7,0
		c0,0.1,0,0.1,0,0.2C46.4,0.3,46.2,0.3,46,0.3z"/>
	<path d="M49.8,0c0.4,0,0.8,0,1.3,0c0,0.1,0,0.1,0,0.2c-0.3,0-0.6,0-1,0c0,0.6,0,1.3,0,1.9c-0.1,0-0.2,0-0.3,0
		C49.8,1.5,49.8,0.8,49.8,0z"/>
</g>
</svg>
