<?xml version="1.0" encoding="utf-8"?>
<!-- Generator: Adobe Illustrator 24.0.1, SVG Export Plug-In . SVG Version: 6.00 Build 0)  -->
<svg version="1.1" id="Layer_1" xmlns="http://www.w3.org/2000/svg" xmlns:xlink="http://www.w3.org/1999/xlink" x="0px" y="0px"
	 viewBox="0 0 141.7 141.7" style="enable-background:new 0 0 141.7 141.7;" xml:space="preserve">
<style type="text/css">
	.st0{fill:#1E76B6;}
</style>
<g>
	<g>
		<g>
			<path class="st0" d="M24.4,74.1c1.7,2,3.7,3.7,5.9,5.1c5,3.2,10.6,4.5,16.5,4.4c5.7-0.1,11.2-1.2,16.5-3.1
				c8-2.8,15.9-5.8,23.8-8.7c8.2-3,16.3-6,24.5-9c1.5-0.6,3-1.1,4.5-1.8c1.7-0.9,1.8-2.1,0.6-3.5c-1.9-2.1-4.3-2.6-6.9-1.7
				c-4.1,1.4-8.1,2.8-12.2,4.2c-0.5,0.2-0.7,0.1-0.9-0.4c-2.5-5.6-5-11.1-7.5-16.7C86,35.8,82.9,28.9,79.8,22
				c-0.2-0.5-0.4-0.6-0.9-0.6c-4.1,0-8.3,0-12.4,0c-0.5,0-0.8,0.2-1,0.7C62.3,29,59.2,36,56,43c-0.3,0.6-0.5,1.3-1.3,1.8
				c-1.8,1.1-3.6,2.3-5.4,3.4c-0.9,0.6-1.8,1.1-2.7,1.7c3-0.7,5.9-1.5,8.8-2.4c3.1-0.9,6.1-1.2,9.3-0.5c0.9,0.2,2.9,0.7,2.9,0.7
				l5.7-11L82.5,59c0,0-11.9-3.7-17.6-5.4c-2.3-0.7-4.7-0.9-7.1-0.2c-2.3,0.7-4.5,1.3-6.8,1.9c-1.2,0.3-2.4,0.7-3.7,1.1
				c8,4.3,15.9,8.5,23.8,12.7c-0.3,0.2-0.5,0.3-0.8,0.5c-1.4,0.8-2.9,1.6-4.3,2.3c-6.6,3.4-13.5,5.8-20.9,6.4
				c-4.9,0.4-9.7,0-14.4-1.6C28.6,75.8,26.5,75,24.4,74.1z M79.9,78.3l20-7.4c0,0,9.6,17.2,13.2,25.1c-0.9,0-1.6,0-2.3-0.1
				c-3.3-0.3-6.4-1.1-9.3-2.9c-3.2-2.1-5.4-4.9-7.2-8.2c-0.3-0.6-0.6-1.2-0.9-1.8c-0.2-0.2-0.5-0.5-0.7-0.6
				C89.4,81.7,79.9,78.3,79.9,78.3z"/>
		</g>
		<g>
			<g>
				<path class="st0" d="M88.2,34.4c0.3,0.6,0.6,1.3,0.9,1.9c6.4,4.4,11.1,11.2,12.8,19.1c2.3-0.8,4.6-1.6,6.9-2.3
					c0.1,0,0.2-0.1,0.3-0.1c-1.6-6.9-5.1-13.2-10.2-18.4c-4.2-4.2-9.2-7.3-14.6-9.2C85.6,28.5,86.9,31.5,88.2,34.4z"/>
			</g>
			<g>
				<path class="st0" d="M92,86c-0.1-0.2-0.2-0.4-0.3-0.6c-5.4,4.6-12.4,7.4-20,7.4c-7.4,0-14.2-2.6-19.5-6.9
					c-1.8,0.2-3.6,0.4-5.4,0.4c-0.2,0-0.4,0-0.6,0c-1.5,0-3-0.1-4.4-0.3c0.9,1.1,1.8,2.1,2.8,3.1c7.3,7.3,16.9,11.3,27.2,11.3
					c8.9,0,17.4-3,24.3-8.6C94.5,90.1,93.1,88.2,92,86z"/>
			</g>
			<g>
				<path class="st0" d="M41.7,75.6c0.7,0,1.4,0,2.2-0.1c-2-4.1-3.2-8.8-3.2-13.7c0-11.7,6.5-21.9,16.1-27.1
					c1.4-3.2,2.9-6.4,4.5-9.9c-6.3,1.8-12.1,5.1-16.8,9.9c-7.3,7.3-11.3,16.9-11.3,27.2c0,4.6,0.8,9,2.3,13.2
					C37.5,75.4,39.6,75.6,41.7,75.6z"/>
			</g>
		</g>
		<g>
			<path class="st0" d="M35,113.9l2.6-7.4h2.5l2.6,7.4h-2l-0.4-1.3h-2.9l-0.4,1.3H35z M37.9,111.1h2l-0.8-2.5c0-0.1-0.1-0.2-0.1-0.4
				c0-0.2-0.1-0.4-0.2-0.6c0,0.2-0.1,0.4-0.1,0.5c0,0.2-0.1,0.3-0.1,0.5L37.9,111.1z"/>
			<path class="st0" d="M45.4,113.9l-3.1-7.4h2.2l1.5,4.2c0,0,0,0.2,0.1,0.3c0,0.2,0.1,0.4,0.2,0.7c0.1-0.2,0.1-0.4,0.2-0.6
				c0-0.2,0.1-0.3,0.1-0.4l1.5-4.2H50l-3.1,7.4H45.4z"/>
			<path class="st0" d="M50.7,113.9v-7.4h2v7.4H50.7z"/>
			<path class="st0" d="M53.5,113.9l2.6-7.4h2.5l2.6,7.4h-2l-0.4-1.3h-2.9l-0.4,1.3H53.5z M56.3,111.1h2l-0.8-2.5
				c0-0.1-0.1-0.2-0.1-0.4c0-0.2-0.1-0.4-0.2-0.6c0,0.2-0.1,0.4-0.1,0.5c0,0.2-0.1,0.3-0.1,0.5L56.3,111.1z"/>
			<path class="st0" d="M67.1,106.7v2.2c-0.3-0.3-0.6-0.5-0.8-0.7c-0.3-0.1-0.6-0.2-0.9-0.2c-0.6,0-1.1,0.2-1.4,0.6
				s-0.5,0.9-0.5,1.6c0,0.6,0.2,1.1,0.6,1.5c0.4,0.4,0.8,0.6,1.4,0.6c0.3,0,0.6-0.1,0.9-0.2c0.3-0.1,0.6-0.4,0.8-0.7v2.2
				c-0.3,0.2-0.6,0.3-1,0.4c-0.3,0.1-0.6,0.1-1,0.1c-0.4,0-0.8,0-1.1-0.1s-0.7-0.2-0.9-0.4c-0.6-0.4-1-0.8-1.3-1.4
				c-0.3-0.6-0.4-1.2-0.4-1.9c0-0.6,0.1-1.1,0.3-1.6c0.2-0.5,0.5-0.9,0.8-1.3c0.4-0.4,0.7-0.6,1.2-0.8s0.9-0.3,1.5-0.3
				c0.3,0,0.6,0,1,0.1C66.4,106.4,66.8,106.6,67.1,106.7z"/>
			<path class="st0" d="M75.9,110.2c0,0.5-0.1,1-0.3,1.5c-0.2,0.5-0.5,0.9-0.9,1.3c-0.4,0.4-0.8,0.6-1.3,0.8c-0.5,0.2-1,0.3-1.5,0.3
				c-0.5,0-1-0.1-1.5-0.3c-0.5-0.2-0.9-0.5-1.3-0.8c-0.4-0.4-0.7-0.8-0.9-1.3c-0.2-0.5-0.3-1-0.3-1.5c0-0.5,0.1-1,0.3-1.5
				s0.5-0.9,0.9-1.3c0.4-0.4,0.8-0.6,1.3-0.8c0.5-0.2,1-0.3,1.5-0.3c0.5,0,1,0.1,1.5,0.3s0.9,0.5,1.3,0.8s0.7,0.8,0.9,1.3
				C75.8,109.1,75.9,109.6,75.9,110.2z M71.9,112.4c0.6,0,1-0.2,1.4-0.6s0.6-0.9,0.6-1.6c0-0.6-0.2-1.1-0.6-1.6s-0.8-0.6-1.4-0.6
				c-0.6,0-1,0.2-1.4,0.6s-0.6,0.9-0.6,1.6c0,0.6,0.2,1.2,0.5,1.6C70.9,112.1,71.3,112.4,71.9,112.4z"/>
			<path class="st0" d="M85.7,113.9h-1.9l-0.4-3.2c0-0.2-0.1-0.5-0.1-0.8c0-0.3,0-0.6-0.1-0.9c0,0.3-0.1,0.7-0.3,1.2
				c0,0.1-0.1,0.2-0.1,0.2l-1,3.5h-1.4l-1-3.5c0,0,0-0.1-0.1-0.2c-0.1-0.5-0.2-0.9-0.3-1.2c0,0.3,0,0.6-0.1,0.8s-0.1,0.6-0.1,0.8
				l-0.4,3.2h-1.9l1.1-7.4h2l1.1,3.8c0,0,0,0.1,0,0.1c0.1,0.3,0.2,0.6,0.2,0.9c0-0.1,0-0.3,0.1-0.4c0-0.2,0.1-0.4,0.2-0.6l1.1-3.8h2
				L85.7,113.9z"/>
			<path class="st0" d="M86.8,113.9v-7.4h2v7.4H86.8z"/>
			<path class="st0" d="M90.5,113.9v-7.4h2l2.8,3.8c0.1,0.1,0.1,0.2,0.3,0.5s0.3,0.5,0.4,0.8c0-0.3-0.1-0.6-0.1-0.8
				c0-0.2,0-0.5,0-0.6v-3.7h1.9v7.4h-1.9L93,110c-0.1-0.1-0.1-0.2-0.3-0.5c-0.1-0.2-0.3-0.5-0.4-0.8c0,0.3,0.1,0.6,0.1,0.8
				c0,0.2,0,0.5,0,0.6v3.7H90.5z"/>
			<path class="st0" d="M99.4,113.9v-7.4h4.6v1.6h-2.6v1.3h2.4v1.6h-2.4v2.9H99.4z"/>
			<path class="st0" d="M112.7,110.2c0,0.5-0.1,1-0.3,1.5c-0.2,0.5-0.5,0.9-0.9,1.3c-0.4,0.4-0.8,0.6-1.3,0.8
				c-0.5,0.2-1,0.3-1.5,0.3c-0.5,0-1-0.1-1.5-0.3c-0.5-0.2-0.9-0.5-1.3-0.8c-0.4-0.4-0.7-0.8-0.9-1.3c-0.2-0.5-0.3-1-0.3-1.5
				c0-0.5,0.1-1,0.3-1.5s0.5-0.9,0.9-1.3c0.4-0.4,0.8-0.6,1.3-0.8s1-0.3,1.5-0.3c0.5,0,1,0.1,1.5,0.3c0.5,0.2,0.9,0.5,1.3,0.8
				c0.4,0.4,0.7,0.8,0.9,1.3C112.6,109.1,112.7,109.6,112.7,110.2z M108.7,112.4c0.6,0,1-0.2,1.4-0.6c0.4-0.4,0.6-0.9,0.6-1.6
				c0-0.6-0.2-1.1-0.6-1.6s-0.8-0.6-1.4-0.6c-0.6,0-1,0.2-1.4,0.6c-0.4,0.4-0.6,0.9-0.6,1.6c0,0.6,0.2,1.2,0.5,1.6
				S108.1,112.4,108.7,112.4z"/>
		</g>
		<g>
			<g>
				<path class="st0" d="M35.6,116.3h0.2v2.9h-0.2V116.3z"/>
				<path class="st0" d="M36.8,119.2h-0.2v-3l2.5,2.6v-2.6h0.2v3l-2.5-2.6V119.2z"/>
				<path class="st0" d="M41.4,116.4h-0.8v2.8h-0.2v-2.8h-0.8v-0.2h1.7V116.4z"/>
				<path class="st0" d="M43.3,116.3v0.2h-1.2v1.1h1.2v0.2h-1.2v1.3h1.2v0.2h-1.4v-2.9H43.3z"/>
				<path class="st0" d="M45.4,119.2h-0.2l-1-1.4h-0.1v1.4H44v-2.9h0.4c0.3,0,0.5,0,0.6,0.2c0.2,0.1,0.3,0.4,0.3,0.6
					c0,0.2,0,0.3-0.1,0.4c-0.1,0.1-0.2,0.2-0.4,0.3c-0.1,0-0.2,0.1-0.4,0.1L45.4,119.2z M44.1,116.4v1.2h0.3c0.2,0,0.4-0.1,0.5-0.2
					c0.1-0.1,0.2-0.3,0.2-0.4c0-0.2-0.1-0.4-0.3-0.5c-0.1-0.1-0.3-0.1-0.5-0.1H44.1z"/>
				<path class="st0" d="M47.5,119.2h-0.2l-1-1.4h-0.1v1.4H46v-2.9h0.4c0.3,0,0.5,0,0.6,0.2c0.2,0.1,0.3,0.4,0.3,0.6
					c0,0.2,0,0.3-0.1,0.4c-0.1,0.1-0.2,0.2-0.4,0.3c-0.1,0-0.2,0.1-0.4,0.1L47.5,119.2z M46.2,116.4v1.2h0.3c0.2,0,0.4-0.1,0.5-0.2
					c0.1-0.1,0.2-0.3,0.2-0.4c0-0.2-0.1-0.4-0.3-0.5c-0.1-0.1-0.3-0.1-0.5-0.1H46.2z"/>
				<path class="st0" d="M49.5,116.3v0.2h-1.2v1.1h1.2v0.2h-1.2v1.3h1.2v0.2h-1.4v-2.9H49.5z"/>
				<path class="st0" d="M51.7,118v-0.2h1.2c0,0.4-0.1,0.7-0.3,1c-0.3,0.3-0.6,0.5-1.1,0.5c-0.4,0-0.8-0.1-1.1-0.4
					c-0.3-0.3-0.4-0.6-0.4-1.1c0-0.4,0.1-0.8,0.4-1.1c0.3-0.3,0.7-0.4,1.1-0.4c0.3,0,0.6,0.1,0.9,0.3c0.1,0.1,0.3,0.2,0.4,0.4
					l-0.2,0.1c-0.1-0.1-0.2-0.2-0.3-0.3c-0.2-0.2-0.5-0.3-0.8-0.3c-0.4,0-0.7,0.1-0.9,0.4c-0.3,0.3-0.4,0.6-0.4,1
					c0,0.4,0.1,0.7,0.4,0.9s0.6,0.4,0.9,0.4c0.2,0,0.4,0,0.6-0.1s0.3-0.2,0.4-0.4c0.1-0.2,0.2-0.4,0.2-0.6H51.7z"/>
				<path class="st0" d="M53.6,116.3h0.2v2.9h-0.2V116.3z"/>
				<path class="st0" d="M54.8,116.7c0.3-0.3,0.7-0.4,1.1-0.4s0.8,0.1,1.1,0.4c0.3,0.3,0.4,0.7,0.4,1.1c0,0.4-0.1,0.8-0.4,1.1
					c-0.3,0.3-0.7,0.4-1.1,0.4c-0.4,0-0.8-0.1-1.1-0.4c-0.3-0.3-0.4-0.7-0.4-1.1C54.4,117.3,54.5,117,54.8,116.7z M55,118.7
					c0.3,0.3,0.6,0.4,0.9,0.4s0.7-0.1,0.9-0.4c0.3-0.3,0.4-0.6,0.4-1c0-0.4-0.1-0.7-0.4-1c-0.3-0.3-0.6-0.4-0.9-0.4
					s-0.7,0.1-0.9,0.4s-0.4,0.6-0.4,1C54.6,118.1,54.7,118.4,55,118.7z"/>
				<path class="st0" d="M58.3,119.2h-0.2v-3l2.5,2.6v-2.6h0.2v3l-2.5-2.6V119.2z"/>
				<path class="st0" d="M63.5,119.2l-0.4-1h-1.3l-0.4,1h-0.2l1.2-3l1.2,3H63.5z M61.9,118.1H63l-0.6-1.4L61.9,118.1z"/>
				<path class="st0" d="M64.1,116.3h0.2v2.8h0.8v0.2h-1V116.3z"/>
				<path class="st0" d="M68.6,119.2l-0.4-1h-1.3l-0.4,1h-0.2l1.2-3l1.2,3H68.6z M67,118.1h1.1l-0.6-1.4L67,118.1z"/>
				<path class="st0" d="M69.2,116.3h0.2v2.9h-0.2V116.3z"/>
				<path class="st0" d="M71.7,119.2h-0.2l-1-1.4h-0.1v1.4h-0.2v-2.9h0.4c0.3,0,0.5,0,0.6,0.2c0.2,0.1,0.3,0.4,0.3,0.6
					c0,0.2,0,0.3-0.1,0.4c-0.1,0.1-0.2,0.2-0.4,0.3c-0.1,0-0.2,0.1-0.4,0.1L71.7,119.2z M70.4,116.4v1.2h0.3c0.2,0,0.4-0.1,0.5-0.2
					c0.1-0.1,0.2-0.3,0.2-0.4c0-0.2-0.1-0.4-0.3-0.5c-0.1-0.1-0.3-0.1-0.5-0.1H70.4z"/>
				<path class="st0" d="M72.5,119.2h-0.2v-3l2.5,2.6v-2.6H75v3l-2.5-2.6V119.2z"/>
				<path class="st0" d="M77.7,119.2l-0.4-1H76l-0.4,1h-0.2l1.2-3l1.2,3H77.7z M76.1,118.1h1.1l-0.6-1.4L76.1,118.1z"/>
				<path class="st0" d="M77.8,116.3H78l0.9,2.5l0.8-2.5h0.2l-1.1,3.1L77.8,116.3z"/>
				<path class="st0" d="M80.4,116.3h0.2v2.9h-0.2V116.3z"/>
				<path class="st0" d="M82.9,118v-0.2h1.2c0,0.4-0.1,0.7-0.3,1c-0.3,0.3-0.6,0.5-1.1,0.5c-0.4,0-0.8-0.1-1.1-0.4
					c-0.3-0.3-0.4-0.6-0.4-1.1c0-0.4,0.1-0.8,0.4-1.1s0.7-0.4,1.1-0.4c0.3,0,0.6,0.1,0.9,0.3c0.1,0.1,0.3,0.2,0.4,0.4l-0.2,0.1
					c-0.1-0.1-0.2-0.2-0.3-0.3c-0.2-0.2-0.5-0.3-0.8-0.3c-0.4,0-0.7,0.1-0.9,0.4c-0.3,0.3-0.4,0.6-0.4,1c0,0.4,0.1,0.7,0.4,0.9
					s0.6,0.4,0.9,0.4c0.2,0,0.4,0,0.6-0.1c0.2-0.1,0.3-0.2,0.4-0.4c0.1-0.2,0.2-0.4,0.2-0.6H82.9z"/>
				<path class="st0" d="M86.6,119.2l-0.4-1H85l-0.4,1h-0.2l1.2-3l1.2,3H86.6z M85.1,118.1h1.1l-0.6-1.4L85.1,118.1z"/>
				<path class="st0" d="M88.5,116.4h-0.8v2.8h-0.2v-2.8h-0.8v-0.2h1.7V116.4z"/>
				<path class="st0" d="M88.9,116.3h0.2v2.9h-0.2V116.3z"/>
				<path class="st0" d="M90.2,116.7c0.3-0.3,0.7-0.4,1.1-0.4s0.8,0.1,1.1,0.4c0.3,0.3,0.4,0.7,0.4,1.1c0,0.4-0.1,0.8-0.4,1.1
					c-0.3,0.3-0.7,0.4-1.1,0.4c-0.4,0-0.8-0.1-1.1-0.4c-0.3-0.3-0.4-0.7-0.4-1.1C89.8,117.3,89.9,117,90.2,116.7z M90.3,118.7
					c0.3,0.3,0.6,0.4,0.9,0.4s0.7-0.1,0.9-0.4c0.3-0.3,0.4-0.6,0.4-1c0-0.4-0.1-0.7-0.4-1c-0.3-0.3-0.6-0.4-0.9-0.4
					s-0.7,0.1-0.9,0.4c-0.3,0.3-0.4,0.6-0.4,1C90,118.1,90.1,118.4,90.3,118.7z"/>
				<path class="st0" d="M93.6,119.2h-0.2v-3l2.5,2.6v-2.6h0.2v3l-2.5-2.6V119.2z"/>
				<path class="st0" d="M100.3,116.6v0.3c-0.1-0.1-0.3-0.3-0.4-0.3c-0.2-0.1-0.4-0.1-0.5-0.1c-0.4,0-0.7,0.1-0.9,0.4
					c-0.3,0.3-0.4,0.6-0.4,1c0,0.2,0,0.4,0.1,0.6s0.2,0.3,0.3,0.4c0.1,0.1,0.3,0.2,0.4,0.2c0.2,0.1,0.3,0.1,0.5,0.1
					c0.2,0,0.3,0,0.5-0.1s0.3-0.2,0.5-0.3v0.3c-0.3,0.2-0.6,0.4-1,0.4c-0.4,0-0.8-0.1-1.1-0.4c-0.3-0.3-0.4-0.7-0.4-1.1
					c0-0.4,0.1-0.8,0.4-1.1c0.3-0.3,0.7-0.4,1.1-0.4C99.7,116.2,100,116.4,100.3,116.6z"/>
				<path class="st0" d="M102.4,116.3v0.2h-1.2v1.1h1.2v0.2h-1.2v1.3h1.2v0.2h-1.4v-2.9H102.4z"/>
				<path class="st0" d="M103.2,119.2H103v-3l2.5,2.6v-2.6h0.2v3l-2.5-2.6V119.2z"/>
				<path class="st0" d="M107.8,116.4h-0.8v2.8h-0.2v-2.8h-0.8v-0.2h1.7V116.4z"/>
				<path class="st0" d="M109.7,116.3v0.2h-1.2v1.1h1.2v0.2h-1.2v1.3h1.2v0.2h-1.4v-2.9H109.7z"/>
				<path class="st0" d="M111.8,119.2h-0.2l-1-1.4h-0.1v1.4h-0.2v-2.9h0.4c0.3,0,0.5,0,0.6,0.2c0.2,0.1,0.3,0.4,0.3,0.6
					c0,0.2,0,0.3-0.1,0.4c-0.1,0.1-0.2,0.2-0.4,0.3c-0.1,0-0.2,0.1-0.4,0.1L111.8,119.2z M110.5,116.4v1.2h0.3
					c0.2,0,0.4-0.1,0.5-0.2c0.1-0.1,0.2-0.3,0.2-0.4c0-0.2-0.1-0.4-0.3-0.5c-0.1-0.1-0.3-0.1-0.5-0.1H110.5z"/>
			</g>
		</g>
	</g>
</g>
</svg>
