<svg xmlns="http://www.w3.org/2000/svg" viewBox="0 -1.93715e-7 21.27 5.904">
  <path d="M3.33,4.193l-0.714,-1.256c-0.023,-0.042 -0.026,-0.071 -0.018,-0.097c0.021,-0.072 0.196,-0.101 0.417,-0.31c0.255,-0.24 0.35,-0.559 0.35,-0.913c0,-0.356 -0.09,-0.679 -0.321,-0.938c-0.154,-0.172 -0.348,-0.28 -0.597,-0.335c-0.125,-0.027 -0.323,-0.047 -0.591,-0.047l-1.58,0c-0.187,0 -0.276,0.061 -0.276,0.192c0,0.217 0.215,0.614 0.789,0.614l1.021,0c0.292,0 0.449,0.053 0.541,0.154c0.078,0.085 0.131,0.198 0.131,0.36c0,0.151 -0.039,0.263 -0.129,0.355c-0.095,0.098 -0.244,0.159 -0.543,0.159l-0.674,0c-0.488,0 -0.711,0.085 -0.878,0.259c-0.15,0.154 -0.238,0.369 -0.238,0.799l0,1.007c0,0.125 0.018,0.209 0.079,0.27c0.057,0.056 0.151,0.078 0.281,0.078l0.164,0c0.13,0 0.224,-0.022 0.28,-0.078c0.062,-0.061 0.08,-0.145 0.08,-0.27l0,-1.095c0,-0.105 0.043,-0.155 0.145,-0.155l0.605,0l0.658,1.247c0.065,0.113 0.125,0.209 0.218,0.27c0.086,0.057 0.192,0.081 0.321,0.081l0.261,0.001c0.145,-0.001 0.219,-0.036 0.255,-0.096c0.044,-0.072 0.013,-0.169 -0.037,-0.256
M5.326,1.875c0.449,0 0.648,0.189 0.648,0.502c0,0.057 -0.025,0.097 -0.109,0.097l-1.18,0l-0.001,0c0.01,-0.402 0.163,-0.599 0.642,-0.599m0.672,1.303c0.601,0 0.813,-0.197 0.813,-0.681c0,-0.773 -0.407,-1.367 -1.47,-1.367c-1.063,0 -1.538,0.517 -1.538,1.682c0,0.793 0.087,1.147 0.424,1.43c0.267,0.223 0.674,0.348 1.294,0.348c0.381,0 0.646,-0.048 0.838,-0.099c0.107,-0.033 0.198,-0.069 0.258,-0.145c0.046,-0.058 0.056,-0.151 0.056,-0.245l0,-0.179c0,-0.181 -0.124,-0.215 -0.278,-0.174l0,0c-0.209,0.052 -0.468,0.099 -0.807,0.099c-0.797,0 -0.899,-0.268 -0.907,-0.669l1.317,0Z
M9.592,2.861l0,0.161c0,0.099 -0.004,0.182 -0.012,0.253c-0.023,0.199 -0.077,0.31 -0.166,0.411c-0.107,0.12 -0.279,0.161 -0.514,0.161l0,0c-0.236,0 -0.408,-0.041 -0.515,-0.161c-0.121,-0.138 -0.178,-0.293 -0.178,-0.664l0,-0.161l0,-0.049l0,-0.112c0,-0.371 0.057,-0.526 0.178,-0.664c0.107,-0.12 0.279,-0.161 0.515,-0.161l0,0c0.235,0 0.407,0.041 0.514,0.161c0.056,0.064 0.098,0.132 0.128,0.222c0.034,0.106 0.05,0.243 0.05,0.442l0,0.161Zm0.524,-2.861l-0.164,0c-0.13,0 -0.224,0.022 -0.28,0.079c-0.062,0.061 -0.08,0.144 -0.08,0.269l0,1.017c-0.212,-0.143 -0.471,-0.232 -0.88,-0.232c-0.968,0 -1.388,0.539 -1.388,1.679c0,1.079 0.269,1.782 1.562,1.782c1.085,0 1.59,-0.512 1.59,-1.622l0,-2.624c0,-0.125 -0.018,-0.208 -0.079,-0.269c-0.057,-0.057 -0.151,-0.079 -0.281,-0.079
M13.315,2.868l0,0.161c0,0.099 -0.005,0.182 -0.013,0.254c-0.022,0.198 -0.077,0.309 -0.166,0.41c-0.106,0.12 -0.279,0.162 -0.514,0.162l0,0c-0.235,0 -0.408,-0.042 -0.514,-0.162c-0.122,-0.137 -0.179,-0.292 -0.179,-0.664l0,-0.161l0,-0.049l0,-0.111c0,-0.372 0.057,-0.527 0.179,-0.664c0.106,-0.121 0.279,-0.162 0.514,-0.162l0,0c0.235,0 0.408,0.041 0.514,0.162c0.056,0.063 0.099,0.131 0.128,0.222c0.034,0.105 0.051,0.242 0.051,0.442l0,0.16Zm0.524,-2.861l-0.165,0c-0.129,0 -0.223,0.023 -0.28,0.079c-0.061,0.061 -0.079,0.145 -0.079,0.27l0,1.016c-0.212,-0.143 -0.472,-0.232 -0.88,-0.232c-0.969,0 -1.389,0.54 -1.389,1.679c0,1.079 0.27,1.782 1.563,1.782c1.085,0 1.589,-0.511 1.589,-1.622l0,-2.623c0,-0.125 -0.018,-0.209 -0.079,-0.27c-0.057,-0.056 -0.151,-0.079 -0.28,-0.079
M16.193,3.869c-0.38,0 -0.607,-0.099 -0.607,-0.35c0,-0.123 0.052,-0.201 0.136,-0.259c0.096,-0.067 0.282,-0.09 0.486,-0.09l0.654,0c0,0.26 -0.058,0.699 -0.669,0.699m0.977,-2.53c-0.262,-0.145 -0.689,-0.199 -1.062,-0.199c-0.285,0 -0.574,0.039 -0.797,0.088c-0.107,0.032 -0.198,0.069 -0.258,0.145c-0.046,0.058 -0.055,0.153 -0.055,0.246l0,0.176c0,0.155 0.086,0.206 0.215,0.185c0.014,-0.003 0.029,-0.006 0.044,-0.009c0.001,0 0.001,0 0.002,0l0,0c0.203,-0.042 0.513,-0.087 0.794,-0.087c0.34,0 0.561,0.06 0.689,0.179c0.092,0.085 0.12,0.193 0.12,0.341l0,0.062l-0.543,0c-0.43,0 -0.803,0.039 -1.056,0.165c-0.365,0.183 -0.56,0.515 -0.56,0.908c0,0.664 0.564,1.058 1.505,1.058c0.619,0 0.996,-0.144 1.257,-0.491c0.182,-0.241 0.267,-0.526 0.267,-1.008l0,-0.504c0,-0.302 -0.035,-0.549 -0.089,-0.695c-0.091,-0.248 -0.247,-0.434 -0.473,-0.56
M21.233,1.264c-0.044,-0.057 -0.095,-0.079 -0.219,-0.079l-0.192,0c-0.125,0 -0.221,0.022 -0.287,0.079c-0.071,0.06 -0.104,0.144 -0.129,0.269l0,0l-0.428,2.216c-0.019,0.089 -0.047,0.12 -0.122,0.12l-0.034,0c-0.277,0 -0.349,-0.116 -0.413,-0.431l-0.371,-1.905l0,0c-0.025,-0.125 -0.058,-0.209 -0.129,-0.269c-0.066,-0.057 -0.162,-0.079 -0.287,-0.079l-0.178,0c-0.125,0 -0.211,0.022 -0.254,0.079c-0.047,0.06 -0.048,0.145 -0.023,0.27l-0.001,-0.006l0.417,2.035c0.063,0.294 0.167,0.54 0.374,0.731c0.161,0.15 0.371,0.257 0.79,0.257l0.07,0l-0.01,0.052c-0.031,0.145 -0.052,0.273 -0.174,0.401c-0.131,0.137 -0.332,0.162 -0.586,0.164l-0.132,0c-0.173,0 -0.256,0.057 -0.256,0.178c0,0.098 0.048,0.235 0.157,0.35c0.105,0.11 0.312,0.208 0.578,0.208c0.306,0 0.504,-0.089 0.647,-0.179c0.121,-0.076 0.217,-0.173 0.305,-0.303c0.163,-0.241 0.249,-0.528 0.315,-0.825l0.595,-3.063c0.025,-0.125 0.023,-0.21 -0.023,-0.27
" fill="#dd1f3b"/>
</svg>