<?xml version="1.0" standalone="no"?>
<!DOCTYPE svg PUBLIC "-//W3C//DTD SVG 20010904//EN"
 "http://www.w3.org/TR/2001/REC-SVG-20010904/DTD/svg10.dtd">
<svg version="1.0" xmlns="http://www.w3.org/2000/svg"
 width="397.000000pt" height="397.000000pt" viewBox="0 0 397.000000 397.000000"
 preserveAspectRatio="xMidYMid meet">
<metadata>
Created by potrace 1.14, written by Peter Selinger 2001-2017
</metadata>
<g transform="translate(0.000000,397.000000) scale(0.100000,-0.100000)"
fill="#000000" stroke="none">
<path d="M1818 3965 c-1 -1 -30 -5 -63 -8 -33 -4 -70 -8 -81 -11 -12 -2 -39
-7 -59 -10 -89 -14 -305 -78 -385 -113 -19 -8 -57 -26 -83 -39 -27 -13 -55
-24 -63 -24 -8 0 -14 -4 -14 -9 0 -5 -10 -13 -22 -17 -26 -8 -120 -64 -129
-77 -3 -5 -9 -8 -13 -7 -10 2 -154 -104 -218 -160 -101 -89 -200 -193 -260
-271 -12 -18 -31 -40 -41 -50 -9 -11 -14 -19 -10 -19 5 0 3 -4 -2 -8 -21 -14
-104 -149 -157 -253 -87 -169 -158 -377 -183 -532 -3 -15 -7 -39 -10 -55 -27
-144 -27 -503 0 -627 3 -11 7 -31 9 -45 4 -23 25 -122 30 -145 25 -108 173
-463 198 -473 5 -2 8 -8 8 -13 0 -8 54 -101 72 -124 5 -5 39 -50 77 -100 71
-93 195 -224 270 -285 23 -19 54 -45 69 -58 15 -13 39 -30 54 -40 16 -9 28
-20 28 -24 0 -4 7 -8 15 -8 8 0 15 -4 15 -9 0 -5 9 -13 20 -16 11 -3 26 -12
32 -18 27 -26 255 -141 343 -174 110 -40 241 -79 298 -88 17 -3 55 -9 82 -15
168 -35 534 -34 680 1 22 5 51 11 65 13 54 7 195 48 295 87 117 45 309 141
341 170 11 10 26 19 32 19 7 0 21 9 32 20 11 11 20 18 20 15 0 -12 207 162
276 232 188 189 336 417 438 673 21 52 40 103 42 113 2 9 6 26 8 37 3 11 8 25
11 30 3 5 8 20 11 32 3 13 9 43 15 68 36 164 47 283 44 470 -2 96 -6 193 -9
215 -39 256 -88 418 -194 635 -25 52 -50 97 -54 98 -4 2 -8 8 -8 14 0 6 -18
37 -40 70 -22 33 -40 64 -40 68 0 5 -3 10 -7 12 -5 2 -30 32 -58 68 -66 86
-79 101 -155 179 -78 79 -233 211 -249 211 -6 0 -11 4 -11 8 0 5 -18 18 -40
31 -22 12 -46 27 -53 34 -14 13 -20 17 -130 76 -43 23 -113 56 -155 73 -42 17
-81 33 -87 36 -5 4 -14 7 -20 8 -5 1 -41 12 -80 25 -38 13 -74 22 -78 21 -4
-1 -17 2 -27 8 -11 6 -37 13 -57 15 -21 3 -58 9 -83 14 -25 5 -66 12 -90 16
-47 7 -406 16 -412 10z"/>
</g>
</svg>
