<?xml version="1.0" encoding="utf-8"?>
<!-- Generator: Adobe Illustrator 24.0.1, SVG Export Plug-In . SVG Version: 6.00 Build 0)  -->
<svg version="1.1" id="Layer_1" xmlns="http://www.w3.org/2000/svg" xmlns:xlink="http://www.w3.org/1999/xlink" x="0px" y="0px"
	 viewBox="0 0 141.7 141.7" style="enable-background:new 0 0 141.7 141.7;" xml:space="preserve">
<style type="text/css">
	.st0{fill:#008894;}
</style>
<g>
	<path d="M93.2,76.8c-3.2,0-5.8,2.6-5.8,5.8c0,3.2,2.6,5.8,5.8,5.8c3.2,0,5.8-2.6,5.8-5.8C98.9,79.3,96.3,76.8,93.2,76.8z
		 M93.2,86.1c-2,0-3.5-1.6-3.5-3.5c0-2,1.6-3.5,3.5-3.5c2,0,3.5,1.6,3.5,3.5C96.7,84.5,95.1,86.1,93.2,86.1z"/>
	<path d="M112.6,68.2c0,0-0.1,0-0.1,0h-0.1V54.6c0-7.9-6.5-14.4-14.4-14.4h-2.6l-2-3.5c-0.4-0.8-1.4-1-2.2-0.6l-6.6,3.7L79.9,32
		c-0.5-0.8-1.4-1-2.2-0.5l-14.6,8.8H38.6c-7.9,0-14.4,6.5-14.4,14.4v41.5c0,7.9,6.5,14.4,14.4,14.4h59.3c7.7,0,14-6.1,14.4-13.6h0.1
		c0,0,0.1,0,0.1,0c2.8-0.1,5-2.4,5-5.2V73.3C117.5,70.6,115.3,68.3,112.6,68.2z M97.9,43.4c6.2,0,11.2,5,11.2,11.2V59
		c-1.3-1.4-3-2.5-4.9-3.1l-7.1-12.6H97.9z M91.4,39.7l8.9,15.8H63.5L91.4,39.7z M78,35l3.8,6.4L57,55.4c0,0,0,0,0,0H43.9L78,35z
		 M37.9,55.3c-2.7-0.6-4.8-3-4.8-5.9c0-3.3,2.7-6,6-6h18.6L37.9,55.3z M97.9,107.4H38.6c-6.2,0-11.2-5-11.2-11.2V54.6
		c0-2.9,1.1-5.6,2.9-7.6c-0.2,0.7-0.3,1.5-0.3,2.3c0,5.1,4.1,9.2,9.2,9.2h61.6c4.6,0,8.3,3.7,8.3,8.3v1.2H93
		c-7.9,0-14.4,6.4-14.4,14.4c0,7.9,6.4,14.4,14.4,14.4h16.2C108.7,102.7,103.9,107.4,97.9,107.4z M114.4,91.7c0,1.1-0.9,2-2,2
		c0,0,0,0-0.1,0H93c-6.2,0-11.2-5-11.2-11.2c0-6.2,5-11.2,11.2-11.2h17.5c0.1,0,0.2,0,0.2,0c0.1,0,0.2,0,0.2,0h1.3c0,0,0,0,0.1,0
		c1.1,0,2,0.9,2,2V91.7z"/>
</g>
<path d="M74.2,52.6l16.1-9.1l5.1,9.1H74.2z M54.1,52.6l22.9-13.8l0.9,1.5L56.3,52.6l-0.4,0H54.1z"/>
<path class="st0" d="M38.6,102.5c-3.1,0-5.6-2.5-5.6-5.6V63.7c1.9,0.9,4,1.3,6.2,1.3h45.5C77.8,68.3,73,75.2,73,83.3
	c0,9,6,16.7,14.2,19.2H38.6z"/>
</svg>
