<?xml version="1.0" encoding="utf-8"?>
<!-- Generator: Adobe Illustrator 24.0.1, SVG Export Plug-In . SVG Version: 6.00 Build 0)  -->
<svg version="1.1" id="Layer_1" xmlns="http://www.w3.org/2000/svg" xmlns:xlink="http://www.w3.org/1999/xlink" x="0px" y="0px"
	 viewBox="0 0 141.7 141.7" style="enable-background:new 0 0 141.7 141.7;" xml:space="preserve">
<style type="text/css">
	.st0{fill:#FFFFFF;stroke:#1F1F19;stroke-width:3.3118;stroke-linecap:round;stroke-linejoin:round;stroke-miterlimit:10;}
	.st1{fill:#1F1F19;}
	.st2{fill:#FFFFFF;}
	.st3{fill:#008F97;}
	.st4{fill:#F9A464;}
</style>
<g>
	<g>
		<g>
			<path class="st0" d="M93.5,90.4"/>
		</g>
		<g>
			<path class="st1" d="M118.9,66.6h-3.3c0-1.6-0.2-3.1-0.5-4.7l0,0l3.2-0.7l0,0C118.8,63,118.9,64.8,118.9,66.6L118.9,66.6z
				 M113.5,57L113.5,57c-0.7-1.5-1.6-2.8-2.6-4.1l0,0l0,0l2.6-2l0,0c1.1,1.5,2.1,3,2.9,4.7l0,0L113.5,57z M107.3,49.2L107.3,49.2
				c-1.3-1-2.7-1.9-4.1-2.6l0,0l1.5-3l0,0c1.7,0.8,3.2,1.8,4.7,3l0,0L107.3,49.2z M98.3,44.9L98.3,44.9c-1.6-0.3-3.2-0.5-4.8-0.5
				l0,0v-3.3c1.9,0,3.7,0.2,5.5,0.6l0,0L98.3,44.9z"/>
		</g>
		<g>
			<path class="st1" d="M62.3,118L62.3,118c-1.9,0-3.7-0.2-5.5-0.6l0,0l0.7-3.2l0,0c1.6,0.3,3.2,0.5,4.8,0.5l0,0V118z M51.1,115.4
				L51.1,115.4c-1.7-0.8-3.3-1.8-4.7-3l0,0l2.1-2.6l0,0c1.3,1,2.6,1.9,4.1,2.6l0,0L51.1,115.4z M42.2,108.2L42.2,108.2
				c-1.2-1.5-2.1-3.1-2.9-4.7l0,0l3-1.4l0,0c0.7,1.5,1.6,2.8,2.6,4.1l0,0l0,0L42.2,108.2z M37.3,97.9L37.3,97.9
				c-0.4-1.8-0.6-3.6-0.6-5.4l0,0H40c0,1.6,0.2,3.1,0.5,4.7l0,0L37.3,97.9z"/>
		</g>
		<g>
			<path class="st0" d="M69.6,66.6"/>
		</g>
		<g>
			<path class="st2" d="M88.1,59.3V47.2H75.3c-0.5-1.9-1.3-3.7-2.2-5.4l9.1-9.1l-8.6-8.6l-9.1,9.1c-1.7-1-3.5-1.7-5.3-2.2V18.1H47.1
				v12.8c-1.9,0.5-3.7,1.2-5.4,2.2l-9-9.1l-8.6,8.6l9,9.1c-1,1.7-1.7,3.5-2.2,5.3H18.1v12.1h12.8c0.5,1.9,1.3,3.7,2.2,5.4l-9.1,9
				l8.6,8.6l9-9.1c1.7,1,3.5,1.7,5.3,2.2v12.9H59V75.4c1.9-0.5,3.7-1.3,5.4-2.2l9.1,9.1l8.6-8.6L73,64.6c1-1.7,1.7-3.5,2.2-5.3H88.1
				z"/>
			<path class="st1" d="M59.1,89.8H46.9c-0.9,0-1.7-0.7-1.7-1.7V76.5c-1.2-0.4-2.3-0.9-3.4-1.4l-8.2,8.2c-0.3,0.3-0.7,0.5-1.2,0.5
				c-0.4,0-0.9-0.2-1.2-0.5l-8.6-8.6c-0.3-0.3-0.5-0.7-0.5-1.2c0-0.4,0.2-0.9,0.5-1.2l8.2-8.2c-0.6-1.1-1-2.2-1.4-3.4H18.1
				c-0.9,0-1.7-0.7-1.7-1.7V47c0-0.9,0.7-1.7,1.7-1.7h11.6c0.4-1.2,0.9-2.3,1.4-3.4l-8.2-8.2c-0.3-0.3-0.5-0.7-0.5-1.2
				c0-0.4,0.2-0.9,0.5-1.2l8.6-8.6c0.6-0.6,1.7-0.6,2.3,0l8.2,8.2c1.1-0.5,2.2-1,3.4-1.4V18.1c0-0.9,0.7-1.7,1.7-1.7h12.1
				c0.9,0,1.7,0.7,1.7,1.7v11.6c1.2,0.4,2.3,0.9,3.4,1.4l8.2-8.2c0.3-0.3,0.7-0.5,1.2-0.5c0.4,0,0.9,0.2,1.2,0.5l8.6,8.6
				c0.3,0.3,0.5,0.7,0.5,1.2c0,0.4-0.2,0.9-0.5,1.2l-8.2,8.2c0.6,1.1,1,2.2,1.4,3.4h11.6c0.9,0,1.7,0.7,1.7,1.7v12.1
				c0,0.9-0.7,1.7-1.7,1.7H76.5c-0.4,1.2-0.9,2.3-1.4,3.4l8.2,8.2c0.6,0.6,0.6,1.7,0,2.3l-8.6,8.6c-0.6,0.6-1.7,0.6-2.3,0l-8.2-8.2
				c-1.1,0.5-2.2,1-3.4,1.4v11.6C60.7,89.1,60,89.8,59.1,89.8z M48.6,86.5h8.8V75.4c0-0.7,0.5-1.4,1.2-1.6c1.7-0.5,3.4-1.1,5-2
				c0.6-0.4,1.5-0.3,2,0.3l7.9,7.9l6.2-6.2l-7.9-7.9c-0.5-0.5-0.6-1.4-0.3-2c0.9-1.6,1.6-3.2,2.1-5c0.2-0.7,0.9-1.2,1.6-1.2h11.2
				v-8.8H75.3c-0.7,0-1.4-0.5-1.6-1.2c-0.5-1.7-1.2-3.4-2-5c-0.4-0.6-0.3-1.5,0.3-2l7.9-7.9l-6.2-6.2l-7.9,7.9
				c-0.5,0.5-1.4,0.6-2,0.3c-1.6-0.9-3.2-1.6-5-2.1c-0.7-0.2-1.2-0.9-1.2-1.6V19.7h-8.8v11.1c0,0.7-0.5,1.4-1.2,1.6
				c-1.7,0.5-3.4,1.1-5,2c-0.6,0.4-1.5,0.3-2-0.3l-7.9-7.9l-6.2,6.2l7.9,7.9c0.5,0.5,0.6,1.3,0.3,2c-0.9,1.6-1.6,3.2-2.1,5
				c-0.2,0.7-0.9,1.2-1.6,1.2H19.7v8.8h11.1c0.7,0,1.4,0.5,1.6,1.2c0.5,1.7,1.2,3.4,2,5c0.4,0.6,0.3,1.5-0.3,2l-7.9,7.9l6.2,6.2
				l7.9-7.9c0.5-0.5,1.4-0.6,2-0.3c1.6,0.9,3.2,1.6,5,2.1c0.7,0.2,1.2,0.9,1.2,1.6L48.6,86.5L48.6,86.5z"/>
		</g>
		<g>
			<path class="st3" d="M72.6,56.5v-6.7h-7.1c-0.3-1.1-0.7-2.1-1.2-3l5.1-5.1L64.5,37l-5,5c-0.9-0.5-1.9-1-3-1.3v-7.2h-6.7v7.1
				c-1.1,0.3-2.1,0.7-3,1.2l-5.1-5.1l-4.7,5l5,5c-0.5,0.9-1,1.9-1.2,3h-7.2v6.7h7.1c0.3,1.1,0.7,2.1,1.2,3l-5.1,5.1l4.8,4.8l5-5
				c0.9,0.5,1.9,1,3,1.3v7.2h6.7v-7.1c1.1-0.3,2.1-0.7,3-1.2l5.1,5.1l4.8-4.8l-5-5c0.5-0.9,1-1.9,1.3-3h7.1V56.5z M53.1,60.1
				c-3.9,0-7-3.1-7-7s3.1-7,7-7s7,3.1,7,7S57,60.1,53.1,60.1z"/>
		</g>
		<g>
			<path class="st2" d="M123.7,105v-7.9h-8.3c-0.3-1.2-0.8-2.4-1.4-3.5l5.9-5.9l-5.5-5.6l-5.9,5.9c-1.1-0.6-2.2-1.1-3.5-1.5v-8.3
				h-7.8v8.3c-1.2,0.3-2.4,0.8-3.5,1.4L87.8,82l-5.6,5.5l5.9,5.9c-0.6,1.1-1.1,2.2-1.5,3.5h-8.3v7.8h8.3c0.3,1.2,0.8,2.4,1.4,3.5
				l-5.9,5.9l5.6,5.6l5.9-5.9c1.1,0.6,2.2,1.1,3.5,1.5v8.3h7.8v-8.3c1.2-0.3,2.4-0.8,3.5-1.4l5.9,5.9l5.6-5.5l-5.9-5.9
				c0.6-1.1,1.1-2.2,1.5-3.5L123.7,105L123.7,105z M101,109.1c-4.5,0-8.2-3.6-8.2-8.1s3.7-8.2,8.2-8.2"/>
			<path class="st1" d="M104.8,125.3H97c-0.9,0-1.7-0.7-1.7-1.7v-7.1c-0.5-0.2-1-0.4-1.5-0.6l-5,5c-0.6,0.6-1.7,0.6-2.3,0l-5.5-5.6
				c-0.6-0.6-0.6-1.7,0-2.3l5-5c-0.2-0.5-0.4-1-0.6-1.5h-7.1c-0.9,0-1.7-0.7-1.7-1.7V97c0-0.9,0.7-1.7,1.7-1.7h7.1
				c0.2-0.5,0.4-1,0.6-1.5l-5-5c-0.6-0.6-0.6-1.7,0-2.3l5.5-5.5c0.3-0.3,0.7-0.5,1.2-0.5l0,0c0.4,0,0.9,0.2,1.2,0.5l5,5
				c0.5-0.2,1-0.4,1.5-0.6v-7.1c0-0.9,0.7-1.7,1.7-1.7h7.8c0.9,0,1.7,0.7,1.7,1.7v7.1c0.5,0.2,1,0.4,1.5,0.6l5-5
				c0.6-0.6,1.7-0.6,2.3,0l5.6,5.6c0.6,0.6,0.6,1.7,0,2.3l-5,5c0.2,0.5,0.4,1,0.6,1.5h7.1c0.9,0,1.7,0.7,1.7,1.7v7.9
				c0,0.9-0.7,1.7-1.7,1.7h-7.1c-0.2,0.5-0.4,1-0.6,1.5l5,5c0.6,0.6,0.6,1.7,0,2.3l-5.6,5.6c-0.6,0.6-1.7,0.6-2.3,0l-5-5
				c-0.5,0.2-1,0.4-1.5,0.6v7.1C106.5,124.6,105.8,125.3,104.8,125.3z M98.6,122h4.5v-6.6c0-0.7,0.5-1.4,1.2-1.6
				c1.1-0.3,2.1-0.7,3.1-1.3c0.6-0.4,1.5-0.3,2,0.3l4.7,4.7l3.2-3.2l-4.7-4.7c-0.5-0.5-0.6-1.3-0.3-2c0.6-1,1-2,1.3-3.1
				c0.2-0.7,0.9-1.2,1.6-1.2h6.7v-4.5h-6.6c-0.7,0-1.4-0.5-1.6-1.2c-0.3-1.1-0.7-2.1-1.3-3.1c-0.4-0.6-0.3-1.5,0.3-2l4.7-4.7
				l-3.2-3.2l-4.7,4.7c-0.5,0.5-1.3,0.6-2,0.3c-1-0.6-2-1-3.1-1.3c-0.7-0.2-1.2-0.8-1.2-1.6V80h-4.5v6.6c0,0.7-0.5,1.4-1.2,1.6
				c-1.1,0.3-2.1,0.7-3.1,1.3c-0.6,0.4-1.5,0.3-2-0.3l-4.7-4.7l-3.2,3.2l4.7,4.7c0.5,0.5,0.6,1.3,0.3,2c-0.6,1-1,2-1.3,3.1
				c-0.2,0.7-0.9,1.2-1.6,1.2H80v4.5h6.6c0.7,0,1.4,0.5,1.6,1.2c0.3,1.1,0.7,2.1,1.3,3.1c0.4,0.6,0.3,1.5-0.3,2l-4.7,4.7l3.2,3.2
				l4.7-4.7c0.5-0.5,1.4-0.6,2-0.3c1,0.6,2,1,3.1,1.3c0.7,0.2,1.2,0.9,1.2,1.6L98.6,122L98.6,122z M101,110.8
				c-5.4,0-9.8-4.4-9.8-9.8s4.4-9.8,9.8-9.8c0.9,0,1.7,0.7,1.7,1.7c0,0.9-0.7,1.7-1.7,1.7c-3.6,0-6.5,2.9-6.5,6.5s2.9,6.5,6.5,6.5
				c0.9,0,1.7,0.7,1.7,1.7C102.6,110,101.9,110.8,101,110.8z"/>
		</g>
	</g>
	<g>
		<path class="st4" d="M114.4,103v-4h-4.1c-0.2-0.6-0.4-1.2-0.7-1.7l2.9-3l-2.8-2.8l-2.9,2.9c-0.5-0.3-1.1-0.6-1.7-0.7v-4.2h-2.2
			v7.3c0.1,0,0.2,0,0.2,0c2.3,0,4.1,1.8,4.1,4.1c0,2.3-1.8,4.1-4.1,4.1c-0.1,0-0.2,0-0.2,0v7.3h2.2v-4.1c0.6-0.2,1.2-0.4,1.7-0.7
			l2.9,2.9l2.8-2.8l-2.9-2.9c0.3-0.5,0.6-1.1,0.7-1.7L114.4,103L114.4,103z"/>
	</g>
</g>
</svg>
