<?xml version="1.0" encoding="utf-8"?>
<!-- Generator: Adobe Illustrator 24.0.1, SVG Export Plug-In . SVG Version: 6.00 Build 0)  -->
<svg version="1.1" id="Layer_1" xmlns="http://www.w3.org/2000/svg" xmlns:xlink="http://www.w3.org/1999/xlink" x="0px" y="0px"
	 viewBox="0 0 141.7 141.7" style="enable-background:new 0 0 141.7 141.7;" xml:space="preserve">
<style type="text/css">
	.st0{fill:#27251E;}
	.st1{fill:#F5A65F;}
	.st2{fill:#FFFFFF;}
</style>
<g>
	<g>
		<path class="st0" d="M43.6,96.1"/>
	</g>
	<g>
		<path class="st0" d="M42.8,97.5c-1.8-1-3.5-2.1-5.2-3.4l1.9-2.5c1.5,1.2,3.1,2.2,4.8,3.1L42.8,97.5z"/>
	</g>
	<g>
		<path class="st0" d="M33,89.8l0.9-1.3l0,0l-1.1,1.1c-1.4-1.5-2.7-3.1-3.9-4.8l2.6-1.8c1.1,1.5,2.3,3,3.6,4.4l0,0l0.2,0.2l-1.3,0.9
			L33,89.8z M25.6,79.3l-0.1-0.2l0,0c-0.9-1.9-1.6-3.8-2.2-5.8l3-0.9c0.6,1.8,1.2,3.6,2.1,5.3l-1.4,0.7l0,0L25.6,79.3z M21.9,67
			l1.5-0.4h0l-1.5,0.2c-0.2-1.8-0.4-3.7-0.4-5.5c0-0.2,0-0.5,0-0.7l3.2,0c0,0.2,0,0.4,0,0.6c0,1.7,0.1,3.4,0.3,5.1l0,0l0,0.2h-1.6
			L21.9,67z M25.2,54.8l-1.5-0.5l-1.6,0h1.6l0,0L22.1,54c0.4-2,0.9-4,1.5-6l3,1c-0.6,1.8-1.1,3.6-1.4,5.5l0,0L25.2,54.8z M29,43.6
			l-1.3-0.9l-1.5-0.5l1.5,0.5l0,0L26.3,42c1-1.8,2.1-3.6,3.3-5.2l2.6,1.9c-1.1,1.5-2.2,3.1-3,4.8l0,0L29,43.6z M35.9,34.2l-0.9-1.3
			L33.7,32l1.3,0.9l0,0L34,31.7c1.5-1.4,3.1-2.8,4.7-4l1.9,2.6c-1.5,1.1-3,2.3-4.4,3.7l0,0L35.9,34.2z M84.9,30.4
			c-1.5-1.1-3.2-2.1-4.9-3l0,0l-0.2-0.1l0.9-1.3l0.5-1.5L80.8,26l0,0l0.7-1.4c1.8,0.9,3.6,2,5.3,3.2L84.9,30.4z M45.8,27.2l-0.7-1.4
			l0,0l-0.9-1.3l0.2-0.1l0,0c1.8-0.9,3.8-1.7,5.7-2.3l1,3C49.3,25.6,47.5,26.4,45.8,27.2z M74.4,25.1c-1.8-0.6-3.7-1-5.5-1.3l0,0
			l-0.3,0l0.5-1.5l0-1.6v1.6v0l0.3-1.5c2,0.3,4,0.8,6,1.4L74.4,25.1z M57.1,23.7l-0.2-1.6l0,0l0,0v0l-0.5-1.5l0.3,0l0,0
			c2-0.3,4.1-0.5,6.1-0.5c0,0,0,0,0,0h0v3.2h0c0,0,0,0,0,0C60.8,23.3,58.9,23.4,57.1,23.7z"/>
	</g>
	<g>
		<path class="st0" d="M90.7,33.3"/>
	</g>
</g>
<g>
	<path class="st1" d="M38.4,93.7l4.9,4.9l17.9-17.9c-5.6-5.6-5.6-14.6,0-20.1c5.6-5.6,14.6-5.6,20.1,0l17.9-17.9l-4.8-4.8L84.4,48
		c-1.9-1.1-4-2-6-2.5V30.9H64.6v14.5c-2.1,0.6-4.1,1.4-6.1,2.5L48.3,37.6l-9.7,9.7l10.2,10.2c-1.1,1.9-2,4-2.5,6.1H31.7v13.7l14.5,0
		c0.6,2.1,1.4,4.1,2.5,6.1L38.4,93.7z"/>
</g>
<g>
	<g>
		<path class="st2" d="M66.1,97.8c-2.9,3-7.7,3-10.7,0l0,0c-2.9-2.9-2.9-7.7,0-10.7l28.8-28.8c3-2.9,7.7-2.9,10.7,0l0,0
			c2.9,3,2.9,7.7,0,10.7L66.1,97.8z"/>
		<path class="st0" d="M60.8,101.6c-2.4,0-4.7-0.9-6.5-2.7c-1.7-1.7-2.7-4-2.7-6.5c0-2.4,1-4.7,2.7-6.5l28.8-28.8
			c1.7-1.7,4-2.7,6.5-2.7c2.4,0,4.7,1,6.5,2.7c3.6,3.6,3.6,9.4,0,12.9L67.2,98.9C65.5,100.7,63.2,101.6,60.8,101.6z M89.5,57.7
			c-1.6,0-3.1,0.6-4.2,1.7L56.5,88.2c-1.1,1.1-1.7,2.6-1.7,4.2c0,1.6,0.6,3.1,1.7,4.2c1.1,1.1,2.6,1.7,4.2,1.7
			c1.6,0,3.1-0.6,4.2-1.7l28.8-28.8c2.3-2.3,2.3-6.1,0-8.4C92.6,58.4,91.1,57.7,89.5,57.7z"/>
	</g>
	<g>
		<path class="st2" d="M118.3,63.4c-7.9,7.9-20.6,7.9-28.5,0c-7.9-7.9-7.9-20.6,0-28.5c4.3-4.3,10.1-6.3,15.8-5.8l-4.3,4.4
			c-2.6,2.6-3.8,5.9-3.8,9.3c0,3.4,1.3,6.7,3.8,9.3c5.1,5.1,13.4,5.1,18.6,0l4.4-4.4C124.5,53.3,122.6,59.1,118.3,63.4z"/>
		<path class="st0" d="M104,70.9c-5.8,0-11.3-2.3-15.4-6.4c-8.5-8.5-8.5-22.3,0-30.8c4.1-4.1,9.6-6.4,15.4-6.4c0.5,0,1.1,0,1.6,0.1
			c0.6,0,1.2,0.4,1.4,1c0.2,0.6,0.1,1.2-0.4,1.7l-4.4,4.3c-2.2,2.2-3.4,5.1-3.4,8.2c0,3.1,1.2,6,3.4,8.2c2.2,2.2,5.1,3.4,8.2,3.4
			c3.1,0,6-1.2,8.2-3.4l4.4-4.4c0.4-0.4,1.1-0.6,1.7-0.4c0.6,0.2,1,0.8,1,1.4c0.5,6.3-1.8,12.5-6.3,17
			C115.3,68.7,109.8,70.9,104,70.9z M101.6,30.8c-4,0.5-7.8,2.4-10.7,5.3c-7.2,7.2-7.2,19,0,26.3c3.5,3.5,8.2,5.4,13.1,5.4
			c5,0,9.6-1.9,13.1-5.4c2.9-2.9,4.8-6.7,5.3-10.7l-1.5,1.5c-2.8,2.8-6.5,4.3-10.4,4.3c-3.9,0-7.6-1.5-10.4-4.3
			c-2.8-2.8-4.3-6.5-4.3-10.4c0-3.9,1.5-7.6,4.3-10.4L101.6,30.8z"/>
	</g>
	<g>
		<path class="st2" d="M36,88.7c7.9-7.9,20.6-7.9,28.5,0s7.9,20.6,0,28.5c-4.3,4.3-10.1,6.3-15.8,5.8l4.4-4.4
			c2.6-2.6,3.9-5.9,3.9-9.3c0-3.4-1.3-6.7-3.9-9.3c-5.1-5.1-13.4-5.1-18.6,0l-4.4,4.4C29.8,98.8,31.7,93,36,88.7z"/>
		<path class="st0" d="M50.3,124.7c-0.5,0-1.1,0-1.6-0.1c-0.6,0-1.2-0.4-1.4-1c-0.2-0.6-0.1-1.2,0.4-1.7l4.4-4.4
			c2.2-2.2,3.4-5.1,3.4-8.2c0-3.1-1.2-6-3.4-8.2c-2.2-2.2-5.1-3.4-8.2-3.4c-3.1,0-6,1.2-8.2,3.4l-4.4,4.4c-0.4,0.4-1.1,0.6-1.7,0.4
			c-0.6-0.2-1-0.8-1-1.4c-0.5-6.3,1.8-12.5,6.3-17c4.1-4.1,9.6-6.4,15.4-6.4c5.8,0,11.3,2.3,15.4,6.4c8.5,8.5,8.5,22.3,0,30.8
			C61.6,122.4,56.1,124.7,50.3,124.7z M43.8,94.7c3.9,0,7.6,1.5,10.4,4.3c2.8,2.8,4.3,6.5,4.3,10.4c0,3.9-1.5,7.6-4.3,10.4l-1.5,1.5
			c4-0.5,7.8-2.4,10.7-5.3c7.2-7.2,7.2-19,0-26.3c-3.5-3.5-8.2-5.4-13.1-5.4c-5,0-9.6,1.9-13.1,5.4c-2.9,2.9-4.8,6.7-5.3,10.7
			l1.5-1.5C36.2,96.2,39.9,94.7,43.8,94.7z"/>
	</g>
</g>
</svg>
