<?xml version="1.0" encoding="utf-8"?>
<!-- Generator: Adobe Illustrator 24.0.1, SVG Export Plug-In . SVG Version: 6.00 Build 0)  -->
<svg version="1.1" id="Layer_1" xmlns="http://www.w3.org/2000/svg" xmlns:xlink="http://www.w3.org/1999/xlink" x="0px" y="0px"
	 viewBox="0 0 141.7 141.7" style="enable-background:new 0 0 141.7 141.7;" xml:space="preserve">
<style type="text/css">
	.st0{fill:#FFFFFF;}
	.st1{fill:#27251E;}
	.st2{fill:#F5A65F;}
	.st3{fill:#008894;}
</style>
<g>
	<g>
		<g>
			<g>
				<rect x="17.2" y="46.9" class="st0" width="77.6" height="63.3"/>
				<path class="st1" d="M94.9,111.9H17.2c-1,0-1.8-0.8-1.8-1.8V46.9c0-1,0.8-1.8,1.8-1.8h77.6c1,0,1.8,0.8,1.8,1.8v63.3
					C96.6,111.1,95.8,111.9,94.9,111.9z M19,108.4h74.1V48.6H19V108.4z"/>
			</g>
			<g>
				<rect x="24.3" y="65.9" class="st2" width="64.3" height="37.6"/>
			</g>
		</g>
	</g>
	<g>
		<rect x="31.4" y="72.1" class="st0" width="49.8" height="8.6"/>
	</g>
	<g>
		<rect x="31.4" y="84.7" class="st0" width="12.9" height="5.8"/>
	</g>
	<g>
		<rect x="50" y="84.7" class="st0" width="12.9" height="5.8"/>
	</g>
	<g>
		<rect x="68.3" y="84.7" class="st0" width="12.9" height="5.8"/>
	</g>
	<g>
		<rect x="24.3" y="54.8" class="st2" width="64.3" height="7"/>
	</g>
	<g>
		<path class="st0" d="M104.7,26.7c-14.1,0-25.5,11.4-25.5,25.5c0,2.6,0.4,5.1,1.1,7.5h0v18h23.5l0,0c0.3,0,0.6,0,0.9,0
			c14.1,0,25.5-11.4,25.5-25.5C130.1,38.1,118.7,26.7,104.7,26.7z"/>
		<path class="st1" d="M104.7,79.4c-0.2,0-0.4,0-0.6,0c-0.1,0-0.1,0-0.2,0c0,0,0,0,0,0H80.3c-1,0-1.8-0.8-1.8-1.8V59.9
			c-0.7-2.5-1.1-5.1-1.1-7.7c0-15,12.2-27.2,27.2-27.2s27.2,12.2,27.2,27.2C131.9,67.2,119.7,79.4,104.7,79.4z M103.8,75.8
			C103.8,75.8,103.8,75.8,103.8,75.8c0.3,0,0.6,0,0.9,0c13.1,0,23.7-10.6,23.7-23.7c0-13.1-10.6-23.7-23.7-23.7
			C91.6,28.5,81,39.1,81,52.2c0,2.4,0.3,4.7,1,7c0.1,0.2,0.1,0.4,0.1,0.6v16.1h21.4C103.6,75.8,103.7,75.8,103.8,75.8z"/>
	</g>
	<g>
		<path class="st3" d="M104.7,32.4c-10.9,0-19.8,8.9-19.8,19.8c0,2,0.3,4,0.9,5.8l0,0v14H104l0,0c0.2,0,0.5,0,0.7,0
			c10.9,0,19.8-8.9,19.8-19.8C124.5,41.2,115.6,32.4,104.7,32.4z"/>
	</g>
</g>
<g>
	<g>
		<path class="st3" d="M119.9,52.2c0,2.7-0.7,5.2-1.9,7.4c-2.2,3.9-6,6.7-10.5,7.6c-0.9,0.2-1.8,0.3-2.8,0.3c-0.8,0-1.7-0.1-2.5-0.2
			c-4.7-0.8-8.6-3.7-10.8-7.6c-1.2-2.2-1.9-4.7-1.9-7.4c0-2.7,0.7-5.2,1.9-7.4c2.2-4,6.2-6.9,10.8-7.6c0.8-0.1,1.6-0.2,2.5-0.2
			c1,0,1.9,0.1,2.8,0.3c4.5,0.8,8.3,3.7,10.5,7.6C119.2,47,119.9,49.5,119.9,52.2z"/>
		<path class="st0" d="M104.7,68.5c-0.9,0-1.8-0.1-2.7-0.2c-4.9-0.8-9.2-3.9-11.6-8.2c-1.3-2.4-2-5.1-2-7.9c0-2.8,0.7-5.5,2-7.9
			c2.4-4.4,6.7-7.4,11.6-8.2c1.8-0.3,3.8-0.3,5.7,0.1c4.8,0.9,8.9,3.9,11.3,8.1c1.3,2.4,2,5.1,2,7.9c0,2.8-0.7,5.5-2.1,7.9
			c-2.4,4.3-6.5,7.2-11.3,8.1C106.7,68.4,105.7,68.5,104.7,68.5z M104.7,38.1c-0.8,0-1.6,0.1-2.3,0.2c-4.3,0.7-7.9,3.3-10,7.1
			c-1.2,2.1-1.8,4.4-1.8,6.8c0,2.4,0.6,4.7,1.8,6.8c2.1,3.7,5.8,6.4,10,7.1c1.6,0.3,3.3,0.2,4.9,0c4.1-0.8,7.7-3.3,9.7-7
			c1.2-2.1,1.8-4.5,1.8-6.8c0-2.4-0.6-4.7-1.8-6.8c-2.1-3.7-5.6-6.3-9.7-7C106.4,38.2,105.5,38.1,104.7,38.1z"/>
	</g>
	<g>
		<path class="st3" d="M114.9,52.2c0,2.1-0.4,4.1-1.2,5.9c-1.6,3.8-4.8,6.9-8.7,8.3c-0.9,0.3-1.8,0.6-2.8,0.7
			c-4.7-0.8-8.6-3.7-10.8-7.6c-1.2-2.2-1.9-4.7-1.9-7.4c0-2.7,0.7-5.2,1.9-7.4c2.2-4,6.2-6.9,10.8-7.6c1,0.2,1.9,0.4,2.8,0.7
			c3.9,1.5,7.1,4.5,8.7,8.3C114.5,48.1,114.9,50.1,114.9,52.2z"/>
		<path class="st0" d="M102.2,68.3l-0.2,0c-4.9-0.8-9.2-3.9-11.6-8.2c-1.3-2.4-2-5.1-2-7.9c0-2.8,0.7-5.5,2-7.9
			c2.4-4.4,6.7-7.4,11.6-8.2l0.2,0l0.2,0c1,0.2,2,0.4,3,0.8c4.2,1.6,7.6,4.8,9.4,9c0.8,2,1.3,4.1,1.3,6.3c0,2.2-0.4,4.3-1.3,6.4
			c-1.8,4.1-5.2,7.4-9.3,8.9c-1,0.4-2,0.6-3,0.8L102.2,68.3z M102.2,38.3c-4.2,0.7-7.8,3.3-9.8,7c-1.2,2.1-1.8,4.4-1.8,6.8
			c0,2.4,0.6,4.7,1.8,6.8c2,3.7,5.7,6.3,9.9,7.1c0.8-0.1,1.6-0.4,2.4-0.7c3.6-1.3,6.6-4.2,8.1-7.7c0.7-1.7,1.1-3.6,1.1-5.5
			c0-1.9-0.4-3.8-1.1-5.5c-1.5-3.6-4.5-6.4-8.1-7.7C103.8,38.7,103,38.4,102.2,38.3z"/>
	</g>
	<g>
		<path class="st0" d="M107.5,68.2l-0.2,0c-0.9-0.2-1.8-0.4-2.7-0.7c-4.3-1.6-7.7-4.9-9.4-9.1c-0.8-2-1.2-4.1-1.2-6.2
			c0-2.2,0.4-4.3,1.2-6.2c1.7-4.2,5.2-7.5,9.4-9.1c0.9-0.3,1.8-0.6,2.7-0.7l0.2,0l0.2,0c4.8,0.9,8.9,3.9,11.3,8.1
			c1.3,2.4,2,5.1,2,7.9c0,2.8-0.7,5.5-2.1,7.9c-2.4,4.3-6.5,7.2-11.3,8.1L107.5,68.2z M107.5,38.3c-0.7,0.1-1.4,0.3-2.1,0.6
			c-3.7,1.4-6.6,4.2-8.1,7.8c-0.7,1.7-1.1,3.5-1.1,5.4c0,1.9,0.4,3.7,1.1,5.4c1.5,3.6,4.5,6.5,8.1,7.9c0.7,0.3,1.4,0.4,2.1,0.6
			c4-0.8,7.5-3.3,9.5-7c1.2-2.1,1.8-4.5,1.8-6.8c0-2.4-0.6-4.7-1.8-6.8C115,41.7,111.5,39.2,107.5,38.3z"/>
	</g>
	<g>
		<g>
			<path class="st0" d="M104.7,48.3c-3.1,0-6.1-0.3-8.7-0.9c-2-0.4-3.7-1-5.1-1.7l-1.1-0.5l0.6-1c2.4-4.4,6.7-7.4,11.6-8.2
				c1.8-0.3,3.8-0.3,5.7,0.1c4.8,0.9,8.9,3.9,11.3,8.1l0.6,1l-1.1,0.5c-1.3,0.6-2.8,1.1-4.5,1.5C111.2,48,108,48.3,104.7,48.3z
				 M93,44.3c1,0.4,2.2,0.7,3.5,1c2.5,0.5,5.3,0.8,8.3,0.8c3.1,0,6.1-0.3,8.8-0.9c1.1-0.3,2-0.5,2.9-0.9c-2.1-3.1-5.4-5.3-9.1-6
				c-1.6-0.3-3.3-0.3-4.9-0.1C98.5,38.9,95.1,41.1,93,44.3z"/>
		</g>
		<g>
			<path class="st0" d="M104.7,68.5c-0.9,0-1.8-0.1-2.7-0.2c-4.9-0.8-9.2-3.9-11.6-8.2l-0.6-1l1.1-0.5c1.4-0.7,3.1-1.2,5.1-1.7
				c2.6-0.6,5.6-0.9,8.6-0.9c3.3,0,6.6,0.4,9.3,1c1.7,0.4,3.2,0.9,4.5,1.5l1.1,0.5l-0.6,1c-2.4,4.3-6.5,7.2-11.3,8.1
				C106.7,68.4,105.7,68.5,104.7,68.5z M93,60c2.2,3.2,5.6,5.4,9.4,6c1.6,0.3,3.3,0.2,4.9,0c3.7-0.7,7-2.8,9.1-6
				c-0.9-0.3-1.8-0.6-2.9-0.9c-2.6-0.6-5.7-1-8.8-1c-2.9,0-5.7,0.3-8.2,0.8C95.2,59.3,94,59.7,93,60z"/>
		</g>
	</g>
</g>
</svg>
