<?xml version="1.0" encoding="utf-8"?>
<!-- Generator: Adobe Illustrator 24.0.1, SVG Export Plug-In . SVG Version: 6.00 Build 0)  -->
<svg version="1.1" id="Layer_1" xmlns="http://www.w3.org/2000/svg" xmlns:xlink="http://www.w3.org/1999/xlink" x="0px" y="0px"
	 viewBox="0 0 141.7 141.7" style="enable-background:new 0 0 141.7 141.7;" xml:space="preserve">
<style type="text/css">
	.st0{fill:#FFFFFF;}
	.st1{fill:#1F1F19;}
	.st2{fill:#F9A464;}
	.st3{fill:#008F97;}
	.st4{enable-background:new    ;}
</style>
<g>
	<g>
		<g>
			<path class="st0" d="M79.2,48.6c0,12.6-22.8,22.8-22.8,22.8S33.5,61.2,33.5,48.6s10.2-22.8,22.8-22.8C69,25.7,79.2,36,79.2,48.6z
				"/>
			<path class="st1" d="M56.3,73c-0.2,0-0.4,0-0.7-0.1c-1-0.4-23.8-10.8-23.8-24.3s11-24.5,24.4-24.5c13.5,0,24.5,11,24.5,24.5
				C80.8,62.1,58,72.5,57,72.9C56.8,73,56.6,73,56.3,73z M56.3,27.4c-11.7,0-21.2,9.5-21.2,21.2c0,10.3,17.6,19.3,21.2,21
				c3.7-1.8,21.2-10.8,21.2-21C77.6,36.9,68,27.4,56.3,27.4z"/>
		</g>
		<g>
			<path class="st0" d="M33.5,94.3c0-12.6,22.8-22.8,22.8-22.8s22.8,10.2,22.8,22.8s-10.2,22.8-22.8,22.8
				C43.7,117.1,33.5,106.9,33.5,94.3z"/>
			<path class="st1" d="M56.3,118.7c-13.5,0-24.4-11-24.4-24.5s22.8-23.9,23.8-24.3c0.4-0.2,0.9-0.2,1.3,0
				c1,0.4,23.8,10.8,23.8,24.3C80.8,107.7,69.8,118.7,56.3,118.7z M56.3,73.2C52.7,75,35.1,84,35.1,94.3c0,11.7,9.5,21.2,21.2,21.2
				s21.2-9.5,21.2-21.2C77.6,84,60,75,56.3,73.2z"/>
		</g>
		<g>
			<path class="st2" d="M40.4,94.3c0-8.8,16-16,16-16s16,7.1,16,16c0,8.8-7.1,16-16,16C47.5,110.2,40.4,103.1,40.4,94.3z"/>
		</g>
	</g>
	<g>
		<rect x="24.1" y="19.3" class="st3" width="64.4" height="9.7"/>
	</g>
	<g>
		<path class="st2" d="M71.5,51.1c0,8.4-15.2,15.2-15.2,15.2s-15.2-6.8-15.2-15.2C41.1,51.1,71.5,51.1,71.5,51.1z"/>
	</g>
	<circle class="st0" cx="74.6" cy="74.1" r="21.4"/>
	<g>
		<rect x="24.1" y="114.2" class="st3" width="64.4" height="8.2"/>
	</g>
	<g>
		<g>
			<path class="st0" d="M99.4,94.3l-5.3,5.3l-6.9-6.9c1-0.7,2-1.5,2.9-2.4s1.7-1.9,2.4-2.9L99.4,94.3z"/>
			<path class="st1" d="M94.1,101.3c-0.5,0-0.9-0.2-1.3-0.5l-6.9-6.9c-0.4-0.4-0.6-0.9-0.5-1.4c0-0.5,0.3-1,0.8-1.3
				c0.9-0.7,1.8-1.4,2.6-2.2c0.8-0.8,1.6-1.7,2.2-2.6c0.3-0.4,0.8-0.7,1.3-0.8c0.5,0,1,0.1,1.4,0.5l6.9,6.9c0.3,0.3,0.5,0.8,0.5,1.3
				s-0.2,0.9-0.5,1.3l-5.3,5.3C95,101.2,94.5,101.3,94.1,101.3z M89.9,92.8l4.2,4.2l2.8-2.8L92.6,90c-0.4,0.5-0.9,1-1.3,1.4
				C90.8,91.9,90.4,92.4,89.9,92.8z"/>
		</g>
		<g>
			
				<rect x="100.9" y="92.8" transform="matrix(0.7072 -0.707 0.707 0.7072 -43.4924 104.6996)" class="st0" width="7.5" height="24.1"/>
			<path class="st1" d="M110.5,117.8c-0.5,0-0.9-0.2-1.3-0.5l-17-17c-0.7-0.7-0.7-1.8,0-2.5l5.3-5.3c0.3-0.3,0.8-0.5,1.3-0.5
				s0.9,0.2,1.3,0.5l17,17c0.7,0.7,0.7,1.8,0,2.5l-5.3,5.3C111.5,117.6,111,117.8,110.5,117.8z M96,98.9l14.5,14.5l2.8-2.8
				L98.8,96.2L96,98.9z"/>
		</g>
		<g>
			<path class="st1" d="M74.5,98.5c-6.1,0-12.2-2.4-16.8-7c-9.3-9.3-9.3-24.3,0-33.6s24.3-9.3,33.6,0c8.2,8.2,9.3,21,2.6,30.5
				c-0.6,0.8-1.7,1-2.5,0.4s-1-1.7-0.4-2.5c5.7-8,4.7-18.9-2.2-25.9c-7.9-7.9-20.7-7.9-28.5,0c-7.9,7.9-7.9,20.7,0,28.5
				c7,7,17.8,7.9,25.9,2.2c0.8-0.6,1.9-0.4,2.5,0.4s0.4,1.9-0.4,2.5C84.1,97,79.3,98.5,74.5,98.5z"/>
		</g>
	</g>
	<g class="st4">
		<path d="M63.7,68.1L63.7,68.1L60,69.9L59.3,67l4.9-2.4h3.2v20.1h-3.7V68.1z"/>
		<path d="M88.6,74.6c0,6.5-2.5,10.5-7.3,10.5c-4.6,0-7.1-4.2-7.2-10.4c0-6.3,2.7-10.5,7.4-10.5C86.3,64.3,88.6,68.6,88.6,74.6z
			 M77.9,74.8c0,4.9,1.3,7.4,3.4,7.4c2.2,0,3.4-2.7,3.4-7.6c0-4.7-1.1-7.4-3.4-7.4C79.3,67.2,77.9,69.7,77.9,74.8z"/>
	</g>
</g>
</svg>
