<?xml version="1.0" encoding="utf-8"?>
<!-- Generator: Adobe Illustrator 24.0.1, SVG Export Plug-In . SVG Version: 6.00 Build 0)  -->
<svg version="1.1" id="Layer_1" xmlns="http://www.w3.org/2000/svg" xmlns:xlink="http://www.w3.org/1999/xlink" x="0px" y="0px"
	 viewBox="0 0 141.7 141.7" style="enable-background:new 0 0 141.7 141.7;" xml:space="preserve">
<style type="text/css">
	.st0{fill:#FFFFFF;}
	.st1{fill:#27251E;}
	.st2{fill:#008894;}
</style>
<g>
	<polyline class="st0" points="98.7,71 98.7,89.4 79.4,108.8 77.6,88.1 	"/>
	<path class="st1" d="M79.4,110.2c-0.2,0-0.3,0-0.5-0.1c-0.5-0.2-0.9-0.7-0.9-1.2l-1.8-20.7c-0.1-0.8,0.5-1.5,1.3-1.6
		c0.8-0.1,1.5,0.5,1.6,1.3l1.5,17.6l16.7-16.7V71c0-0.8,0.6-1.4,1.4-1.4c0.8,0,1.4,0.6,1.4,1.4v18.5c0,0.4-0.2,0.7-0.4,1l-19.3,19.3
		C80.1,110.1,79.8,110.2,79.4,110.2z"/>
</g>
<g>
	<polyline class="st0" points="70.1,40.7 51.6,40.7 32.3,60 52.9,61.8 	"/>
	<path class="st1" d="M52.9,63.2c0,0-0.1,0-0.1,0l-20.7-1.8c-0.6,0-1-0.4-1.2-0.9c-0.2-0.5-0.1-1.1,0.3-1.5l19.3-19.3
		c0.3-0.3,0.6-0.4,1-0.4h18.5c0.8,0,1.4,0.6,1.4,1.4c0,0.8-0.6,1.4-1.4,1.4H52.2L35.5,58.8L53,60.3c0.8,0.1,1.4,0.8,1.3,1.6
		C54.3,62.6,53.7,63.2,52.9,63.2z"/>
</g>
<g>
	<path class="st0" d="M89.9,68.4c-4.6,4.6-12.1,4.6-16.7,0c-4.6-4.6-4.6-12.1,0-16.7c4.6-4.6,12.1-4.6,16.7,0
		C94.5,56.3,94.5,63.7,89.9,68.4z"/>
	<path class="st1" d="M81.5,73.3c-3.5,0-6.9-1.4-9.4-3.9c-5.2-5.2-5.2-13.6,0-18.8c2.5-2.5,5.8-3.9,9.4-3.9c3.5,0,6.9,1.4,9.4,3.9
		c2.5,2.5,3.9,5.8,3.9,9.4c0,3.5-1.4,6.9-3.9,9.4C88.4,71.9,85.1,73.3,81.5,73.3z M81.5,49.6c-2.8,0-5.4,1.1-7.3,3
		c-4,4-4,10.6,0,14.7c2,2,4.6,3,7.3,3c2.8,0,5.4-1.1,7.3-3c2-2,3-4.6,3-7.3c0-2.8-1.1-5.4-3-7.3C86.9,50.7,84.3,49.6,81.5,49.6z"/>
</g>
<g>
	<path class="st0" d="M96.7,75.1c-19.4,19.4-42,28.4-50.3,20c-8.4-8.4,0.6-30.9,20-50.3c7.4-7.4,16.4-12,24.7-15
		c13.7-4.8,25.6-5.1,25.6-5.1s-0.2,11.9-5.1,25.6C108.7,58.8,104,67.8,96.7,75.1z"/>
	<path class="st1" d="M55.2,99.7c-4.2,0-7.5-1.2-9.8-3.5c-4.5-4.5-4.7-12.5-0.7-22.6c3.9-9.7,11.2-20.3,20.8-29.8
		c6.6-6.6,15-11.7,25.2-15.3c13.7-4.9,25.6-5.1,26.1-5.2c0.4,0,0.8,0.1,1,0.4c0.3,0.3,0.4,0.7,0.4,1c0,0.5-0.3,12.3-5.2,26.1
		c-3.6,10.2-8.8,18.7-15.3,25.2C83.4,90.5,66.7,99.7,55.2,99.7z M115.2,26.3c-3.6,0.2-13.1,1.2-23.6,4.9
		c-9.8,3.5-17.9,8.4-24.2,14.6C58.2,55.1,51,65.4,47.3,74.7c-3.5,8.8-3.5,15.9,0.1,19.5c1.8,1.8,4.4,2.7,7.8,2.7
		c10.8,0,26.7-8.9,40.5-22.7c6.2-6.2,11.2-14.4,14.6-24.2C114,39.5,115,30,115.2,26.3z"/>
</g>
<g>
	<path class="st2" d="M93,71.5C78.3,86.3,61.2,93.1,54.8,86.7c-6.4-6.3,0.5-23.5,15.2-38.2c14.8-14.8,38.2-15.2,38.2-15.2
		S107.8,56.7,93,71.5z"/>
</g>
<g>
	<path class="st0" d="M89.9,68.4c-4.6,4.6-12.1,4.6-16.7,0c-4.6-4.6-4.6-12.1,0-16.7c4.6-4.6,12.1-4.6,16.7,0
		C94.5,56.3,94.5,63.7,89.9,68.4z"/>
	<path class="st1" d="M81.5,73.3c-3.5,0-6.9-1.4-9.4-3.9c-5.2-5.2-5.2-13.6,0-18.8c2.5-2.5,5.8-3.9,9.4-3.9c3.5,0,6.9,1.4,9.4,3.9
		c2.5,2.5,3.9,5.8,3.9,9.4c0,3.5-1.4,6.9-3.9,9.4C88.4,71.9,85.1,73.3,81.5,73.3z M81.5,49.6c-2.8,0-5.4,1.1-7.3,3
		c-4,4-4,10.6,0,14.7c2,2,4.6,3,7.3,3c2.8,0,5.4-1.1,7.3-3c2-2,3-4.6,3-7.3c0-2.8-1.1-5.4-3-7.3C86.9,50.7,84.3,49.6,81.5,49.6z"/>
</g>
<g>
	<path class="st0" d="M111.6,50.4L91.1,29.9c13.7-4.8,25.6-5.1,25.6-5.1S116.5,36.7,111.6,50.4z"/>
	<path class="st1" d="M111.6,51.9c-0.4,0-0.7-0.1-1-0.4L90.1,30.9c-0.4-0.3-0.5-0.9-0.4-1.3c0.1-0.5,0.5-0.9,0.9-1
		c13.7-4.9,25.6-5.1,26.1-5.2c0.4,0,0.8,0.1,1,0.4c0.3,0.3,0.4,0.7,0.4,1c0,0.5-0.3,12.3-5.2,26.1c-0.2,0.5-0.6,0.8-1,0.9
		C111.9,51.9,111.8,51.9,111.6,51.9z M93.8,30.5L111,47.8c3.1-9.6,3.9-18.1,4.2-21.4C111.8,26.6,103.4,27.4,93.8,30.5z"/>
</g>
<g>
	
		<rect x="44.5" y="79.2" transform="matrix(0.7071 -0.7071 0.7071 0.7071 -50.6331 62.1612)" class="st0" width="10.5" height="26"/>
	<path class="st1" d="M55.2,106.5c-0.4,0-0.7-0.1-1-0.4L35.8,87.7c-0.3-0.3-0.4-0.6-0.4-1c0-0.4,0.2-0.7,0.4-1l7.4-7.4
		c0.6-0.6,1.5-0.6,2,0l18.4,18.4c0.6,0.6,0.6,1.5,0,2l-7.4,7.4C55.9,106.4,55.6,106.5,55.2,106.5z M38.9,86.7l16.3,16.3l5.4-5.4
		L44.2,81.4L38.9,86.7z"/>
</g>
<g>
	<path class="st0" d="M54,106c0,0-1.3,10.4-7.3,10.9c0,0,0.5-8.8-4.1-9.1c0,0-0.7,9.2-7.2,8.9c-1.9-0.1-1.3-5.6-2.4-7.1
		c-2.5-3.5-7.3-1-7.8-3c-1.3-6.4,7.6-7.1,7.6-7.1c-0.3-4.6-7.8-4.2-7.8-4.2c0.5-6,10.9-7.3,10.9-7.3"/>
	<path class="st1" d="M46.7,118.3c-0.4,0-0.7-0.1-1-0.4c-0.3-0.3-0.5-0.7-0.4-1.1c0.1-1.3-0.1-5.4-1.5-7c-0.8,3.7-3.2,8.5-8.4,8.3
		c-2.3-0.1-2.7-2.9-3-5.1c-0.1-0.8-0.3-2.2-0.5-2.6c-0.9-1.3-2.3-1.4-4.1-1.5c-1.4,0-3.5-0.1-3.9-2.1c-0.4-2-0.1-3.7,1-5.2
		c1.5-2,4.2-3,6-3.4c-1.5-1.8-5.7-1.6-5.8-1.6c-0.4,0-0.8-0.1-1.1-0.4c-0.3-0.3-0.4-0.7-0.4-1.1c0.6-7,11.7-8.5,12.2-8.6
		c0.8-0.1,1.5,0.5,1.6,1.2c0.1,0.8-0.5,1.5-1.2,1.6c-2.2,0.3-7.5,1.6-9.2,4.5c3.2,0.3,7.1,1.6,7.3,5.5c0,0.8-0.5,1.5-1.3,1.5
		c-1.1,0.1-4.4,0.7-5.8,2.5c-0.5,0.7-0.7,1.6-0.6,2.6c0.3,0,0.8,0.1,1.2,0.1c1.8,0.1,4.6,0.1,6.4,2.7c0.7,0.9,0.8,2.3,1,3.9
		c0.1,0.8,0.3,2.1,0.5,2.6c4.8,0,5.5-7.5,5.5-7.6c0.1-0.8,0.7-1.4,1.5-1.3c4,0.2,5.2,4.9,5.4,8.6c2.8-1.7,4.1-7,4.4-9.2
		c0.1-0.8,0.8-1.3,1.6-1.2c0.8,0.1,1.3,0.8,1.2,1.6c-0.1,0.5-1.6,11.6-8.6,12.2C46.8,118.3,46.7,118.3,46.7,118.3z"/>
</g>
</svg>
