<?xml version="1.0" encoding="utf-8"?>
<!-- Generator: Adobe Illustrator 24.0.1, SVG Export Plug-In . SVG Version: 6.00 Build 0)  -->
<svg version="1.1" id="Layer_1" xmlns="http://www.w3.org/2000/svg" xmlns:xlink="http://www.w3.org/1999/xlink" x="0px" y="0px"
	 viewBox="0 0 141.7 141.7" style="enable-background:new 0 0 141.7 141.7;" xml:space="preserve">
<style type="text/css">
	.st0{fill:#27251E;}
	.st1{fill:#FFFFFF;}
	.st2{fill:#008894;}
</style>
<g>
	<g>
		<path class="st0" d="M52.2,49.4"/>
	</g>
	<g>
		<path class="st0" d="M49.2,53l-1.8-2.3c1.3-1,2.7-1.9,4.1-2.6l1.4,2.6C51.6,51.3,50.4,52.1,49.2,53z"/>
	</g>
	<g>
		<path class="st0" d="M64.1,99c-0.4,0-0.7,0-1,0l0,0l0.1-2.9h0c0.3,0,0.6,0,0.9,0c1.1,0,2.3-0.1,3.4-0.2l0,0l0.4,2.9l0,0
			C66.6,98.9,65.3,99,64.1,99z M57.9,98.3L57.9,98.3c-1.6-0.4-3.2-0.9-4.6-1.5l0,0v0l1.2-2.7l0,0c1.3,0.6,2.7,1,4.1,1.4l0,0
			L57.9,98.3z M73,97.5l-1-2.8l0,0c1.4-0.5,2.7-1.1,3.9-1.8l0,0l1.5,2.6l0,0C76,96.3,74.5,96.9,73,97.5L73,97.5z M48.7,94.2
			L48.7,94.2c-1.3-0.9-2.6-2-3.7-3.1l0,0l2.1-2.1l0,0c0,0,0,0,0,0c1,1,2.1,2,3.3,2.8l0,0L48.7,94.2z M81.7,92.4l-1.9-2.2l0,0
			c0.5-0.4,0.9-0.8,1.3-1.2c0.6-0.6,1.2-1.2,1.7-1.9l0,0l2.3,1.9l0,0c-0.6,0.7-1.2,1.5-1.9,2.1C82.7,91.5,82.2,92,81.7,92.4
			L81.7,92.4z M41.6,87L41.6,87c-0.9-1.4-1.7-2.8-2.3-4.3h-0.1l2.8-1.2l0,0c0.6,1.3,1.3,2.6,2.1,3.8l0,0l0,0L41.6,87z M37.7,77.8
			L37.7,77.8c-0.4-1.6-0.6-3.2-0.6-4.8v0l0,0l2.9-0.1v0c0,1.4,0.2,2.9,0.5,4.3l0,0L37.7,77.8z M40.3,68.2l-2.9-0.5v0
			c0.3-1.6,0.7-3.2,1.2-4.7l-0.1,0h0.1h0l2.8,1l0,0C40.9,65.3,40.5,66.8,40.3,68.2L40.3,68.2z M43.3,59.8l-2.6-1.5l0,0
			c0.8-1.4,1.8-2.7,2.8-3.9v0l0,0l0,0v0l2.2,1.9l0,0l0,0C44.9,57.3,44.1,58.5,43.3,59.8L43.3,59.8z"/>
	</g>
	<g>
		<path class="st0" d="M86.7,83.8"/>
	</g>
	<g>
		<rect x="83.5" y="79.8" transform="matrix(0.707 -0.7073 0.7073 0.707 -33.2083 84.1987)" class="st0" width="3" height="4.7"/>
	</g>
	<g>
		<path class="st0" d="M78.7,78l-3.3-3.3l0,0l2.1-2.1l3.3,3.3l0,0L78.7,78z M71.8,71.1l-3.3-3.3l0,0l2.1-2.1l3.3,3.3l0,0L71.8,71.1z
			 M64.9,64.2l-3.3-3.4l0,0l2.1-2.1l3.3,3.3l0,0L64.9,64.2z M58.1,57.3L54.7,54l0,0l2.1-2.1l3.3,3.3l0,0L58.1,57.3z"/>
	</g>
</g>
<g>
	<path class="st1" d="M51.3,35.6L47,39.9l15.6,15.6c4.8-4.8,12.7-4.8,17.5,0c4.8,4.8,4.8,12.7,0,17.5l15.6,15.6l4.1-4.1l-8.9-8.9
		c1-1.7,1.7-3.4,2.2-5.3h12.6V58.4H93.2c-0.5-1.8-1.2-3.6-2.2-5.3l8.9-8.9l-8.4-8.4l-8.9,8.9c-1.7-1-3.4-1.7-5.3-2.2V29.8H65.5v12.6
		c-1.8,0.5-3.6,1.2-5.3,2.2L51.3,35.6z"/>
	<path class="st0" d="M95.7,90.1c-0.4,0-0.8-0.1-1.1-0.4L79,74.1c-0.6-0.6-0.6-1.5,0-2.1c2.1-2.1,3.2-4.8,3.2-7.7
		c0-2.9-1.1-5.6-3.2-7.7c-2.1-2.1-4.8-3.2-7.7-3.2c-2.9,0-5.6,1.1-7.7,3.2c-0.6,0.6-1.5,0.6-2.1,0L45.9,41c-0.3-0.3-0.4-0.7-0.4-1
		c0-0.4,0.2-0.8,0.4-1l4.3-4.3c0.6-0.6,1.5-0.6,2.1,0l8.2,8.2c1.1-0.6,2.3-1.1,3.5-1.4V29.8c0-0.8,0.7-1.5,1.5-1.5h11.9
		c0.4,0,0.8,0.2,1,0.4c0.3,0.3,0.4,0.7,0.4,1.1v11.5c1.2,0.4,2.4,0.9,3.5,1.5l8.1-8.1c0.6-0.6,1.5-0.6,2.1,0l8.4,8.4
		c0.6,0.6,0.6,1.5,0,2.1l-8.2,8.2c0.6,1.1,1.1,2.3,1.4,3.5l11.5,0c0.4,0,0.8,0.2,1,0.4c0.3,0.3,0.4,0.7,0.4,1v11.9
		c0,0.8-0.7,1.5-1.5,1.5H94.2c-0.4,1.2-0.9,2.4-1.5,3.5l8.1,8.1c0.3,0.3,0.4,0.7,0.4,1c0,0.4-0.2,0.8-0.4,1l-4.1,4.1
		C96.4,89.9,96,90.1,95.7,90.1z M82.1,73l13.6,13.6l2-2l-7.8-7.8c-0.5-0.5-0.6-1.2-0.2-1.8c0.9-1.5,1.6-3.2,2.1-4.9
		c0.2-0.6,0.8-1.1,1.4-1.1h11.1v-8.9H93.2c-0.7,0-1.3-0.4-1.4-1.1c-0.5-1.7-1.1-3.4-2-4.9c-0.3-0.6-0.2-1.3,0.2-1.8l7.9-7.9
		l-6.3-6.3l-7.8,7.8c-0.5,0.5-1.2,0.6-1.8,0.2c-1.5-0.9-3.2-1.6-4.9-2.1c-0.6-0.2-1.1-0.8-1.1-1.4V31.3H67v11.1
		c0,0.7-0.5,1.3-1.1,1.4c-1.7,0.5-3.4,1.1-4.9,2c-0.6,0.3-1.3,0.2-1.8-0.2l-7.9-7.9l-2.2,2.2l13.6,13.6c2.5-2,5.5-3.1,8.7-3.1
		c3.7,0,7.2,1.4,9.8,4.1c2.6,2.6,4.1,6.1,4.1,9.8C85.2,67.5,84.1,70.5,82.1,73z"/>
</g>
<g>
	<g>
		<path class="st1" d="M53,55.8c-1.4-1.4-1.4-3.8,0-5.2l0,0c1.4-1.4,3.8-1.4,5.2,0l45.9,45.9c1.4,1.4,1.4,3.8,0,5.2l0,0
			c-1.4,1.4-3.8,1.4-5.2,0L53,55.8z"/>
		<path class="st0" d="M101.5,104.2c-1.4,0-2.7-0.5-3.6-1.5L52,56.8c-2-2-2-5.3,0-7.3c1-1,2.3-1.5,3.6-1.5c1.4,0,2.7,0.5,3.6,1.5
			l45.9,45.9c1,1,1.5,2.3,1.5,3.6c0,1.4-0.5,2.7-1.5,3.6C104.2,103.7,102.9,104.2,101.5,104.2z M55.6,51c-0.6,0-1.1,0.2-1.5,0.6
			c-0.9,0.9-0.9,2.2,0,3.1l45.9,45.9c0.4,0.4,1,0.6,1.5,0.6c0.6,0,1.1-0.2,1.5-0.6c0.4-0.4,0.6-1,0.6-1.5c0-0.6-0.2-1.1-0.6-1.5
			L57.2,51.6C56.8,51.2,56.2,51,55.6,51z"/>
	</g>
	<g>
		<polygon class="st1" points="93.9,102.1 104.5,91.4 117.6,106.8 109.9,114.6 		"/>
		<path class="st0" d="M109.9,116.1c-0.3,0-0.6-0.1-0.9-0.3l-16-12.5c-0.3-0.3-0.5-0.7-0.6-1.1c0-0.4,0.1-0.8,0.4-1.1l10.7-10.7
			c0.3-0.3,0.7-0.4,1.1-0.4c0.4,0,0.8,0.2,1.1,0.5l13.1,15.4c0.5,0.6,0.5,1.5-0.1,2l-7.8,7.8C110.6,116,110.2,116.1,109.9,116.1z
			 M96.1,101.9l13.7,10.7l5.9-5.9l-11.2-13.2L96.1,101.9z"/>
	</g>
	<g>
		<path class="st1" d="M26.9,43.8c-5.3-5.3-5.3-13.8,0-19l0,0c5.3-5.3,13.8-5.3,19,0l25.7,25.7c5.3,5.3,5.3,13.8,0,19l0,0
			c-5.3,5.3-13.8,5.3-19,0L26.9,43.8z"/>
		<path class="st0" d="M62.1,74.9c-4,0-7.7-1.6-10.6-4.4L25.9,44.9c-2.8-2.8-4.4-6.6-4.4-10.6c0-4,1.6-7.7,4.4-10.6
			c2.8-2.8,6.6-4.4,10.6-4.4c4,0,7.7,1.6,10.6,4.4l25.7,25.7c5.8,5.8,5.8,15.3,0,21.1C69.9,73.4,66.1,74.9,62.1,74.9z M36.5,22.3
			c-3.2,0-6.2,1.2-8.5,3.5c-2.3,2.3-3.5,5.3-3.5,8.5c0,3.2,1.2,6.2,3.5,8.5l25.7,25.7c2.3,2.3,5.3,3.5,8.5,3.5
			c3.2,0,6.2-1.2,8.5-3.5c4.7-4.7,4.7-12.3,0-16.9L44.9,25.8C42.7,23.6,39.7,22.3,36.5,22.3z"/>
	</g>
	<g>
		<path class="st2" d="M31.9,43.2c-4.4-4.4-4.9-10.9-1.2-14.7l0,0c3.7-3.7,10.3-3.2,14.7,1.2l21.4,21.4c4.4,4.4,4.9,10.9,1.2,14.7
			l0,0c-3.7,3.7-10.3,3.2-14.7-1.2L31.9,43.2z"/>
	</g>
</g>
<g>
	<path class="st1" d="M65.3,63.1c-0.7,0.7-2,0.4-3-0.6L33.9,34.2c-1-1-1.3-2.4-0.6-3l0,0c0.7-0.7,2-0.4,3,0.6l28.3,28.3
		C65.7,61.1,65.9,62.5,65.3,63.1L65.3,63.1z"/>
</g>
</svg>
