<?xml version="1.0" encoding="utf-8"?>
<!-- Generator: Adobe Illustrator 24.0.1, SVG Export Plug-In . SVG Version: 6.00 Build 0)  -->
<svg version="1.1" id="Layer_1" xmlns="http://www.w3.org/2000/svg" xmlns:xlink="http://www.w3.org/1999/xlink" x="0px" y="0px"
	 viewBox="0 0 141.7 141.7" style="enable-background:new 0 0 141.7 141.7;" xml:space="preserve">
<style type="text/css">
	.st0{fill:#008E97;}
	.st1{fill:#F8A363;}
	.st2{fill:#1F1F19;}
	.st3{fill:#FFFFFF;}
</style>
<path class="st0" d="M89.4,40.6L89.4,40.6C88.6,34.4,85.5,29,81,25.1c0,0,0,0-0.1,0v3.5c0,1.2-1,2.1-2.2,2c-1.1-0.1-1.8-1.1-1.8-2.2
	v-6.3c0,0,0,0,0,0c-1.7-1-3.5-1.7-5.4-2.3c-0.3-0.3-0.7-0.5-1.1-0.7c-0.1-1.6-1.4-2.8-3-2.8H60c-1.8,0-3.2,1.6-3,3.3l0,0.1l0,0.2
	c-1.7,0.5-3.4,1.3-5,2.1c0,0,0,0,0,0v8.1c0,0.5-0.2,0.9-0.4,1.2c-0.3,0.2-0.7,0.4-1.1,0.7c-0.2,0.1-0.5,0.1-0.7,0.1
	c-1.1-0.1-1.8-1.1-1.8-2.2v-5c0,0,0,0-0.1,0c-4.5,3.9-7.6,9.4-8.4,15.6c-1,0-1.9,0.9-1.9,1.9v1.7h53.6v-1.7
	C91.3,41.5,90.4,40.6,89.4,40.6z M69.2,33.1L67,34.7c-0.2,0.1-0.2,0.3-0.2,0.5l0.9,2.7c0.1,0.4-0.3,0.7-0.7,0.5l-2.3-1.6
	c-0.2-0.1-0.4-0.1-0.5,0L62,38.3c-0.3,0.2-0.8-0.1-0.7-0.5l0.9-2.7c0.1-0.2,0-0.4-0.2-0.5l-2.3-1.6c-0.3-0.2-0.2-0.8,0.3-0.8h2.8
	c0.2,0,0.4-0.1,0.4-0.3l0.9-2.7c0.1-0.4,0.7-0.4,0.8,0l0.9,2.7c0.1,0.2,0.2,0.3,0.4,0.3H69C69.4,32.3,69.6,32.8,69.2,33.1z"/>
<path class="st1" d="M55.3,48.2c-1.1,0.6-2,2.3-2.7,2.9c-1,0.8-1.6,1.7-1.9,2.6c0,0.2,0.1,0.5,0.1,0.7c0,0.3,0.1,0.5,0.1,0.7
	c0.2,1.8,0.7,3.6,1.2,5.2c0.1,0.2,0.2,0.5,0.3,0.7c0.5,1.3,1.2,2.5,2,3.7c0.9,1.2,1.9,2.3,2.9,3.1c1.1,0.9,2.3,1.6,3.6,2.1
	c1.4,0.4,2.6,0.6,3.7,0.7l0.2,0c1.7,0,3.3-0.4,4.8-1.1c1.2-0.6,2.3-1.3,3.4-2.3c1-0.9,1.9-2,2.7-3.2c0.7-1.1,1.3-2.3,1.8-3.6
	c0.6-1.6,1-3.4,1.2-5.2c0-0.2,0.1-0.5,0.1-0.7c0-0.2,0.1-0.6,0.1-0.7c-0.3-0.9-0.9-1.8-1.9-2.6c-0.7-0.6-1.6-2.3-2.7-2.9H55.3z"/>
<path class="st2" d="M90.1,48.3c-0.2-0.6-0.4-1.1-0.7-1.4H75.8c1.1,0.6,2.2,1.4,3.1,2.2c1.3,1.1,2.3,2.5,2.8,4
	c0.2,0.7-0.1,1.8-0.2,2.5c-0.3,2-0.7,3.9-1.4,5.8c-0.5,1.5-1.2,2.8-2.1,4.2c-0.9,1.4-1.9,2.6-3.1,3.7c-1.2,1.1-2.6,2.1-4.1,2.8
	c-1.9,0.9-4.1,1.4-6.2,1.3c-1.6,0-3.1-0.3-4.5-0.8c-1.6-0.6-3.1-1.4-4.4-2.5c-1.3-1.1-2.4-2.3-3.4-3.7c-0.9-1.3-1.7-2.7-2.3-4.2
	c-0.1-0.3-0.2-0.5-0.3-0.8c-0.7-1.9-1.1-3.8-1.4-5.8c-0.1-0.7-0.4-1.8-0.2-2.5c0.5-1.5,1.5-2.9,2.8-4c0.9-0.8,2-1.5,3.1-2.2H40.4
	c-0.3,0.3-0.5,0.7-0.7,1.4c-0.5,1.8,0.3,3.1,1,3.9c0.5,0.6,0.9,1.4,0.8,2.2c0,0.8,0.1,1.8,0.9,2.3c0.2,0.2,0.5,0.2,0.8,0.2l0.5,0
	c0.2,0,0.4,0.2,0.5,0.4c0.1,0.7,0.3,2,0.5,3.3c0.1,0.8,0.5,1.6,0.7,2.4c0.3,0.9,0.7,1.9,1.2,2.8c0.5,1,1.1,2,1.7,2.9
	c0.7,1,1.5,2,2.4,2.9c1,1,2,1.8,3.2,2.6c5,3.3,11.3,4.5,17,2.4c1.3-0.5,2.5-1,3.7-1.7c1.2-0.7,2.4-1.5,3.5-2.4
	c1-0.8,1.9-1.8,2.7-2.8c0.7-0.9,1.4-1.9,2-2.9c0.5-0.9,1-1.9,1.4-2.8c0.3-0.8,0.6-1.7,0.9-2.5c0.1-0.3,0.2-0.5,0.2-0.8
	c0.2-1.3,0.4-2.7,0.5-3.3c0-0.2,0.2-0.4,0.5-0.4l0.5,0c0.3,0,0.6-0.1,0.8-0.2c0.8-0.5,0.9-1.5,0.9-2.3c0-0.8,0.3-1.6,0.8-2.2
	C89.9,51.4,90.6,50.1,90.1,48.3z"/>
<path class="st2" d="M108.4,112.9L105,92.7c-0.3-1.7-1.5-3-3.1-3.5L79,82.6c-0.5-0.2-1.1,0.1-1.4,0.6l-9,16.3l-1.3-11.2h0l2-2
	c0.4-0.4,0.4-1.1,0.1-1.5c-1.4-1.7-3.5-2.7-4.4-3c-0.3-0.1-0.6-0.1-0.8,0c-0.9,0.4-3,1.3-4.4,3c-0.4,0.4-0.3,1.1,0.1,1.5l1.7,1.7
	c0.2,0.2,0.3,0.6,0.3,0.9l-1.3,10.7l-9-16.4c-0.3-0.5-0.8-0.7-1.4-0.6l-22.9,6.6c-1.6,0.5-2.8,1.8-3.1,3.5l-3.4,20.2
	c-0.3,1.9,1.1,3.5,3,3.5h81.9C107.3,116.5,108.7,114.8,108.4,112.9z"/>
<g>
	<g>
		<path class="st3" d="M113,96c-2.3,2.3-5.9,2.3-8.2,0l0,0c-2.3-2.3-2.3-5.9,0-8.2l5.1-5.1c2.3-2.3,5.9-2.3,8.2,0l0,0
			c2.3,2.3,2.3,5.9,0,8.2L113,96z"/>
		<path class="st2" d="M108.9,98.4c-1.7,0-3.4-0.7-4.6-1.9c-1.2-1.2-1.9-2.9-1.9-4.6c0-1.7,0.7-3.4,1.9-4.6l5.1-5.1
			c1.2-1.2,2.9-1.9,4.6-1.9c1.7,0,3.4,0.7,4.6,1.9c2.5,2.5,2.5,6.7,0,9.2l-5.1,5.1C112.2,97.8,110.6,98.4,108.9,98.4z M114,81.7
			c-1.4,0-2.6,0.5-3.6,1.5l-5.1,5.1c-1,1-1.5,2.2-1.5,3.6c0,1.4,0.5,2.6,1.5,3.6c1,1,2.3,1.5,3.6,1.5c1.4,0,2.6-0.5,3.6-1.5l5.1-5.1
			c2-2,2-5.2,0-7.2C116.6,82.3,115.3,81.7,114,81.7z"/>
	</g>
	<g>
		
			<rect x="78.8" y="96.3" transform="matrix(0.7071 -0.7072 0.7072 0.7071 -43.2681 99.7053)" class="st3" width="39.9" height="11.6"/>
		<path class="st2" d="M88.7,121c-0.2,0-0.4-0.1-0.5-0.2l-8.2-8.2c-0.3-0.3-0.3-0.7,0-1l28.2-28.2c0.3-0.3,0.7-0.3,1,0l8.2,8.2
			c0.1,0.1,0.2,0.3,0.2,0.5c0,0.2-0.1,0.4-0.2,0.5l-28.2,28.2C89.1,120.9,88.9,121,88.7,121z M81.5,112.1l7.2,7.2l27.2-27.2
			l-7.2-7.2L81.5,112.1z"/>
	</g>
	<g>
		
			<rect x="82.2" y="98.8" transform="matrix(0.7072 -0.7071 0.7071 0.7072 -43.2678 99.6863)" class="st1" width="33.1" height="6.5"/>
	</g>
	<g>
		<polygon class="st3" points="80.5,112.1 77.2,123.6 88.7,120.3 		"/>
		<path class="st2" d="M77.2,124.3c-0.2,0-0.4-0.1-0.5-0.2c-0.2-0.2-0.2-0.4-0.2-0.7l3.4-11.6c0.1-0.2,0.3-0.4,0.5-0.5
			c0.2-0.1,0.5,0,0.7,0.2l8.2,8.2c0.2,0.2,0.2,0.4,0.2,0.7c-0.1,0.2-0.2,0.4-0.5,0.5l-11.6,3.4C77.3,124.3,77.2,124.3,77.2,124.3z
			 M80.9,113.4l-2.7,9.2l9.2-2.7L80.9,113.4z"/>
	</g>
</g>
<g>
	
		<rect x="91.9" y="77.5" transform="matrix(0.7071 -0.7071 0.7071 0.7071 -43.6824 99.5174)" class="st3" width="12.9" height="50"/>
	<path class="st2" d="M111.4,125.4c-0.2,0-0.4-0.1-0.5-0.2L75.6,89.9c-0.3-0.3-0.3-0.7,0-1l9.1-9.1c0.1-0.1,0.3-0.2,0.5-0.2
		c0.2,0,0.4,0.1,0.5,0.2l35.3,35.3c0.3,0.3,0.3,0.7,0,1l-9.1,9.1C111.8,125.3,111.6,125.4,111.4,125.4z M77.1,89.4l34.3,34.3
		l8.1-8.1L85.2,81.3L77.1,89.4z"/>
</g>
<g>
	<g>
		
			<rect x="94.1" y="82" transform="matrix(0.7071 -0.7072 0.7072 0.7071 -43.6828 99.5331)" class="st0" width="8.4" height="40.9"/>
	</g>
</g>
<g>
	<line class="st3" x1="82.5" y1="95.8" x2="88.1" y2="90.3"/>
	<path class="st2" d="M82.5,96.5c-0.2,0-0.4-0.1-0.5-0.2c-0.3-0.3-0.3-0.7,0-1l5.6-5.6c0.3-0.3,0.7-0.3,1,0c0.3,0.3,0.3,0.7,0,1
		L83,96.3C82.9,96.5,82.7,96.5,82.5,96.5z"/>
</g>
<g>
	<line class="st3" x1="87.6" y1="100.9" x2="93.2" y2="95.3"/>
	<path class="st2" d="M87.6,101.6c-0.2,0-0.4-0.1-0.5-0.2c-0.3-0.3-0.3-0.7,0-1l5.6-5.6c0.3-0.3,0.7-0.3,1,0c0.3,0.3,0.3,0.7,0,1
		l-5.6,5.6C88,101.5,87.8,101.6,87.6,101.6z"/>
</g>
<g>
	<line class="st3" x1="92.4" y1="105.7" x2="98" y2="100.1"/>
	<path class="st2" d="M92.4,106.4c-0.2,0-0.4-0.1-0.5-0.2c-0.3-0.3-0.3-0.7,0-1l5.6-5.6c0.3-0.3,0.7-0.3,1,0c0.3,0.3,0.3,0.7,0,1
		l-5.6,5.6C92.7,106.3,92.6,106.4,92.4,106.4z"/>
</g>
<g>
	<line class="st3" x1="97.8" y1="111.1" x2="103.4" y2="105.5"/>
	<path class="st2" d="M97.8,111.8c-0.2,0-0.4-0.1-0.5-0.2c-0.3-0.3-0.3-0.7,0-1l5.6-5.6c0.3-0.3,0.7-0.3,1,0c0.3,0.3,0.3,0.7,0,1
		l-5.6,5.6C98.2,111.8,98,111.8,97.8,111.8z"/>
</g>
<g>
	<line class="st3" x1="103.3" y1="116.6" x2="108.9" y2="111"/>
	<path class="st2" d="M103.3,117.3c-0.2,0-0.4-0.1-0.5-0.2c-0.3-0.3-0.3-0.7,0-1l5.6-5.6c0.3-0.3,0.7-0.3,1,0c0.3,0.3,0.3,0.7,0,1
		l-5.6,5.6C103.6,117.2,103.5,117.3,103.3,117.3z"/>
</g>
</svg>
