<?xml version="1.0" encoding="utf-8"?>
<!-- Generator: Adobe Illustrator 24.0.1, SVG Export Plug-In . SVG Version: 6.00 Build 0)  -->
<svg version="1.1" id="Layer_1" xmlns="http://www.w3.org/2000/svg" xmlns:xlink="http://www.w3.org/1999/xlink" x="0px" y="0px"
	 viewBox="0 0 141.7 141.7" style="enable-background:new 0 0 141.7 141.7;" xml:space="preserve">
<style type="text/css">
	.st0{fill:#120E11;}
	.st1{fill:#008F97;}
	.st2{fill:#F9A464;}
</style>
<g id="XMLID_60_">
	<g>
		<g>
			<path class="st0" d="M107.3,74.8c0,20.9,0,24.6,0,24.6s-0.8,10.7-29.4,10.7H72c-1,0-2,0-2.9,0V90.9l2.1-1.5l3.7,5.4l7.6-11.2
				l-7.6-28v0l9.6-3.6h0C93.3,54.4,107.3,60.4,107.3,74.8z"/>
		</g>
		<g>
			<path class="st0" d="M75,55.7L75,55.7l-7.7,28l3.9,5.7l-2.1,1.5c-17.1,0-21.8-15.1-21.8-15.1h-2.8c0,0-0.5,1.7-1.9,4
				c0-1.5,0-3.2,0-5c0-14.4,14.1-20.4,22.7-22.7L75,55.7z"/>
		</g>
		<g>
			<path class="st1" d="M42.6,85.6c0,6.6,0,10.1,0,12c-4.6,1.5-7.9,5.8-7.9,10.9c0,6.4,5.1,11.5,11.5,11.5c6.2,0,11.3-4.9,11.5-11.1
				c2.2,0.4,4.7,0.7,7.6,0.9v3.6c0,0-2.9,13.8-19.3,17.9c0,0-18.8-7.4-18.8-17.7V94C34.8,93.1,39.7,89.1,42.6,85.6z"/>
		</g>
		<g>
			<path class="st2" d="M55.2,108.4c0,0,0,0.1,0,0.1c0,5-4.1,9.1-9.1,9.1c-5,0-9.1-4.1-9.1-9.1c0-3.8,2.4-7.1,5.7-8.4
				C43.3,101.8,45.6,106,55.2,108.4z"/>
		</g>
		<g>
			<path class="st2" d="M46.1,99.4c5,0,9,4,9.1,9c-9.7-2.4-12-6.7-12.5-8.3C43.8,99.7,44.9,99.4,46.1,99.4z"/>
		</g>
		<g>
			<path class="st1" d="M45.9,80.5c0,0,4.3,12.9,19.3,13.5v15.9c-2.9-0.2-5.4-0.5-7.6-0.9c0,0,0,0,0,0c0.2-6.5-5-11.9-11.5-11.9
				c-1.2,0-2.4,0.2-3.6,0.6v-12C44.9,82.9,45.9,80.5,45.9,80.5z"/>
		</g>
	</g>
</g>
<g>
	<path class="st0" d="M58.4,34.7h32.2c-1.2,9.1-7.9,16.2-16.1,16.2C66.3,50.8,59.6,43.8,58.4,34.7z"/>
</g>
<g>
	<path class="st2" d="M74.5,12.9c9,0,16.3,8.5,16.3,18.9h-6.2L81.2,24v7.9H66.9V24l-3.4,7.9h-5.3C58.2,21.4,65.5,12.9,74.5,12.9z"/>
</g>
<g>
	<path class="st2" d="M56,31.9c0-11.9,8.3-21.5,18.5-21.5C84.7,10.3,93,20,93,31.9h-2.2c0-10.5-7.3-18.9-16.3-18.9
		s-16.3,8.5-16.3,18.9H56z"/>
</g>
</svg>
