<?xml version="1.0" encoding="utf-8"?>
<!-- Generator: Adobe Illustrator 24.0.1, SVG Export Plug-In . SVG Version: 6.00 Build 0)  -->
<svg version="1.1" id="Layer_1" xmlns="http://www.w3.org/2000/svg" xmlns:xlink="http://www.w3.org/1999/xlink" x="0px" y="0px"
	 viewBox="0 0 141.7 141.7" style="enable-background:new 0 0 141.7 141.7;" xml:space="preserve">
<style type="text/css">
	.st0{fill:#FFFFFF;stroke:#1F1F19;stroke-width:3.3999;stroke-linecap:round;stroke-linejoin:round;stroke-miterlimit:10;}
	.st1{fill:#FFFFFF;}
	.st2{fill:#1F1F19;}
	.st3{fill:none;stroke:#120E11;stroke-width:2.8064;stroke-linecap:round;stroke-linejoin:round;stroke-miterlimit:10;}
	.st4{fill:#F9A464;}
	.st5{fill:#120E11;}
</style>
<g>
	<g>
		<path class="st0" d="M81.4,113.3"/>
	</g>
	<g>
		<g>
			<path class="st1" d="M105.3,88.2l1.9-3.9c0.6-1,0.7-2.1,0.4-3.1V56c0-2.2-1.8-4-4-4s-4,1.8-4,4v25.4l-4.1,6.8"/>
			<path class="st2" d="M105.3,89.9c-0.3,0-0.5-0.1-0.8-0.2c-0.8-0.4-1.2-1.4-0.8-2.3l1.9-3.9c0,0,0-0.1,0.1-0.1
				c0.3-0.5,0.4-1.2,0.2-1.8c0-0.1-0.1-0.3-0.1-0.4V56c0-1.3-1-2.3-2.3-2.3s-2.3,1-2.3,2.3v25.4c0,0.3-0.1,0.6-0.2,0.9l-4.1,6.8
				c-0.5,0.8-1.5,1.1-2.3,0.6s-1.1-1.5-0.6-2.3l3.9-6.4V56c0-3.2,2.6-5.7,5.7-5.7c3.2,0,5.7,2.6,5.7,5.7v25c0.3,1.4,0.1,2.8-0.6,4.1
				l-1.9,3.8C106.5,89.5,105.9,89.9,105.3,89.9z"/>
		</g>
		<g>
			<path class="st1" d="M99.2,106.9l13.3-22.6c0.6-1,0.7-2.1,0.4-3.1V56c0-2.2-1.8-4-4-4s-4,1.8-4,4v25.4"/>
			<path class="st2" d="M99.2,108.5c-0.3,0-0.6-0.1-0.9-0.2c-0.8-0.5-1.1-1.5-0.6-2.3L111,83.4c0.3-0.5,0.4-1.2,0.2-1.8
				c0-0.1-0.1-0.3-0.1-0.4V56c0-1.3-1-2.3-2.3-2.3s-2.3,1-2.3,2.3v25.4c0,0.9-0.8,1.7-1.7,1.7c-0.9,0-1.7-0.8-1.7-1.7V56
				c0-3.2,2.6-5.7,5.7-5.7c3.2,0,5.7,2.6,5.7,5.7v25c0.3,1.4,0.1,2.9-0.7,4.1l-13.3,22.6C100.3,108.3,99.7,108.5,99.2,108.5z"/>
		</g>
		<g>
			<path class="st1" d="M90.8,100.1v23.3h18.4v-14.1l10-22.1c0.6-1,0.6-3.6,0.4-5.6V59c0-2.2-1.8-4-4-4s-4,1.8-4,4v25.4l-9.3,15.8
				h-0.9V80.7c0-2.9-2.4-5.3-5.3-5.3s-5.3,2.4-5.3,5.3v18.1"/>
			<path class="st2" d="M109.2,125.1H90.8c-0.9,0-1.7-0.8-1.7-1.7v-23.3c0-0.2,0-0.5,0.1-0.7c-0.1-0.2-0.1-0.4-0.1-0.7v-18
				c0-3.9,3.1-7,7-7c3.8,0,7,3.1,7,7v14.7l6.8-11.5V59c0-3.2,2.6-5.7,5.7-5.7c3.2,0,5.7,2.6,5.7,5.7v22.7c0.3,4.5-0.3,5.9-0.6,6.4
				l-9.8,21.7v13.7C110.9,124.4,110.1,125.1,109.2,125.1z M92.5,121.7h15v-12.4c0-0.2,0.1-0.5,0.1-0.7l10-22.1
				c0-0.1,0.1-0.1,0.1-0.2c0.1-0.2,0.4-1.5,0.2-4.6v-0.1V59c0-1.3-1-2.3-2.3-2.3s-2.3,1-2.3,2.3v25.4c0,0.3-0.1,0.6-0.2,0.9
				l-9.3,15.8c-0.3,0.5-0.9,0.8-1.5,0.8h-0.9c-0.9,0-1.7-0.8-1.7-1.7V80.7c0-2-1.6-3.6-3.6-3.6s-3.6,1.6-3.6,3.6v18.1
				c0,0.2,0,0.5-0.1,0.7c0.1,0.2,0.1,0.4,0.1,0.7C92.5,100.2,92.5,121.7,92.5,121.7z"/>
		</g>
	</g>
	<g>
		<path class="st0" d="M44.6,113.8"/>
	</g>
	<g>
		<g>
			<path class="st1" d="M36.5,87.7l-1.9-3.9c-0.6-1-0.7-2.1-0.4-3.1V55.5c0-2.2,1.8-4,4-4s4,1.8,4,4v25.4l4.1,6.8"/>
			<path class="st2" d="M36.5,89.4c-0.6,0-1.2-0.4-1.5-0.9l-2-3.9c-0.7-1.2-0.9-2.7-0.6-4.1v-25c0-3.2,2.6-5.7,5.7-5.7
				c3.2,0,5.7,2.6,5.7,5.7v24.9l3.9,6.4c0.5,0.8,0.2,1.8-0.6,2.3s-1.8,0.2-2.3-0.6l-4.1-6.8c-0.2-0.3-0.2-0.6-0.2-0.9V55.5
				c0-1.3-1-2.3-2.3-2.3s-2.3,1-2.3,2.3v25.2c0,0.1,0,0.3-0.1,0.4c-0.2,0.6-0.1,1.2,0.2,1.8c0,0,0,0.1,0.1,0.1l1.9,3.9
				c0.4,0.8,0.1,1.9-0.8,2.3C37,89.3,36.7,89.4,36.5,89.4z"/>
		</g>
		<g>
			<path class="st1" d="M42.6,106.4L29.2,83.8c-0.6-1-0.7-2.1-0.4-3.1V55.5c0-2.2,1.8-4,4-4s4,1.8,4,4v25.4"/>
			<path class="st2" d="M42.6,108.1c-0.6,0-1.1-0.3-1.5-0.8L27.8,84.7c-0.7-1.3-1-2.7-0.7-4.1v-25c0-3.2,2.6-5.7,5.7-5.7
				c3.2,0,5.7,2.6,5.7,5.7V81c0,0.9-0.8,1.7-1.7,1.7s-1.7-0.8-1.7-1.7V55.5c0-1.3-1-2.3-2.3-2.3s-2.3,1-2.3,2.3v25.2
				c0,0.1,0,0.3-0.1,0.4c-0.2,0.6-0.1,1.2,0.2,1.8L44,105.5c0.5,0.8,0.2,1.9-0.6,2.3C43.2,108,42.9,108.1,42.6,108.1z"/>
		</g>
		<g>
			<path class="st1" d="M50.9,99.7V123H32.6v-14.1l-10-22.1c-0.6-1-0.6-3.6-0.4-5.6V58.5c0-2.2,1.8-4,4-4s4,1.8,4,4v25.4l9.3,15.8
				h0.9V80.2c0-2.9,2.4-5.3,5.3-5.3c2.9,0,5.3,2.4,5.3,5.3v18.1"/>
			<path class="st2" d="M50.9,124.6H32.6c-0.9,0-1.7-0.8-1.7-1.7v-13.7l-9.8-21.7c-0.3-0.5-0.9-1.9-0.6-6.4V58.5
				c0-3.2,2.6-5.7,5.7-5.7c3.2,0,5.7,2.6,5.7,5.7v24.9l6.8,11.5V80.2c0-3.8,3.1-7,7-7c3.8,0,7,3.1,7,7v18.1c0,0.2,0,0.5-0.1,0.7
				c0.1,0.2,0.1,0.4,0.1,0.7V123C52.6,123.9,51.9,124.6,50.9,124.6z M34.3,121.2h15V99.7c0-0.2,0-0.5,0.1-0.7
				c-0.1-0.2-0.1-0.4-0.1-0.7V80.2c0-2-1.6-3.6-3.6-3.6s-3.6,1.6-3.6,3.6v19.5c0,0.9-0.8,1.7-1.7,1.7h-0.9c-0.6,0-1.2-0.3-1.5-0.8
				l-9.3-15.8c-0.2-0.3-0.2-0.6-0.2-0.9V58.5c0-1.3-1-2.3-2.3-2.3s-2.3,1-2.3,2.3v22.7v0.1c-0.2,3.1,0.1,4.4,0.2,4.6
				c0,0.1,0.1,0.1,0.1,0.2l10,22.1c0.1,0.2,0.2,0.5,0.2,0.7v12.3H34.3z"/>
		</g>
	</g>
</g>
<path class="st3" d="M63.9,37.1c1.3,3.8,3.7,6.6,6.8,6.6c3.1,0,5.5-2.8,6.8-6.6c4.2,0.4,5.7-5.8,3.7-6.9c-0.5-0.3-1.1-0.3-1.6,0
	c0.7-2.7,0.9-5.6-0.2-8.2c-1.6-3.7-5.4-5.9-9.4-5.3c-4,0.5-4.9,3.8-4.9,3.8c-4.2,1.5-3.9,6.4-3.1,9.8c-0.5-0.3-1.1-0.4-1.7-0.1
	C58.2,31.3,59.8,37.5,63.9,37.1z"/>
<path class="st4" d="M70.7,40.2c-2.4,0-3.8-3.2-4.3-4.5L66,34.4l-0.3-0.9l-0.9-3.7c-0.6-2.5-0.8-5.7,1.6-6.4l0.9-0.3l0.3-0.9
	c0.1-0.2,0.6-1.7,2.8-2c0.3,0,0.5-0.1,0.9-0.1c2.4,0,4.6,1.5,5.6,3.7c0.9,1.9,0.5,4.3,0.1,6l-1,3.6l-0.3,1l-0.4,1.3
	C74.5,37,73.2,40.2,70.7,40.2z"/>
<path class="st5" d="M92.4,66.4c-1.2-5-3.3-12.9-4.6-14.2c-1.3-1.2-5.2-2.8-8-3.8l-1.3-1.8c-0.3-0.5-1-0.3-1.2,0.2L77,47.5l0,0
	l-3.6,10.2l-1.5-7.4l1.8-2.8h-3h-3l1.8,2.8l-1.4,6.9l-3.7-10.4c-0.2-0.5-0.9-0.6-1.2-0.2L62,48.5c-2.8,1-6.7,2.5-8,3.8
	s-3.4,9.2-4.6,14.2c-0.5,2.2,1.1,4.3,3.4,4.3h18.1H89C91.2,70.7,92.9,68.6,92.4,66.4z"/>
</svg>
