<?xml version="1.0" encoding="utf-8"?>
<!-- Generator: Adobe Illustrator 24.0.1, SVG Export Plug-In . SVG Version: 6.00 Build 0)  -->
<svg version="1.1" id="Layer_1" xmlns="http://www.w3.org/2000/svg" xmlns:xlink="http://www.w3.org/1999/xlink" x="0px" y="0px"
	 viewBox="0 0 141.7 141.7" style="enable-background:new 0 0 141.7 141.7;" xml:space="preserve">
<style type="text/css">
	.st0{fill:#27251E;}
	.st1{fill:#008F97;}
</style>
<g>
	<g id="XMLID_53_">
		<g>
			<g>
				<path class="st0" d="M132.4,55.1c2.3,2.3,2.3,6.1-0.1,8.4c-2.3,2.3-6.1,2.3-8.4,0l-17.8-17.9c-2.3-2.3-2.3-6.1,0-8.4
					c1.2-1.2,2.7-1.7,4.2-1.7c1.5,0,3.1,0.6,4.2,1.8L132.4,55.1z"/>
			</g>
			<g>
				<path class="st0" d="M119.8,65.2c0,0,4,2.1,0,5.9c-4,3.8-12,11.4-12,11.4l-2.4-2.1L84.3,61.4c0,0-4.9-6.4-8.4,0
					c-3.5,6.4-7.1,12.2-7.1,12.2S57.4,78,58.7,65.2l8.2-18v0l0.7-1.5c0,0,0.3-0.7,1-1.6c1.7-1.9,5.5-4.8,13.1-3.3
					c11.1,2.2,19.9,4.9,19.9,4.9L119.8,65.2z"/>
			</g>
			<g>
				<path class="st1" d="M102.9,93.6l-5-5l-0.2-0.2l1.3-1.4c0.2,0.2,0.3,0.4,0.6,0.6l3.9,3.8c1.5,1.5,3.6,1.9,4.6,0.8
					c1.1-1,0.7-3.1-0.8-4.6l-3.9-3.8c-0.2-0.2-0.5-0.4-0.7-0.6l1.4-1.5l5.3,5.3c2.1,2.1,2.3,5.2,0.5,7
					C108.1,95.9,105,95.7,102.9,93.6z"/>
			</g>
			<g>
				<path class="st1" d="M100.5,101.2c1.1-1.1,0.7-3.2-0.8-4.6l-3.9-3.8c-0.4-0.4-0.8-0.7-1.3-0.9l1.6-1.7c0.1,0,0.1,0.1,0.2,0.2
					l5.3,5.3c2.1,2.1,2.3,5.2,0.5,7c-1.8,1.8-5,1.6-7-0.4l-5.3-5.3c0,0-0.1,0-0.1-0.1l1.3-1.4h0c0.2,0.4,0.5,0.8,0.9,1.2l3.9,3.8
					C97.4,101.9,99.5,102.2,100.5,101.2z"/>
			</g>
			<g>
				<path class="st1" d="M94,103.5c2.1,2.1,2.3,5.2,0.5,7c-1.8,1.8-5,1.6-7-0.4l-5.1-5.1l-0.2-0.2l1.5-1.5c0.2,0.3,0.4,0.6,0.7,0.9
					l3.9,3.8c1.5,1.5,3.6,1.8,4.6,0.8c1-1.1,0.7-3.1-0.8-4.6l-3.9-3.8c-0.3-0.3-0.6-0.6-1-0.8l1.4-1.4c0,0,0.1,0.1,0.1,0.1L94,103.5
					L94,103.5z"/>
			</g>
			<g>
				<path class="st0" d="M81.5,105.7c1.7,2.1,1.6,5.2-0.3,7.1l-5.3,5.4c-2.1,2.1-5.4,2.1-7.5,0.1c-1.1-1-1.6-2.4-1.6-3.8
					c0-1.3,0.5-2.7,1.5-3.7l1.3-1.4l3.8-3.9l0.1-0.1c2.1-2.1,5.4-2.1,7.5,0C81.3,105.5,81.4,105.6,81.5,105.7z"/>
			</g>
			<g>
				<path class="st0" d="M72,96.5c2.1,2.1,2.1,5.4,0.1,7.5l-4,4l-8.2-6.8l4.3-4.3l0.3-0.3C66.6,94.5,69.9,94.4,72,96.5z"/>
			</g>
			<g>
				<path class="st0" d="M62.3,87.6c2.1,2.1,2.1,5.4,0.1,7.5l-4.4,4.5l-8.2-6.8l5.1-5.2C56.8,85.6,60.2,85.6,62.3,87.6z"/>
			</g>
			<g>
				<path class="st0" d="M59.9,101.2l8.2,6.8l-1.3,1.3c-2.1,2.1-5.4,2.1-7.5,0.1c-1.1-1-1.6-2.4-1.6-3.8c0-1.4,0.5-2.7,1.5-3.7
					L59.9,101.2z"/>
			</g>
			<g>
				<path class="st0" d="M53.5,78.7c2.1,2.1,2.1,5.4,0,7.5l-0.1,0.1l-5.2,5.3c-2.1,2.1-5.4,2.1-7.5,0c-1-1-1.6-2.4-1.6-3.8
					c0-1.4,0.5-2.7,1.5-3.7l5.3-5.4c0.1-0.1,0.2-0.2,0.4-0.3c0.9-0.7,1.9-1.2,3-1.2C50.8,77.1,52.3,77.6,53.5,78.7z"/>
			</g>
			<g>
				<path class="st0" d="M49.7,92.8l8.2,6.8l-0.9,0.9c-2,2.1-5.4,2.1-7.5,0.1c-1.1-1-1.6-2.4-1.6-3.8c0-1.3,0.5-2.7,1.5-3.7
					L49.7,92.8z"/>
			</g>
			<g>
				<polygon class="st1" points="42,35.4 55,48.1 63.9,45.5 63.8,45.7 62.3,48.6 54.2,51.2 42.3,40.4 26.7,58.5 46.8,75.2 
					44.9,76.6 44,77.2 21.5,58.8 				"/>
			</g>
			<g>
				<path class="st1" d="M37.2,27.9c2.5,2.2,2.7,6,0.5,8.4L20.8,55.1c-2.2,2.5-6,2.7-8.4,0.5c-1.3-1.2-2-2.8-2-4.4
					c0-1.4,0.5-2.8,1.5-4l16.8-18.8C30.9,25.8,34.7,25.6,37.2,27.9z"/>
			</g>
		</g>
	</g>
</g>
</svg>
